<svg width="24" height="24" viewBox="0 0 14 14" fill="none" xmlns="http://www.w3.org/2000/svg">
<path d="M2.30744 13.08V4.60527C2.30744 4.03857 2.76964 3.57917 3.33979 3.57917C3.90993 3.57917 4.37213 4.03857 4.37213 4.60527V10.5975C4.37213 12.0275 5.53668 13.1867 6.97323 13.1867C8.40977 13.1867 9.57432 12.0275 9.57432 10.5975V6.4449C9.57432 5.8782 10.0365 5.41879 10.6067 5.41879C11.1768 5.41879 11.639 5.8782 11.639 6.4449V13.08C11.639 13.1389 11.6868 13.1867 11.7457 13.1867H13.6132C13.6721 13.1867 13.7199 13.1389 13.7199 13.08V4.23646C13.7199 4.1875 13.6866 4.14482 13.639 4.13297L7.62594 2.6327C7.55863 2.6159 7.49345 2.66682 7.49345 2.73619V10.5975C7.49345 10.8835 7.26054 11.1153 6.97323 11.1153C6.68592 11.1153 6.45301 10.8835 6.45301 10.5975V2.39685C6.45301 2.34788 6.41967 2.3052 6.37216 2.29335L0.359051 0.793081C0.291741 0.776287 0.226562 0.827201 0.226562 0.896575V13.08C0.226562 13.1389 0.274319 13.1867 0.333229 13.1867H2.20077C2.25968 13.1867 2.30744 13.1389 2.30744 13.08Z" fill="black"/>
</svg>
