<svg width="180" height="180" viewBox="0 0 360 360" fill="none" xmlns="http://www.w3.org/2000/svg">
<path d="M204.972 261.248C203.426 262.41 201.955 263.609 200.334 264.658C196.79 266.906 192.831 268.143 188.721 268.93C185.064 269.605 181.369 269.792 177.636 269.68C171.792 269.455 166.137 268.405 160.896 265.67C158.935 264.658 157.126 263.421 155.58 261.847C155.203 261.435 155.09 261.135 155.278 260.573C158.219 252.366 161.16 244.159 164.101 235.952C166.175 230.107 168.361 224.298 170.322 218.452C171.001 216.391 171.34 214.217 171.755 212.081C172.509 208.034 172.923 203.949 172.848 199.827C172.697 193.719 171.566 187.873 168.663 182.439C166.175 177.755 162.744 173.932 158.144 171.159C156.673 170.297 155.09 169.623 153.468 168.986C140.536 163.927 127.905 158.343 115.84 151.485C107.545 146.801 99.6277 141.554 92.464 135.296C86.8085 130.35 81.7185 124.879 77.9481 118.32C75.422 113.973 73.6876 109.364 73.1221 104.38C72.6696 100.22 72.9713 96.173 74.781 92.3506C75.6482 90.5518 77.458 90.252 78.9661 91.6011C79.9841 92.5005 80.6628 93.6247 81.1152 94.8613C81.4923 95.9481 81.8693 97.0348 82.1332 98.1216C82.4726 99.4707 83.3398 100.445 84.3955 101.27C86.6577 102.993 89.2969 103.93 92.0116 104.717C96.3475 105.954 100.759 106.703 105.208 107.228C110.524 107.902 115.689 109.139 120.892 110.338C131.035 112.699 140.951 115.622 150.603 119.594C156.749 122.105 162.668 125.028 168.098 128.851C171.943 131.549 175.412 134.622 178.202 138.444C178.579 138.969 178.918 139.531 179.333 140.018C179.899 140.692 180.313 140.692 180.879 140.018C181.859 138.781 182.764 137.47 183.782 136.233C186.044 133.46 188.797 131.212 191.7 129.15C199.806 123.417 208.855 119.632 218.168 116.372C228.008 112.961 238.113 110.451 248.331 108.39C252.026 107.64 255.758 107.228 259.491 106.591C263.978 105.841 268.427 104.979 272.612 103.106C274.12 102.431 275.553 101.644 276.646 100.407C277.287 99.6955 277.74 98.9086 277.966 97.9718C278.418 95.9482 279.097 93.9619 280.454 92.2756C281.246 91.3013 282.226 90.7016 283.546 90.8515C284.187 90.9265 284.639 91.1513 284.941 91.7509C285.997 93.6621 286.6 95.7232 286.864 97.8592C287.769 104.68 286.072 110.938 282.905 116.934C279.663 123.117 275.138 128.363 270.086 133.085C262.809 139.868 254.627 145.489 246.031 150.473C233.702 157.631 220.769 163.477 207.498 168.611C204.067 169.96 200.786 171.534 197.996 173.97C193.698 177.755 190.833 182.439 189.061 187.873C187.402 192.97 186.987 198.216 187.213 203.537C187.439 208.259 188.194 212.906 189.362 217.478C189.928 219.726 190.87 221.899 191.625 224.073C195.96 236.252 200.334 248.394 204.67 260.573C204.783 260.723 204.858 260.911 204.972 261.248Z" fill="white"/>
<path d="M179.861 273.429C179.069 273.429 178.277 273.429 177.485 273.391C170.359 273.129 164.365 271.667 159.124 268.969C156.635 267.695 154.599 266.196 152.865 264.472C151.432 263.048 151.018 261.212 151.696 259.3C154.147 252.518 156.56 245.735 159.011 238.914L162.328 229.696C163.837 225.574 165.307 221.451 166.74 217.292C167.23 215.793 167.532 214.144 167.871 212.42L168.059 211.408C168.814 207.286 169.153 203.538 169.077 199.941C168.927 193.833 167.72 188.699 165.345 184.202C163.12 180.005 160.066 176.707 156.221 174.421C154.976 173.671 153.506 173.072 152.111 172.547C136.992 166.626 124.851 161.005 113.993 154.822C104.529 149.463 96.6865 143.992 90.013 138.183C83.3018 132.337 78.2872 126.491 74.7054 120.27C71.7268 115.099 69.9924 110.077 69.4269 104.868C68.8236 99.5471 69.5023 94.9377 71.4252 90.8155C72.3301 88.9043 73.9513 87.5929 75.8742 87.2182C77.8347 86.8059 79.9084 87.443 81.5297 88.867C82.9247 90.1037 83.9805 91.715 84.6968 93.6636C85.1493 94.8628 85.5263 96.0621 85.8279 97.2988C85.8656 97.4487 85.941 97.7858 86.6951 98.3479C88.5426 99.7345 90.8802 100.521 93.067 101.159C96.6112 102.17 100.495 102.92 105.698 103.557C110.938 104.231 116.066 105.393 121.006 106.555L121.759 106.742C133.033 109.365 142.949 112.438 152.035 116.186C159.312 119.146 165.118 122.219 170.246 125.817C174.281 128.627 177.485 131.55 180.087 134.773C180.313 134.474 180.539 134.174 180.803 133.874C182.99 131.213 185.743 128.74 189.475 126.079C198.675 119.559 208.968 115.586 216.886 112.813C226.01 109.665 236.039 107.005 247.539 104.681C249.914 104.194 252.327 103.857 254.702 103.482C256.06 103.295 257.417 103.07 258.774 102.845C262.62 102.208 267.031 101.383 270.952 99.6222C272.385 98.9851 273.177 98.4603 273.78 97.8232C274.006 97.5609 274.12 97.3737 274.195 97.0739C274.647 95.1627 275.439 92.352 277.4 89.8787C279.059 87.8176 281.321 86.806 283.809 87.0308C285.695 87.2182 287.24 88.1925 288.145 89.8414C289.352 92.0524 290.144 94.4881 290.521 97.2612C291.426 104.269 290.03 111.239 286.185 118.547C283.055 124.505 278.72 129.976 272.611 135.71C265.9 142.006 257.794 147.852 247.878 153.623C236.492 160.218 223.71 166.252 208.817 172.023C206.102 173.072 203.011 174.459 200.484 176.707C196.827 179.967 194.263 183.977 192.642 188.961C191.285 193.158 190.757 197.88 190.983 203.314C191.172 207.548 191.85 211.971 193.019 216.505C193.396 217.929 193.924 219.353 194.49 220.852L195.206 222.763L209.42 262.523L205.838 265.222C204.707 266.083 203.539 266.983 202.332 267.732C198.712 270.018 194.603 271.517 189.362 272.529C186.346 273.166 183.216 273.429 179.861 273.429ZM159.387 260.2C160.33 260.949 161.386 261.661 162.63 262.299C166.853 264.472 171.792 265.671 177.749 265.896C181.444 266.046 184.8 265.821 187.967 265.222C192.227 264.435 195.508 263.236 198.26 261.474C199.014 260.987 199.73 260.462 200.447 259.9L187.401 223.513C186.798 221.864 186.157 220.177 185.667 218.378C184.385 213.357 183.631 208.41 183.405 203.688C183.103 197.318 183.782 191.772 185.403 186.713C187.401 180.492 190.757 175.283 195.395 171.161C198.863 168.088 202.898 166.327 206.027 165.09C220.543 159.469 232.985 153.623 243.995 147.215C253.42 141.743 261.036 136.235 267.371 130.314C272.875 125.18 276.721 120.345 279.436 115.137C282.527 109.253 283.696 103.744 282.98 98.2731C282.867 97.3737 282.678 96.5117 282.452 95.7247C282.113 96.5491 281.774 97.5236 281.509 98.7228C281.17 100.259 280.416 101.683 279.323 102.882C277.702 104.681 275.741 105.693 274.044 106.443C269.294 108.579 264.279 109.515 259.981 110.227C258.586 110.452 257.153 110.677 255.758 110.864C253.496 111.202 251.196 111.539 248.971 111.989C237.811 114.237 228.121 116.786 219.336 119.821C211.871 122.407 202.219 126.154 193.811 132.112C190.644 134.361 188.382 136.385 186.647 138.521C186.119 139.158 185.629 139.832 185.102 140.507C184.687 141.069 184.234 141.668 183.782 142.23C182.538 143.842 181.067 144.179 180.087 144.179C178.956 144.217 177.636 143.88 176.354 142.306C176.015 141.893 175.751 141.481 175.449 141.069L175.11 140.582C172.848 137.471 169.831 134.623 165.873 131.85C161.197 128.59 155.843 125.779 149.095 123.006C140.385 119.446 130.846 116.486 119.987 113.937L119.233 113.75C114.256 112.588 109.543 111.502 104.68 110.902C99.0995 110.19 94.8391 109.365 90.9179 108.241C88.1279 107.454 84.923 106.33 82.0575 104.194C80.1346 102.732 78.9282 101.046 78.4004 98.9849C78.1741 98.0106 77.8348 97.0364 77.4954 96.0995C77.4577 95.9871 77.4201 95.8746 77.3823 95.7622C76.6283 98.1231 76.4397 100.746 76.7791 103.894C77.2315 108.054 78.6642 112.139 81.1149 116.411C84.3198 121.957 88.6934 127.053 94.8391 132.412C101.136 137.884 108.563 143.055 117.612 148.189C128.169 154.185 140.008 159.656 154.788 165.465C156.409 166.102 158.256 166.851 159.991 167.901C165.006 170.898 169.04 175.208 171.905 180.642C174.846 186.188 176.354 192.409 176.505 199.716C176.58 203.838 176.241 208.111 175.374 212.72L175.185 213.694C174.846 215.643 174.469 217.629 173.79 219.615C172.358 223.812 170.849 228.009 169.341 232.169L166.024 241.388C163.874 247.683 161.65 253.942 159.387 260.2Z" fill="white"/>
</svg>
