<svg width="635" height="290" viewBox="0 0 635 290" fill="none" xmlns="http://www.w3.org/2000/svg">
<path d="M187.482 184.322C186.531 185.038 185.627 185.776 184.63 186.422C182.451 187.807 180.016 188.569 177.489 189.054C175.24 189.469 172.968 189.585 170.673 189.515C167.079 189.377 163.601 188.73 160.378 187.046C159.173 186.422 158.06 185.661 157.109 184.691C156.878 184.437 156.808 184.253 156.924 183.907C158.732 178.852 160.541 173.797 162.349 168.742C163.625 165.142 164.969 161.564 166.175 157.963C166.592 156.694 166.801 155.355 167.056 154.04C167.52 151.547 167.775 149.031 167.728 146.492C167.635 142.73 166.94 139.129 165.155 135.782C163.625 132.897 161.515 130.543 158.686 128.835C157.782 128.304 156.808 127.889 155.811 127.496C147.858 124.38 140.092 120.941 132.672 116.717C127.572 113.832 122.703 110.601 118.298 106.746C114.82 103.7 111.69 100.33 109.371 96.2906C107.818 93.6132 106.751 90.7741 106.404 87.7044C106.125 85.1424 106.311 82.6497 107.424 80.2954C107.957 79.1875 109.07 79.0028 109.997 79.8338C110.623 80.3877 111.041 81.0801 111.319 81.8418C111.551 82.5112 111.782 83.1805 111.945 83.8499C112.153 84.6808 112.687 85.2809 113.336 85.7887C114.727 86.8505 116.35 87.4274 118.019 87.9122C120.686 88.6738 123.398 89.1354 126.134 89.4586C129.403 89.874 132.58 90.6357 135.779 91.3743C142.016 92.8284 148.114 94.6287 154.049 97.0754C157.828 98.6218 161.468 100.422 164.807 102.776C167.172 104.438 169.305 106.331 171.02 108.685C171.252 109.008 171.461 109.354 171.716 109.655C172.064 110.07 172.319 110.07 172.667 109.655C173.269 108.893 173.826 108.085 174.452 107.323C175.843 105.615 177.536 104.231 179.321 102.961C184.306 99.4297 189.87 97.0983 195.597 95.0904C201.648 92.99 207.862 91.4435 214.145 90.1741C216.417 89.7124 218.712 89.4586 221.008 89.0662C223.767 88.6046 226.503 88.0737 229.076 86.9197C230.004 86.5042 230.885 86.0194 231.557 85.2578C231.951 84.8192 232.229 84.3346 232.368 83.7576C232.647 82.5112 233.064 81.2879 233.899 80.2492C234.385 79.6491 234.988 79.2798 235.8 79.3721C236.194 79.4183 236.472 79.5567 236.658 79.926C237.307 81.1032 237.678 82.3727 237.84 83.6883C238.397 87.889 237.353 91.7436 235.406 95.4366C233.412 99.245 230.63 102.476 227.523 105.385C223.048 109.562 218.017 113.025 212.731 116.094C205.149 120.503 197.197 124.103 189.035 127.265C186.925 128.096 184.908 129.066 183.193 130.566C180.55 132.897 178.788 135.782 177.698 139.129C176.678 142.268 176.423 145.499 176.562 148.777C176.701 151.685 177.165 154.547 177.883 157.363C178.231 158.748 178.811 160.087 179.275 161.425C181.941 168.927 184.63 176.405 187.297 183.907C187.366 183.999 187.412 184.114 187.482 184.322Z" fill="white"/>
<path d="M172.04 191.824C171.554 191.824 171.067 191.824 170.58 191.801C166.198 191.64 162.511 190.74 159.289 189.078C157.758 188.293 156.507 187.37 155.44 186.308C154.559 185.431 154.304 184.3 154.721 183.123C156.228 178.945 157.712 174.767 159.219 170.567L161.259 164.889C162.187 162.35 163.091 159.811 163.972 157.249C164.274 156.326 164.459 155.31 164.668 154.248L164.784 153.625C165.247 151.086 165.456 148.778 165.41 146.562C165.317 142.8 164.575 139.638 163.114 136.868C161.746 134.283 159.868 132.252 157.503 130.844C156.738 130.382 155.834 130.013 154.976 129.69C145.679 126.043 138.213 122.581 131.536 118.773C125.717 115.472 120.894 112.102 116.79 108.525C112.663 104.924 109.58 101.323 107.377 97.4919C105.546 94.3067 104.479 91.2137 104.131 88.0055C103.76 84.728 104.178 81.889 105.36 79.3501C105.916 78.1729 106.913 77.3652 108.096 77.1344C109.301 76.8805 110.577 77.2729 111.574 78.1499C112.431 78.9116 113.081 79.904 113.521 81.1042C113.799 81.8428 114.031 82.5815 114.217 83.3432C114.24 83.4355 114.286 83.6432 114.75 83.9894C115.886 84.8434 117.324 85.3281 118.668 85.7205C120.848 86.3437 123.236 86.8053 126.435 87.1977C129.658 87.6132 132.811 88.3286 135.849 89.0442L136.312 89.1595C143.244 90.7752 149.342 92.6679 154.93 94.976C159.405 96.7995 162.975 98.6921 166.128 100.908C168.609 102.639 170.58 104.439 172.18 106.424C172.319 106.24 172.458 106.055 172.62 105.87C173.965 104.232 175.657 102.708 177.953 101.069C183.61 97.0533 189.939 94.6067 194.808 92.8987C200.419 90.9598 206.586 89.3211 213.658 87.8901C215.119 87.59 216.602 87.3823 218.063 87.1515C218.898 87.0361 219.732 86.8976 220.567 86.7591C222.932 86.3668 225.644 85.859 228.056 84.7742C228.937 84.3818 229.424 84.0586 229.795 83.6662C229.934 83.5046 230.003 83.3893 230.05 83.2047C230.328 82.0276 230.815 80.2964 232.02 78.773C233.041 77.5036 234.432 76.8805 235.962 77.019C237.121 77.1344 238.072 77.7345 238.628 78.7501C239.37 80.1118 239.857 81.6121 240.089 83.3201C240.645 87.6363 239.787 91.9293 237.423 96.4301C235.498 100.1 232.832 103.47 229.076 107.001C224.949 110.879 219.964 114.48 213.866 118.034C206.865 122.096 199.005 125.812 189.847 129.367C188.177 130.013 186.276 130.867 184.723 132.252C182.474 134.26 180.897 136.73 179.9 139.799C179.066 142.385 178.741 145.293 178.88 148.64C178.996 151.248 179.413 153.971 180.132 156.764C180.364 157.641 180.688 158.518 181.036 159.442L181.477 160.619L190.218 185.108L188.015 186.77C187.319 187.301 186.601 187.854 185.859 188.316C183.633 189.724 181.106 190.647 177.883 191.271C176.028 191.663 174.104 191.824 172.04 191.824ZM159.451 183.677C160.031 184.138 160.68 184.577 161.445 184.969C164.042 186.308 167.079 187.047 170.742 187.185C173.014 187.278 175.078 187.139 177.025 186.77C179.645 186.285 181.662 185.546 183.355 184.462C183.819 184.162 184.259 183.838 184.7 183.492L176.677 161.08C176.307 160.065 175.912 159.026 175.611 157.918C174.823 154.825 174.359 151.779 174.22 148.87C174.034 144.947 174.452 141.531 175.449 138.415C176.677 134.583 178.741 131.375 181.593 128.836C183.726 126.943 186.207 125.859 188.131 125.097C197.057 121.635 204.708 118.034 211.478 114.087C217.275 110.717 221.958 107.324 225.853 103.678C229.238 100.516 231.603 97.538 233.272 94.3298C235.174 90.7061 235.892 87.3132 235.452 83.9433C235.382 83.3894 235.266 82.8584 235.127 82.3737C234.919 82.8815 234.71 83.4817 234.548 84.2203C234.339 85.1666 233.875 86.0437 233.203 86.7823C232.206 87.8901 231 88.5134 229.957 88.975C227.036 90.2906 223.952 90.8675 221.309 91.3061C220.451 91.4445 219.57 91.5831 218.712 91.6985C217.321 91.9063 215.907 92.114 214.539 92.3909C207.676 93.7758 201.718 95.3454 196.315 97.215C191.725 98.8076 185.789 101.116 180.619 104.785C178.671 106.17 177.28 107.417 176.214 108.732C175.889 109.125 175.588 109.54 175.263 109.956C175.008 110.302 174.73 110.671 174.452 111.017C173.687 112.01 172.782 112.218 172.18 112.218C171.484 112.241 170.673 112.033 169.884 111.064C169.676 110.81 169.513 110.556 169.328 110.302L169.119 110.002C167.728 108.086 165.873 106.332 163.439 104.624C160.564 102.616 157.272 100.885 153.122 99.1768C147.766 96.9842 141.9 95.1607 135.223 93.5912L134.759 93.4757C131.698 92.7602 128.8 92.0909 125.809 91.7216C122.378 91.2831 119.758 90.7753 117.347 90.0828C115.631 89.5981 113.66 88.9057 111.898 87.59C110.716 86.6899 109.974 85.6512 109.649 84.3817C109.51 83.7816 109.302 83.1816 109.093 82.6046C109.07 82.5353 109.046 82.466 109.023 82.3968C108.56 83.8509 108.444 85.4667 108.652 87.4055C108.931 89.9675 109.812 92.4832 111.319 95.1145C113.289 98.5306 115.979 101.67 119.758 104.97C123.63 108.34 128.197 111.525 133.762 114.687C140.254 118.38 147.534 121.75 156.622 125.328C157.619 125.72 158.755 126.182 159.822 126.828C162.906 128.674 165.386 131.329 167.148 134.676C168.957 138.092 169.884 141.923 169.977 146.424C170.023 148.963 169.815 151.594 169.282 154.433L169.165 155.033C168.957 156.233 168.725 157.457 168.308 158.68C167.427 161.265 166.499 163.85 165.572 166.412L163.532 172.09C162.21 175.968 160.842 179.822 159.451 183.677Z" fill="white"/>
<path d="M340.846 179.814C340.592 179.834 340.338 179.892 340.084 179.892C330.927 179.892 321.77 179.892 312.613 179.912C312.028 179.912 311.598 179.853 311.657 179.091C311.676 178.602 311.871 178.445 312.34 178.445C313.062 178.465 313.765 178.426 314.488 178.445C317.475 178.523 319.818 176.04 319.798 173.028C319.759 162.096 319.818 151.184 319.837 140.252C319.857 133.29 319.837 126.348 319.896 119.386C319.915 117.567 319.31 116.062 317.885 114.986C317.065 114.36 316.089 113.891 314.976 113.93C313.921 113.95 312.867 113.93 311.852 113.93C311.598 112.678 311.715 112.522 312.848 112.522C316.694 112.522 320.54 112.463 324.367 112.542C326.124 112.581 327.823 112.952 329.365 113.911C330.888 114.869 332.04 116.159 332.86 117.743C333.114 118.252 333.153 118.858 333.309 119.425C333.388 119.738 333.485 120.051 333.602 120.442C334.676 119.543 335.613 118.682 336.629 117.939C338.21 116.785 339.792 115.631 341.471 114.634C342.837 113.832 344.321 113.226 345.805 112.639C349.847 111.055 353.986 110.762 358.125 112.111C361.152 113.109 363.768 114.849 365.72 117.372C368.434 120.853 369.118 124.784 367.439 128.929C366.619 130.944 365.291 132.606 363.495 133.936C361.074 135.735 358.379 136.322 355.45 136.146C354.923 136.126 354.787 135.931 354.806 135.442C354.845 133.994 354.884 132.528 354.845 131.081C354.787 128.147 354.064 125.351 352.756 122.73C351.799 120.794 350.491 119.112 348.363 118.311C346.469 117.607 344.595 117.802 342.74 118.428C340.299 119.249 338.327 120.736 336.843 122.848C335.535 124.705 334.832 126.817 334.247 129.008C333.485 131.824 333.563 134.699 333.563 137.573C333.563 149.346 333.583 161.099 333.544 172.872C333.544 174.554 334.012 175.942 335.164 177.096C335.945 177.898 336.98 178.191 338.054 178.426C339.05 178.641 340.045 178.758 341.002 179.13C341.08 179.188 341.217 179.658 340.846 179.814Z" fill="white"/>
<path d="M409.768 140.175C409.593 139.705 409.436 139.275 409.28 138.845C408.187 135.833 406.957 132.88 405.375 130.084C404.106 127.815 402.7 125.625 401.041 123.611C399.635 121.909 398.132 120.345 396.394 119.035C395.125 118.057 393.719 117.275 392.177 116.805C389.638 116.023 386.475 117.411 384.952 119.602C383.781 121.303 383.059 123.161 382.375 125.058C382.043 125.977 381.809 126.974 381.711 127.952C381.458 130.318 381.165 132.685 381.165 135.07C381.165 137.535 381.458 140.018 381.731 142.482C381.907 144.047 382.2 145.611 382.59 147.136C383.137 149.268 383.683 151.419 384.445 153.492C385.382 156.034 386.456 158.538 387.647 160.963C389.111 163.955 390.907 166.771 393.036 169.352C395.125 171.875 397.487 174.046 400.416 175.493C402.271 176.392 404.204 176.725 406.176 175.766C407.718 175.023 409.319 174.339 410.862 173.576C411.74 173.146 412.599 172.657 413.439 172.149C414.025 171.777 414.357 171.777 414.728 172.501C415.548 174.124 415.626 174.124 414.064 175.043C412.033 176.236 410.022 177.448 407.933 178.524C406.41 179.306 404.829 179.951 403.208 180.479C400.455 181.379 397.604 181.438 394.754 181.203C393.348 181.086 391.981 180.655 390.595 180.362C388.389 179.893 386.378 178.915 384.484 177.742C382.824 176.705 381.262 175.493 379.778 174.202C377.338 172.07 375.346 169.528 373.667 166.732C372.086 164.072 370.875 161.275 369.918 158.323C368.064 152.573 367.751 146.745 368.474 140.82C368.708 138.903 369.118 136.967 369.645 135.11C370.485 132.196 371.617 129.36 373.16 126.74C374.585 124.334 376.205 122.046 378.177 120.012C380.325 117.783 382.688 115.906 385.382 114.4C386.944 113.539 388.623 112.953 390.302 112.366C393.211 111.369 396.16 111.271 399.166 111.447C401.548 111.584 403.833 112.229 406 113.187C407.523 113.852 409.026 114.634 410.432 115.515C411.33 116.082 412.15 116.864 412.853 117.666C415.704 120.951 417.09 124.745 416.661 129.125C416.348 132.294 415.079 135.051 413.009 137.456C412.15 138.551 411.116 139.471 409.768 140.175Z" fill="white"/>
<path fill-rule="evenodd" clip-rule="evenodd" d="M255.171 136.596C254.332 139.803 254.078 143.108 254 145.963C254.059 151.224 254.761 155.937 256.577 160.435C257.319 162.273 258.178 164.092 259.155 165.813C260.111 167.514 261.224 169.196 262.435 170.741C264.309 173.127 266.574 175.121 269.073 176.862C272.002 178.896 275.204 180.264 278.66 180.91C281.842 181.496 285.044 181.496 288.227 180.597L288.286 180.58C290.16 180.058 292.052 179.531 293.752 178.544C295.256 177.683 296.759 176.823 298.145 175.806C301.094 173.615 303.515 170.917 305.487 167.846C306.853 165.734 307.966 163.427 308.982 161.1C309.782 159.281 310.348 157.325 310.817 155.37C311.246 153.531 311.598 151.634 311.676 149.738C311.752 147.772 311.662 145.794 311.573 143.823C311.547 143.265 311.522 142.707 311.5 142.15C311.442 140.295 311.022 138.497 310.598 136.68L310.583 136.616C309.919 133.78 308.903 131.101 307.634 128.519C306.307 125.84 304.647 123.376 302.656 121.127C301.015 119.269 299.2 117.627 297.189 116.16C294.572 114.243 291.702 112.875 288.598 112.073C284.244 110.939 279.87 111.075 275.594 112.503C272.607 113.5 269.913 115.026 267.433 116.962C263.665 119.934 260.775 123.63 258.51 127.835C257.007 130.612 255.972 133.565 255.171 136.596ZM298.497 160.403C298.57 159.61 298.644 158.818 298.731 158.03C298.712 158.03 298.692 158.027 298.673 158.025C298.634 158.021 298.595 158.017 298.556 158.03C298.614 154.373 298.243 150.755 297.482 147.196C297.013 144.986 296.388 142.815 295.705 140.684C295.002 138.532 294.241 136.401 293.323 134.328C292.386 132.235 291.273 130.221 290.14 128.226C288.539 125.41 286.567 122.848 284.185 120.619C282.409 118.937 280.476 117.412 278.055 116.864C275.497 116.278 273.173 116.864 271.358 118.957C269.6 120.971 268.702 123.435 268.038 125.938C267.55 127.796 267.257 129.732 267.179 131.649C267.082 134.21 267.179 136.811 267.375 139.373C267.55 141.563 267.921 143.734 268.312 145.885C269.054 150.031 270.362 154.001 272.041 157.854C273.154 160.396 274.423 162.84 275.887 165.187C277.801 168.257 280.027 171.054 282.838 173.303C284.888 174.946 287.134 176.236 289.965 176.021C291.917 175.865 293.362 174.887 294.533 173.479C296.466 171.152 297.364 168.336 297.892 165.441C298.184 163.779 298.34 162.089 298.497 160.403Z" fill="white"/>
<path fill-rule="evenodd" clip-rule="evenodd" d="M460.489 160.701C460.516 160.639 460.544 160.577 460.571 160.513H460.571C460.629 160.513 460.688 160.513 460.649 160.532C460.659 160.587 460.67 160.642 460.681 160.698C460.732 160.961 460.786 161.232 460.786 161.491C460.786 163.192 460.786 164.913 460.766 166.614C460.766 168.062 460.805 169.528 461.02 170.975C461.547 174.398 463.382 176.784 466.604 178.055C467.58 178.446 468.615 178.602 469.669 178.602C471.651 178.602 473.628 178.607 475.605 178.612C477.582 178.617 479.559 178.622 481.54 178.622H481.853C482.126 178.622 482.263 178.465 482.341 178.211C482.536 177.566 482.263 177.214 481.599 177.194C481.316 177.188 481.036 177.179 480.756 177.17C480.205 177.153 479.657 177.136 479.1 177.136C476.835 177.136 474.59 175.004 474.472 172.775C474.453 172.344 474.433 171.894 474.433 171.464V147.938C474.433 146.832 474.435 145.726 474.436 144.62C474.439 141.307 474.443 137.993 474.414 134.679C474.394 133.33 474.258 131.961 474.062 130.631C473.928 129.706 473.712 128.79 473.495 127.871C473.395 127.45 473.295 127.027 473.203 126.603C472.988 125.527 472.637 124.471 472.168 123.474C470.06 118.937 466.858 115.495 462.23 113.461C460.141 112.542 457.935 111.936 455.67 111.525C453.034 111.036 450.379 110.958 447.704 111.017C446.689 111.036 445.673 111.134 444.658 111.232L444.658 111.232C443.442 111.343 442.277 111.671 441.111 111.999C440.836 112.077 440.561 112.155 440.285 112.229C439.943 112.322 439.596 112.408 439.248 112.494C438.423 112.699 437.592 112.905 436.809 113.207C434.349 114.146 432.104 115.436 430.054 117.079C428.492 118.311 427.105 119.739 426.168 121.518C424.88 123.963 424.411 126.544 425.114 129.262C425.817 131.961 427.476 133.995 429.683 135.618C429.917 135.794 430.171 135.931 430.444 136.048C431.459 136.498 432.475 135.912 432.572 134.797C432.598 134.537 432.607 134.27 432.616 134.004C432.62 133.87 432.624 133.736 432.631 133.604C432.709 131.668 432.885 129.751 433.353 127.854C434.31 124.021 436.243 120.775 439.387 118.331C441.847 116.414 444.658 115.241 447.704 114.654C449.617 114.283 451.531 114.224 453.405 114.732C456.783 115.652 458.931 117.94 460.2 121.108C460.571 122.027 460.805 123.005 460.825 124.021C460.864 126.525 459.926 128.637 458.111 130.319C456.393 131.903 454.791 133.135 452.663 134.132C452.056 134.412 451.418 134.714 450.77 135.02C449.563 135.591 448.32 136.178 447.177 136.674C445.029 137.613 442.881 138.591 440.89 139.842C438.43 141.407 436.048 143.089 433.763 144.907C431.557 146.648 429.429 148.486 427.672 150.715C423.474 156.035 421.678 161.96 423.005 168.687C423.884 173.127 426.344 176.431 430.503 178.289C433.471 179.619 436.594 180.108 439.836 179.619C443.74 179.032 447.274 177.546 450.301 174.965C452.468 173.107 454.401 170.995 456.158 168.746C457.915 166.497 459.165 163.955 460.239 161.315C460.314 161.105 460.4 160.906 460.489 160.701ZM460.844 131.648C460.844 131.648 460.844 131.648 460.844 131.648V131.65C460.844 131.775 460.844 131.9 460.844 132.025V134.151C460.836 134.988 460.829 135.825 460.822 136.663C460.794 139.997 460.766 143.338 460.688 146.667C460.59 150.578 459.633 154.294 457.974 157.814C456.666 160.552 454.772 162.82 452.234 164.522C450.32 165.793 448.211 166.517 445.927 166.673C445.69 166.69 445.456 166.698 445.224 166.698C443.013 166.708 441.028 165.967 439.269 164.561C438.098 163.622 437.317 162.371 436.848 160.924C435.716 157.364 436.009 153.942 437.922 150.696C438.218 150.197 438.538 149.721 438.879 149.265C440.137 147.469 441.653 145.896 443.33 144.496C445.517 142.893 447.391 141.798 449.656 140.644C454.972 137.703 456.685 135.931 459.044 133.357C459.4 132.93 459.774 132.497 460.18 132.059C460.299 131.925 460.44 131.803 460.578 131.683C460.622 131.645 460.665 131.608 460.707 131.57C460.724 131.576 460.74 131.583 460.754 131.591C460.764 131.595 460.778 131.605 460.794 131.616C460.81 131.627 460.827 131.64 460.844 131.648V131.648Z" fill="white"/>
</svg>
