<svg width="699" height="87" viewBox="0 0 699 87" fill="none" xmlns="http://www.w3.org/2000/svg">
<path d="M0.44 86V1.76H24.68L52.4 70.04L43.88 71.36L71.72 1.76H95.84V86H75.32V16.28L82.04 17.48L56.48 86H39.92L14.24 17.48L20.96 16.28V86H0.44ZM157.396 1.76V18.2H126.316V35.24H153.796V51.08H126.316V69.56H157.396V86H105.796V1.76H157.396ZM161.358 18.2V1.76H226.518V18.2H204.198V86H183.678V18.2H161.358ZM276.537 29.12C276.537 26 275.617 23.52 273.777 21.68C271.937 19.76 269.097 18.8 265.257 18.8H252.537V39.68H265.257C267.817 39.68 269.937 39.28 271.617 38.48C273.297 37.6 274.537 36.36 275.337 34.76C276.137 33.16 276.537 31.28 276.537 29.12ZM232.017 1.76H266.457C273.417 1.76 279.177 2.96 283.737 5.35999C288.297 7.76 291.697 10.96 293.937 14.96C296.257 18.96 297.417 23.4 297.417 28.28C297.417 31.64 296.817 34.88 295.617 38C294.417 41.04 292.537 43.8 289.977 46.28C287.497 48.68 284.297 50.6 280.377 52.04C276.537 53.48 271.897 54.2 266.457 54.2H252.537V86H232.017V1.76ZM254.937 49.52H276.897L298.137 86H274.977L254.937 49.52ZM345.338 86.84C339.418 86.84 333.818 85.8 328.538 83.72C323.258 81.56 318.618 78.56 314.618 74.72C310.698 70.88 307.618 66.32 305.378 61.04C303.138 55.76 302.018 49.96 302.018 43.64C302.018 37.32 303.138 31.52 305.378 26.24C307.618 20.96 310.698 16.4 314.618 12.56C318.618 8.72 323.258 5.76 328.538 3.67999C333.818 1.6 339.418 0.559999 345.338 0.559999C351.338 0.559999 356.938 1.6 362.138 3.67999C367.338 5.76 371.898 8.72 375.818 12.56C379.738 16.4 382.818 20.96 385.058 26.24C387.298 31.52 388.418 37.32 388.418 43.64C388.418 49.96 387.298 55.76 385.058 61.04C382.818 66.32 379.738 70.88 375.818 74.72C371.898 78.56 367.298 81.56 362.018 83.72C356.818 85.8 351.258 86.84 345.338 86.84ZM345.338 68.12C349.818 68.12 353.698 67.12 356.978 65.12C360.338 63.12 362.938 60.28 364.778 56.6C366.618 52.84 367.538 48.52 367.538 43.64C367.538 38.6 366.618 34.28 364.778 30.68C362.938 27 360.338 24.16 356.978 22.16C353.698 20.16 349.818 19.16 345.338 19.16C340.778 19.16 336.818 20.16 333.458 22.16C330.178 24.16 327.618 27 325.778 30.68C323.938 34.28 323.018 38.6 323.018 43.64C323.018 48.52 323.938 52.84 325.778 56.6C327.618 60.28 330.178 63.12 333.458 65.12C336.818 67.12 340.778 68.12 345.338 68.12ZM415.554 39.44H426.714C430.794 39.44 433.754 38.48 435.594 36.56C437.434 34.64 438.354 32.08 438.354 28.88C438.354 25.6 437.434 23.04 435.594 21.2C433.754 19.28 430.794 18.32 426.714 18.32H415.554V39.44ZM459.234 28.88C459.234 33.52 458.154 37.92 455.994 42.08C453.834 46.16 450.474 49.48 445.914 52.04C441.354 54.52 435.474 55.76 428.274 55.76H415.554V86H395.034V1.76H428.274C435.154 1.76 440.874 2.96 445.434 5.35999C450.074 7.68 453.514 10.92 455.754 15.08C458.074 19.16 459.234 23.76 459.234 28.88ZM504.957 86.84C499.037 86.84 493.437 85.8 488.157 83.72C482.877 81.56 478.237 78.56 474.237 74.72C470.317 70.88 467.237 66.32 464.997 61.04C462.757 55.76 461.637 49.96 461.637 43.64C461.637 37.32 462.757 31.52 464.997 26.24C467.237 20.96 470.317 16.4 474.237 12.56C478.237 8.72 482.877 5.76 488.157 3.67999C493.437 1.6 499.037 0.559999 504.957 0.559999C510.957 0.559999 516.557 1.6 521.757 3.67999C526.957 5.76 531.517 8.72 535.437 12.56C539.357 16.4 542.437 20.96 544.677 26.24C546.917 31.52 548.037 37.32 548.037 43.64C548.037 49.96 546.917 55.76 544.677 61.04C542.437 66.32 539.357 70.88 535.437 74.72C531.517 78.56 526.917 81.56 521.637 83.72C516.437 85.8 510.877 86.84 504.957 86.84ZM504.957 68.12C509.437 68.12 513.317 67.12 516.597 65.12C519.957 63.12 522.557 60.28 524.397 56.6C526.237 52.84 527.157 48.52 527.157 43.64C527.157 38.6 526.237 34.28 524.397 30.68C522.557 27 519.957 24.16 516.597 22.16C513.317 20.16 509.437 19.16 504.957 19.16C500.397 19.16 496.437 20.16 493.077 22.16C489.797 24.16 487.237 27 485.397 30.68C483.557 34.28 482.637 38.6 482.637 43.64C482.637 48.52 483.557 52.84 485.397 56.6C487.237 60.28 489.797 63.12 493.077 65.12C496.437 67.12 500.397 68.12 504.957 68.12ZM554.653 1.76H575.173V70.16H602.053V86H554.653V1.76ZM607.04 86V1.76H627.56V86H607.04ZM668.111 86.84C662.111 86.84 656.631 85.84 651.671 83.84C646.791 81.84 642.871 78.92 639.911 75.08C637.031 71.16 635.471 66.4 635.231 60.8H657.071C657.231 62.32 657.591 63.72 658.151 65C658.711 66.28 659.431 67.32 660.311 68.12C661.271 68.84 662.351 69.4 663.551 69.8C664.751 70.2 666.071 70.4 667.511 70.4C669.511 70.4 671.231 70.08 672.671 69.44C674.191 68.8 675.351 67.88 676.151 66.68C676.951 65.48 677.351 64.08 677.351 62.48C677.351 60.24 676.591 58.44 675.071 57.08C673.551 55.64 671.511 54.44 668.951 53.48C666.471 52.52 663.751 51.6 660.791 50.72C657.831 49.84 654.831 48.8 651.791 47.6C648.831 46.4 646.111 44.92 643.631 43.16C641.151 41.32 639.151 38.96 637.631 36.08C636.191 33.2 635.471 29.64 635.471 25.4C635.471 20.12 636.791 15.64 639.431 11.96C642.151 8.2 645.831 5.36 650.471 3.44C655.111 1.52 660.351 0.559999 666.191 0.559999C672.351 0.559999 677.711 1.56 682.271 3.56C686.911 5.47999 690.591 8.31999 693.311 12.08C696.031 15.76 697.511 20.32 697.751 25.76H675.551C675.391 23.92 674.911 22.36 674.111 21.08C673.311 19.8 672.191 18.8 670.751 18.08C669.311 17.36 667.671 17 665.831 17C664.151 16.92 662.671 17.16 661.391 17.72C660.111 18.28 659.071 19.16 658.271 20.36C657.551 21.48 657.191 22.92 657.191 24.68C657.191 26.84 657.911 28.6 659.351 29.96C660.871 31.24 662.871 32.4 665.351 33.44C667.831 34.4 670.551 35.36 673.511 36.32C676.551 37.2 679.511 38.24 682.391 39.44C685.351 40.64 688.071 42.16 690.551 44C693.031 45.84 695.031 48.12 696.551 50.84C698.071 53.56 698.831 56.92 698.831 60.92C698.831 65.64 697.631 69.96 695.231 73.88C692.831 77.8 689.351 80.96 684.791 83.36C680.231 85.68 674.671 86.84 668.111 86.84Z" fill="#4535D8"/>
</svg>
