<svg width="302" height="302" viewBox="0 0 302 302" fill="none" xmlns="http://www.w3.org/2000/svg">
<g filter="url(#filter0_d)">
<rect x="5" y="2.53711" width="281.397" height="281.397" rx="10" fill="#791FFF"/>
<mask id="mask0" mask-type="alpha" maskUnits="userSpaceOnUse" x="12" y="9" width="268" height="269">
<g clip-path="url(#clip0)">
<path d="M163.817 201.745C162.714 202.574 161.665 203.43 160.507 204.179C157.978 205.784 155.152 206.666 152.219 207.228C149.608 207.709 146.971 207.843 144.307 207.763C140.136 207.602 136.099 206.853 132.358 204.901C130.959 204.179 129.667 203.296 128.564 202.173C128.295 201.878 128.214 201.665 128.348 201.263C130.447 195.406 132.547 189.548 134.646 183.69C136.126 179.517 137.687 175.371 139.086 171.199C139.57 169.728 139.812 168.176 140.109 166.652C140.647 163.763 140.943 160.848 140.889 157.905C140.781 153.545 139.974 149.373 137.902 145.494C136.126 142.151 133.677 139.422 130.394 137.443C129.344 136.828 128.214 136.347 127.057 135.892C117.826 132.281 108.811 128.295 100.199 123.401C94.2787 120.057 88.6274 116.313 83.5142 111.846C79.4776 108.315 75.8445 104.41 73.1534 99.7291C71.3503 96.6264 70.1124 93.3363 69.7088 89.7789C69.3858 86.8099 69.6011 83.9212 70.8929 81.193C71.5118 79.9091 72.8036 79.6951 73.88 80.658C74.6066 81.2999 75.091 82.1023 75.4139 82.985C75.6831 83.7607 75.9522 84.5364 76.1405 85.3121C76.3828 86.275 77.0017 86.9705 77.7553 87.5589C79.3699 88.7893 81.2537 89.458 83.1913 90.0197C86.2861 90.9023 89.4347 91.4372 92.6103 91.8117C96.4046 92.2932 100.092 93.1759 103.805 94.0318C111.044 95.7169 118.122 97.8032 125.011 100.638C129.398 102.431 133.623 104.517 137.498 107.245C140.243 109.171 142.719 111.364 144.71 114.093C144.98 114.467 145.222 114.868 145.518 115.216C145.922 115.697 146.217 115.697 146.621 115.216C147.321 114.333 147.967 113.397 148.693 112.514C150.308 110.535 152.272 108.93 154.345 107.459C160.131 103.367 166.589 100.665 173.236 98.3382C180.26 95.9041 187.472 94.112 194.765 92.6409C197.403 92.1059 200.067 91.8118 202.731 91.3571C205.934 90.8221 209.109 90.2069 212.096 88.8695C213.173 88.3881 214.195 87.8263 214.976 86.9436C215.433 86.4354 215.756 85.8738 215.918 85.2051C216.241 83.7607 216.725 82.3431 217.694 81.1394C218.259 80.444 218.959 80.016 219.9 80.123C220.358 80.1765 220.681 80.3369 220.896 80.7649C221.65 82.129 222.08 83.6002 222.269 85.1248C222.914 89.9929 221.704 94.4598 219.443 98.7394C217.129 103.153 213.899 106.897 210.293 110.268C205.099 115.109 199.26 119.121 193.124 122.679C184.324 127.787 175.093 131.96 165.62 135.624C163.171 136.587 160.83 137.711 158.839 139.449C155.771 142.151 153.726 145.494 152.461 149.373C151.277 153.011 150.981 156.755 151.142 160.553C151.304 163.924 151.842 167.24 152.676 170.504C153.08 172.108 153.753 173.659 154.291 175.211C157.386 183.904 160.507 192.57 163.602 201.263C163.683 201.37 163.737 201.504 163.817 201.745Z" fill="black"/>
<path d="M145.895 210.437C145.33 210.437 144.765 210.437 144.2 210.41C139.113 210.223 134.835 209.18 131.094 207.254C129.318 206.345 127.865 205.274 126.627 204.044C125.604 203.028 125.308 201.717 125.792 200.353C127.542 195.512 129.264 190.67 131.013 185.802L133.381 179.222C134.458 176.28 135.507 173.338 136.53 170.369C136.88 169.299 137.095 168.122 137.337 166.892L137.472 166.169C138.01 163.227 138.252 160.552 138.198 157.985C138.091 153.625 137.23 149.961 135.534 146.751C133.946 143.755 131.767 141.401 129.022 139.77C128.134 139.234 127.084 138.807 126.088 138.432C115.297 134.206 106.632 130.194 98.8811 125.781C92.1263 121.956 86.5288 118.05 81.7655 113.905C76.9753 109.732 73.3961 105.559 70.8396 101.119C68.7136 97.428 67.4757 93.8437 67.072 90.1258C66.6414 86.3276 67.1258 83.0377 68.4983 80.0954C69.1442 78.7313 70.3013 77.7952 71.6738 77.5278C73.0732 77.2335 74.5533 77.6883 75.7105 78.7047C76.7062 79.5873 77.4597 80.7374 77.971 82.1283C78.294 82.9842 78.5631 83.8402 78.7784 84.7229C78.8053 84.8299 78.8591 85.0705 79.3974 85.4717C80.716 86.4614 82.3845 87.0231 83.9453 87.4778C86.475 88.2 89.2469 88.735 92.9606 89.1897C96.7012 89.6712 100.361 90.5003 103.887 91.3295L104.425 91.4632C112.471 93.3355 119.549 95.5289 126.034 98.2037C131.228 100.317 135.373 102.51 139.033 105.078C141.912 107.084 144.2 109.17 146.057 111.47C146.218 111.257 146.379 111.043 146.568 110.829C148.129 108.93 150.093 107.164 152.757 105.265C159.324 100.611 166.671 97.7756 172.322 95.7963C178.834 93.5495 185.993 91.6505 194.201 89.9921C195.896 89.6444 197.618 89.4036 199.314 89.1362C200.283 89.0024 201.251 88.842 202.22 88.6815C204.965 88.2268 208.114 87.6384 210.913 86.3812C211.935 85.9265 212.5 85.552 212.931 85.0972C213.092 84.91 213.173 84.7764 213.227 84.5624C213.55 83.1983 214.115 81.1921 215.514 79.4267C216.699 77.9556 218.313 77.2336 220.089 77.3941C221.435 77.5278 222.538 78.2232 223.184 79.4001C224.045 80.9782 224.61 82.7168 224.879 84.6961C225.525 89.6979 224.53 94.673 221.785 99.8888C219.551 104.142 216.456 108.047 212.097 112.139C207.306 116.633 201.52 120.805 194.443 124.925C186.316 129.632 177.193 133.939 166.563 138.058C164.625 138.807 162.419 139.796 160.615 141.401C158.005 143.728 156.175 146.59 155.018 150.147C154.049 153.143 153.672 156.514 153.834 160.392C153.968 163.414 154.453 166.571 155.287 169.807C155.556 170.824 155.933 171.84 156.337 172.91L156.848 174.274L166.993 202.653L164.437 204.579C163.629 205.194 162.795 205.836 161.934 206.371C159.351 208.003 156.417 209.073 152.677 209.795C150.524 210.25 148.29 210.437 145.895 210.437ZM131.282 200.995C131.955 201.53 132.709 202.038 133.597 202.493C136.611 204.044 140.136 204.9 144.388 205.061C147.025 205.168 149.42 205.007 151.681 204.579C154.722 204.017 157.063 203.162 159.028 201.904C159.566 201.557 160.077 201.182 160.589 200.781L151.277 174.809C150.847 173.632 150.389 172.428 150.039 171.145C149.124 167.56 148.586 164.03 148.425 160.659C148.209 156.112 148.694 152.154 149.851 148.543C151.277 144.103 153.672 140.385 156.983 137.442C159.458 135.249 162.338 133.992 164.571 133.109C174.932 129.097 183.813 124.925 191.671 120.351C198.399 116.446 203.835 112.514 208.356 108.287C212.285 104.623 215.03 101.173 216.967 97.4548C219.174 93.2554 220.009 89.3235 219.497 85.4184C219.417 84.7764 219.282 84.1611 219.12 83.5994C218.878 84.1878 218.636 84.8834 218.448 85.7393C218.205 86.836 217.667 87.8524 216.887 88.7083C215.73 89.9922 214.33 90.7144 213.119 91.2493C209.729 92.7739 206.149 93.4425 203.081 93.9507C202.086 94.1112 201.063 94.2718 200.067 94.4055C198.453 94.6463 196.811 94.887 195.223 95.2079C187.258 96.8128 180.341 98.6317 174.071 100.798C168.743 102.644 161.853 105.319 155.852 109.571C153.592 111.176 151.977 112.621 150.739 114.145C150.362 114.6 150.012 115.082 149.636 115.563C149.34 115.964 149.017 116.392 148.694 116.793C147.806 117.943 146.756 118.184 146.057 118.184C145.249 118.211 144.307 117.97 143.392 116.847C143.15 116.553 142.962 116.258 142.746 115.964L142.504 115.616C140.889 113.396 138.737 111.363 135.911 109.384C132.574 107.057 128.753 105.051 123.936 103.072C117.719 100.531 110.91 98.4177 103.16 96.5989L102.622 96.465C99.0694 95.6358 95.7056 94.8603 92.234 94.4323C88.2511 93.9241 85.2102 93.3356 82.4114 92.5332C80.42 91.9715 78.1325 91.169 76.0872 89.6444C74.7148 88.6012 73.8536 87.3975 73.4769 85.9264C73.3154 85.231 73.0732 84.5356 72.831 83.8669C72.8041 83.7867 72.7772 83.7064 72.7503 83.6261C72.212 85.3112 72.0775 87.1837 72.3197 89.4305C72.6426 92.3995 73.6652 95.3149 75.4145 98.3642C77.7019 102.323 80.8237 105.961 85.2102 109.785C89.7044 113.691 95.0059 117.382 101.465 121.046C109 125.326 117.45 129.231 127.999 133.377C129.156 133.832 130.475 134.366 131.713 135.115C135.292 137.255 138.171 140.331 140.217 144.21C142.316 148.168 143.392 152.608 143.5 157.824C143.554 160.766 143.312 163.816 142.693 167.106L142.558 167.801C142.316 169.192 142.047 170.609 141.562 172.027C140.54 175.023 139.463 178.019 138.387 180.988L136.019 187.567C134.485 192.061 132.897 196.528 131.282 200.995Z" fill="black"/>
</g>
</mask>
<g mask="url(#mask0)">
<rect x="5" y="2.53711" width="281.397" height="281.397" fill="white"/>
</g>
</g>
<defs>
<filter id="filter0_d" x="0" y="0.537109" width="301.397" height="301.397" filterUnits="userSpaceOnUse" color-interpolation-filters="sRGB">
<feFlood flood-opacity="0" result="BackgroundImageFix"/>
<feColorMatrix in="SourceAlpha" type="matrix" values="0 0 0 0 0 0 0 0 0 0 0 0 0 0 0 0 0 0 127 0"/>
<feOffset dx="5" dy="8"/>
<feGaussianBlur stdDeviation="5"/>
<feColorMatrix type="matrix" values="0 0 0 0 0.825 0 0 0 0 0.825 0 0 0 0 0.825 0 0 0 0.25 0"/>
<feBlend mode="normal" in2="BackgroundImageFix" result="effect1_dropShadow"/>
<feBlend mode="normal" in="SourceGraphic" in2="effect1_dropShadow" result="shape"/>
</filter>
<clipPath id="clip0">
<rect width="267.29" height="267.29" fill="white" transform="translate(12.4248 9.96191)"/>
</clipPath>
</defs>
</svg>
