<svg width="360" height="360" viewBox="0 0 360 360" fill="none" xmlns="http://www.w3.org/2000/svg">
<rect width="360" height="360" fill="#791FFF"/>
<path d="M214.42 291.273C212.297 292.868 210.278 294.515 208.052 295.955C203.185 299.043 197.749 300.741 192.106 301.822C187.084 302.748 182.01 303.005 176.884 302.851C168.859 302.542 161.093 301.101 153.896 297.345C151.204 295.956 148.719 294.258 146.597 292.096C146.079 291.53 145.924 291.119 146.182 290.347C150.221 279.077 154.259 267.807 158.298 256.538C161.145 248.51 164.148 240.534 166.84 232.506C167.772 229.676 168.238 226.692 168.808 223.759C169.843 218.201 170.412 212.592 170.309 206.931C170.102 198.543 168.549 190.516 164.562 183.054C161.145 176.622 156.434 171.373 150.117 167.565C148.098 166.381 145.924 165.455 143.697 164.581C125.939 157.633 108.594 149.966 92.0269 140.549C80.6367 134.116 69.7642 126.912 59.9271 118.318C52.1611 111.526 45.1716 104.013 39.9942 95.0077C36.5253 89.0384 34.1438 82.7088 33.3671 75.8647C32.7459 70.1527 33.1601 64.5954 35.6452 59.3465C36.836 56.8765 39.3212 56.4647 41.3921 58.3173C42.79 59.5523 43.7219 61.096 44.3432 62.7942C44.8609 64.2865 45.3787 65.7788 45.7411 67.2711C46.2071 69.1237 47.3979 70.4617 48.8476 71.5938C51.954 73.961 55.5782 75.2473 59.3059 76.328C65.2599 78.0261 71.3174 79.0552 77.4268 79.7756C84.7267 80.7019 91.8198 82.4001 98.9645 84.0468C112.892 87.2888 126.508 91.3024 139.763 96.7572C148.202 100.205 156.33 104.219 163.786 109.468C169.066 113.173 173.829 117.392 177.661 122.641C178.179 123.361 178.644 124.133 179.214 124.803C179.991 125.729 180.56 125.729 181.337 124.803C182.683 123.104 183.926 121.303 185.323 119.605C188.43 115.797 192.209 112.71 196.196 109.879C207.327 102.006 219.753 96.8085 232.541 92.3318C246.054 87.6489 259.93 84.2011 273.96 81.3709C279.034 80.3417 284.16 79.7757 289.285 78.9009C295.446 77.8717 301.556 76.6882 307.302 74.1153C309.373 73.189 311.341 72.1082 312.842 70.4101C313.723 69.4323 314.344 68.3519 314.654 67.0654C315.276 64.2866 316.208 61.5592 318.072 59.2435C319.159 57.9055 320.505 57.0822 322.317 57.288C323.197 57.391 323.818 57.6996 324.233 58.523C325.682 61.1474 326.51 63.9777 326.873 66.9109C328.116 76.2764 325.786 84.8702 321.437 93.1036C316.984 101.594 310.771 108.799 303.834 115.282C293.841 124.597 282.606 132.316 270.802 139.16C253.872 148.988 236.114 157.016 217.889 164.066C213.178 165.918 208.673 168.08 204.842 171.424C198.94 176.622 195.005 183.054 192.572 190.516C190.294 197.514 189.724 204.718 190.035 212.026C190.345 218.51 191.381 224.89 192.986 231.169C193.762 234.256 195.057 237.24 196.093 240.225C202.046 256.95 208.052 273.622 214.006 290.347C214.161 290.553 214.265 290.81 214.42 291.273Z" fill="white"/>
<path d="M179.939 308C178.851 308 177.764 308 176.677 307.948C166.892 307.588 158.66 305.581 151.463 301.876C148.046 300.127 145.25 298.068 142.869 295.701C140.901 293.746 140.332 291.224 141.263 288.6C144.629 279.286 147.942 269.971 151.308 260.606L155.864 247.947C157.935 242.287 159.954 236.626 161.921 230.914C162.594 228.856 163.009 226.591 163.475 224.224L163.733 222.835C164.769 217.174 165.235 212.028 165.131 207.089C164.924 198.701 163.267 191.651 160.006 185.476C156.951 179.713 152.757 175.184 147.476 172.045C145.768 171.015 143.749 170.192 141.833 169.472C121.072 161.341 104.401 153.623 89.4898 145.132C76.4944 137.773 65.7255 130.26 56.5615 122.284C47.3458 114.256 40.4598 106.229 35.5414 97.6864C31.4512 90.585 29.0697 83.6894 28.293 76.5366C27.4647 69.2294 28.3966 62.8999 31.037 57.2394C32.2796 54.615 34.5059 52.8141 37.1463 52.2996C39.8385 51.7335 42.6861 52.6083 44.9124 54.5637C46.828 56.2619 48.2778 58.4745 49.2614 61.1504C49.8827 62.7971 50.4004 64.4439 50.8146 66.142C50.8664 66.3479 50.97 66.8109 52.0055 67.5827C54.5424 69.4867 57.7524 70.5674 60.7552 71.4422C65.622 72.8316 70.9548 73.8609 78.0995 74.7356C85.2958 75.6619 92.3374 77.2571 99.1198 78.8523L100.155 79.1096C115.635 82.7117 129.252 86.9314 141.729 92.0774C151.722 96.1427 159.695 100.362 166.736 105.302C172.276 109.162 176.677 113.176 180.249 117.601C180.56 117.19 180.87 116.778 181.233 116.366C184.236 112.713 188.015 109.316 193.141 105.662C205.774 96.7087 219.908 91.2539 230.781 87.4459C243.31 83.1233 257.082 79.4698 272.873 76.2794C276.134 75.6104 279.448 75.1472 282.71 74.6326C284.574 74.3753 286.437 74.0667 288.301 73.7579C293.582 72.8831 299.64 71.7511 305.024 69.3325C306.991 68.4577 308.079 67.7371 308.907 66.8623C309.218 66.502 309.373 66.245 309.477 65.8333C310.098 63.2089 311.185 59.3492 313.877 55.9529C316.156 53.1227 319.262 51.7336 322.679 52.0423C325.268 52.2996 327.39 53.6375 328.633 55.9018C330.29 58.9378 331.377 62.2826 331.895 66.0905C333.137 75.7134 331.222 85.2848 325.941 95.3193C321.644 103.501 315.69 111.014 307.302 118.888C298.086 127.533 286.955 135.56 273.338 143.485C257.703 152.542 240.151 160.827 219.701 168.752C215.973 170.192 211.728 172.096 208.259 175.184C203.237 179.661 199.716 185.167 197.49 192.011C195.626 197.774 194.901 204.258 195.212 211.72C195.471 217.535 196.403 223.607 198.008 229.833C198.526 231.789 199.25 233.744 200.027 235.803L201.01 238.427L220.529 293.025L215.611 296.73C214.057 297.914 212.453 299.149 210.796 300.178C205.825 303.317 200.182 305.376 192.986 306.765C188.844 307.64 184.546 308 179.939 308ZM151.825 289.835C153.12 290.864 154.57 291.841 156.278 292.717C162.077 295.701 168.859 297.348 177.039 297.657C182.113 297.863 186.721 297.554 191.07 296.73C196.92 295.65 201.425 294.003 205.204 291.584C206.24 290.915 207.223 290.195 208.207 289.423L190.293 239.456C189.465 237.192 188.585 234.876 187.912 232.406C186.152 225.511 185.116 218.718 184.805 212.234C184.391 203.486 185.323 195.871 187.549 188.923C190.293 180.381 194.901 173.228 201.27 167.568C206.033 163.348 211.573 160.93 215.87 159.232C235.803 151.513 252.888 143.485 268.006 134.686C280.949 127.172 291.408 119.608 300.105 111.477C307.664 104.428 312.945 97.7893 316.673 90.6367C320.919 82.5576 322.524 74.9931 321.54 67.4801C321.385 66.245 321.126 65.0612 320.815 63.9805C320.349 65.1126 319.883 66.4509 319.521 68.0975C319.055 70.2074 318.019 72.1627 316.518 73.8094C314.292 76.2794 311.599 77.6689 309.27 78.6981C302.746 81.6313 295.86 82.9175 289.958 83.8952C288.042 84.204 286.075 84.5129 284.159 84.7702C281.053 85.2334 277.895 85.6965 274.84 86.314C259.515 89.4015 246.209 92.9009 234.146 97.0692C223.895 100.62 210.64 105.765 199.095 113.947C194.746 117.035 191.64 119.814 189.258 122.747C188.533 123.622 187.86 124.548 187.135 125.474C186.565 126.246 185.944 127.07 185.323 127.841C183.615 130.054 181.595 130.518 180.249 130.518C178.696 130.569 176.884 130.106 175.124 127.945C174.658 127.378 174.295 126.812 173.881 126.246L173.415 125.577C170.309 121.306 166.167 117.395 160.731 113.587C154.31 109.11 146.959 105.251 137.691 101.443C125.731 96.5545 112.633 92.4891 97.7218 88.9899L96.6861 88.7324C89.8521 87.1371 83.3804 85.6451 76.7015 84.8217C69.039 83.844 63.1886 82.7118 57.8041 81.168C53.9729 80.0874 49.572 78.5435 45.6372 75.6104C42.9967 73.6035 41.3401 71.2877 40.6152 68.4575C40.3046 67.1195 39.8386 65.7818 39.3726 64.4953C39.3209 64.341 39.2691 64.1864 39.2173 64.0321C38.1818 67.274 37.9229 70.8764 38.3889 75.1989C39.0102 80.9109 40.9776 86.5197 44.3429 92.3862C48.7437 100.002 54.7495 107.001 63.1886 114.359C71.835 121.872 82.0344 128.974 94.4599 136.023C108.957 144.257 125.214 151.77 145.509 159.746C147.735 160.621 150.272 161.65 152.654 163.091C159.54 167.208 165.079 173.125 169.014 180.587C173.053 188.203 175.124 196.745 175.331 206.78C175.434 212.44 174.968 218.307 173.778 224.636L173.518 225.974C173.053 228.65 172.535 231.377 171.603 234.105C169.636 239.868 167.565 245.631 165.494 251.343L160.938 264.002C157.987 272.647 154.932 281.241 151.825 289.835Z" fill="white"/>
</svg>
