<svg width="360" height="360" viewBox="0 0 360 360" fill="none" xmlns="http://www.w3.org/2000/svg">
<path d="M200.431 258.559C199.166 259.51 197.963 260.491 196.636 261.349C193.737 263.189 190.498 264.201 187.135 264.845C184.143 265.397 181.12 265.55 178.066 265.458C173.285 265.274 168.658 264.415 164.37 262.177C162.766 261.35 161.286 260.338 160.021 259.05C159.712 258.713 159.62 258.468 159.774 258.008C162.18 251.293 164.586 244.579 166.992 237.864C168.689 233.082 170.478 228.329 172.082 223.546C172.637 221.86 172.915 220.082 173.254 218.334C173.871 215.023 174.211 211.681 174.149 208.309C174.025 203.311 173.1 198.528 170.725 194.083C168.689 190.25 165.882 187.123 162.119 184.854C160.916 184.149 159.62 183.597 158.293 183.076C147.713 178.937 137.379 174.368 127.508 168.758C120.722 164.925 114.244 160.633 108.383 155.513C103.756 151.466 99.5918 146.99 96.5071 141.624C94.4403 138.068 93.0214 134.297 92.5587 130.219C92.1885 126.816 92.4353 123.505 93.916 120.377C94.6254 118.906 96.1061 118.66 97.34 119.764C98.1728 120.5 98.7281 121.42 99.0982 122.431C99.4067 123.321 99.7152 124.21 99.9311 125.099C100.209 126.203 100.918 127 101.782 127.674C103.633 129.085 105.792 129.851 108.013 130.495C111.56 131.507 115.17 132.12 118.81 132.549C123.159 133.101 127.385 134.113 131.642 135.094C139.94 137.025 148.052 139.417 155.949 142.667C160.977 144.721 165.82 147.112 170.262 150.24C173.409 152.447 176.246 154.961 178.529 158.088C178.838 158.518 179.115 158.977 179.454 159.376C179.917 159.928 180.257 159.928 180.719 159.376C181.521 158.364 182.262 157.291 183.094 156.279C184.945 154.011 187.197 152.171 189.572 150.485C196.204 145.794 203.608 142.697 211.227 140.03C219.278 137.24 227.545 135.186 235.905 133.499C238.927 132.886 241.981 132.549 245.035 132.028C248.706 131.415 252.346 130.709 255.77 129.177C257.004 128.625 258.176 127.981 259.071 126.969C259.595 126.386 259.965 125.743 260.15 124.976C260.52 123.321 261.076 121.696 262.186 120.316C262.834 119.519 263.636 119.028 264.716 119.151C265.24 119.212 265.61 119.396 265.857 119.887C266.721 121.45 267.214 123.137 267.43 124.884C268.17 130.464 266.782 135.584 264.191 140.49C261.538 145.549 257.837 149.841 253.703 153.704C247.75 159.253 241.056 163.852 234.023 167.93C223.936 173.786 213.355 178.569 202.497 182.769C199.69 183.873 197.006 185.161 194.724 187.154C191.207 190.25 188.863 194.083 187.413 198.528C186.056 202.698 185.717 206.99 185.902 211.344C186.087 215.207 186.704 219.009 187.66 222.749C188.123 224.589 188.894 226.367 189.511 228.145C193.058 238.11 196.636 248.043 200.184 258.008C200.276 258.13 200.338 258.284 200.431 258.559Z" fill="white"/>
<path d="M179.886 268.525C179.238 268.525 178.591 268.525 177.943 268.495C172.113 268.28 167.208 267.084 162.92 264.877C160.884 263.834 159.219 262.608 157.8 261.198C156.628 260.033 156.288 258.53 156.843 256.967C158.849 251.417 160.823 245.868 162.828 240.288L165.542 232.746C166.776 229.373 167.979 226 169.152 222.597C169.552 221.371 169.799 220.022 170.077 218.612L170.231 217.784C170.848 214.411 171.126 211.345 171.064 208.402C170.941 203.405 169.953 199.204 168.01 195.525C166.19 192.091 163.692 189.393 160.545 187.523C159.527 186.91 158.324 186.419 157.183 185.99C144.813 181.146 134.881 176.547 125.997 171.488C118.254 167.104 111.838 162.628 106.378 157.875C100.887 153.092 96.7844 148.31 93.854 143.22C91.4171 138.989 89.9981 134.881 89.5354 130.619C89.0419 126.265 89.5971 122.494 91.1703 119.122C91.9107 117.558 93.237 116.485 94.8102 116.178C96.4143 115.841 98.1109 116.362 99.4373 117.527C100.579 118.539 101.442 119.858 102.028 121.452C102.399 122.433 102.707 123.414 102.954 124.426C102.985 124.549 103.046 124.824 103.663 125.284C105.175 126.419 107.087 127.062 108.876 127.584C111.776 128.411 114.953 129.025 119.21 129.546C123.498 130.098 127.693 131.048 131.734 131.999L132.351 132.152C141.574 134.298 149.687 136.812 157.121 139.878C163.075 142.3 167.825 144.814 172.02 147.758C175.321 150.057 177.943 152.449 180.071 155.085C180.256 154.84 180.441 154.595 180.657 154.35C182.446 152.173 184.698 150.149 187.752 147.972C195.279 142.638 203.7 139.388 210.178 137.119C217.643 134.543 225.848 132.367 235.256 130.466C237.2 130.067 239.174 129.791 241.117 129.485C242.228 129.331 243.338 129.147 244.449 128.963C247.595 128.442 251.204 127.768 254.412 126.327C255.585 125.806 256.232 125.376 256.726 124.855C256.911 124.64 257.004 124.487 257.065 124.242C257.435 122.678 258.083 120.379 259.687 118.355C261.045 116.669 262.895 115.841 264.931 116.025C266.474 116.179 267.738 116.976 268.479 118.325C269.466 120.134 270.114 122.126 270.422 124.395C271.162 130.129 270.021 135.831 266.875 141.81C264.314 146.685 260.767 151.161 255.77 155.852C250.279 161.003 243.647 165.785 235.534 170.507C226.218 175.903 215.761 180.839 203.577 185.561C201.356 186.419 198.826 187.554 196.759 189.393C193.767 192.061 191.67 195.341 190.343 199.419C189.233 202.853 188.801 206.716 188.986 211.161C189.14 214.626 189.695 218.244 190.652 221.953C190.96 223.119 191.392 224.284 191.855 225.51L192.441 227.074L204.07 259.603L201.14 261.811C200.214 262.516 199.258 263.252 198.271 263.865C195.31 265.735 191.947 266.962 187.66 267.79C185.192 268.311 182.632 268.525 179.886 268.525ZM163.136 257.702C163.907 258.316 164.771 258.898 165.789 259.419C169.244 261.198 173.285 262.179 178.159 262.363C181.182 262.485 183.927 262.301 186.518 261.811C190.004 261.167 192.688 260.186 194.939 258.745C195.556 258.346 196.143 257.917 196.729 257.457L186.055 227.687C185.562 226.338 185.038 224.958 184.637 223.486C183.588 219.378 182.971 215.331 182.786 211.468C182.539 206.256 183.094 201.718 184.421 197.579C186.055 192.49 188.801 188.228 192.595 184.855C195.433 182.341 198.734 180.901 201.294 179.889C213.17 175.29 223.35 170.507 232.357 165.264C240.069 160.788 246.3 156.281 251.482 151.437C255.985 147.237 259.132 143.281 261.353 139.02C263.882 134.206 264.839 129.699 264.253 125.223C264.16 124.487 264.006 123.782 263.821 123.138C263.543 123.813 263.266 124.61 263.049 125.591C262.772 126.848 262.155 128.013 261.26 128.994C259.934 130.466 258.33 131.294 256.942 131.907C253.055 133.654 248.953 134.421 245.436 135.003C244.295 135.187 243.122 135.371 241.981 135.525C240.13 135.801 238.249 136.076 236.429 136.444C227.298 138.284 219.37 140.369 212.183 142.852C206.075 144.968 198.178 148.034 191.3 152.908C188.708 154.748 186.858 156.404 185.439 158.151C185.007 158.672 184.606 159.224 184.174 159.776C183.834 160.236 183.464 160.727 183.094 161.186C182.076 162.505 180.873 162.781 180.071 162.781C179.146 162.812 178.066 162.536 177.017 161.248C176.74 160.911 176.524 160.573 176.277 160.236L175.999 159.837C174.149 157.293 171.681 154.963 168.442 152.694C164.617 150.026 160.237 147.727 154.715 145.458C147.589 142.546 139.785 140.124 130.901 138.039L130.284 137.885C126.212 136.935 122.357 136.046 118.377 135.555C113.812 134.973 110.326 134.298 107.118 133.378C104.836 132.735 102.213 131.815 99.8691 130.067C98.2959 128.871 97.3089 127.492 96.877 125.805C96.692 125.008 96.4143 124.211 96.1367 123.445C96.1058 123.353 96.075 123.261 96.0442 123.169C95.4272 125.1 95.273 127.247 95.5506 129.822C95.9207 133.225 97.0929 136.567 99.098 140.062C101.72 144.6 105.298 148.77 110.326 153.154C115.478 157.63 121.555 161.861 128.958 166.061C137.595 170.967 147.281 175.443 159.373 180.195C160.699 180.717 162.211 181.33 163.63 182.188C167.732 184.641 171.033 188.167 173.377 192.613C175.783 197.15 177.017 202.239 177.141 208.218C177.202 211.591 176.925 215.086 176.215 218.857L176.061 219.654C175.783 221.248 175.475 222.873 174.92 224.498C173.748 227.932 172.514 231.366 171.28 234.769L168.565 242.311C166.807 247.462 164.987 252.582 163.136 257.702Z" fill="white"/>
</svg>
