<svg width="300" height="277" viewBox="0 0 300 277" fill="none" xmlns="http://www.w3.org/2000/svg">
<path d="M46.2646 274.316V85.502C46.2646 72.901 56.5407 62.6858 69.2169 62.6858C81.8932 62.6858 92.1693 72.901 92.1693 85.502V218.743C92.1693 250.54 118.061 276.316 150 276.316C181.939 276.316 207.831 250.54 207.831 218.743V126.407C207.831 113.806 218.107 103.591 230.783 103.591C243.459 103.591 253.735 113.806 253.735 126.407V274.316C253.735 275.42 254.631 276.316 255.735 276.316H298C299.105 276.316 300 275.42 300 274.316V77.0108C300 76.0927 299.375 75.2925 298.484 75.0703L164.05 41.5253C162.788 41.2103 161.566 42.165 161.566 43.4658V218.743C161.566 225.103 156.388 230.258 150 230.258C143.612 230.258 138.434 225.103 138.434 218.743V36.1056C138.434 35.1875 137.809 34.3873 136.918 34.1651L2.48421 0.620066C1.22213 0.305142 0 1.25979 0 2.56057V274.316C0 275.42 0.895431 276.316 2 276.316H44.2646C45.3691 276.316 46.2646 275.42 46.2646 274.316Z" fill="#4535D8"/>
</svg>
