<svg width="198" height="193" viewBox="0 0 198 193" fill="none" xmlns="http://www.w3.org/2000/svg">
<path fill-rule="evenodd" clip-rule="evenodd" d="M138.196 119.197C147.598 119.114 156.826 114.667 162.673 106.406C172.335 92.7525 169.1 73.8519 155.446 64.1898C141.793 54.5277 122.893 57.763 113.231 71.416C111.546 73.797 110.253 76.3377 109.339 78.9611C106.328 72.5048 101.647 66.7205 95.4159 62.3107C76.3017 48.7838 49.8408 53.3132 36.3139 72.4274C22.787 91.5417 27.3164 118.003 46.4306 131.529C62.0144 142.558 82.4815 141.584 96.8412 130.49C94.7902 139.73 98.2913 149.717 106.502 155.528C117.424 163.257 132.545 160.669 140.274 149.747C147.038 140.19 145.902 127.419 138.196 119.197Z" fill="url(#paint0_radial_2529_6465)"/>
<circle cx="70.9298" cy="96.9226" r="36.3422" transform="rotate(35.2866 70.9298 96.9226)" fill="url(#paint1_radial_2529_6465)"/>
<circle cx="137.957" cy="88.9112" r="24.2282" transform="rotate(35.2866 137.957 88.9112)" fill="url(#paint2_radial_2529_6465)"/>
<circle cx="120.39" cy="135.896" r="18.1711" transform="rotate(35.2866 120.39 135.896)" fill="url(#paint3_radial_2529_6465)"/>
<defs>
<radialGradient id="paint0_radial_2529_6465" cx="0" cy="0" r="1" gradientUnits="userSpaceOnUse" gradientTransform="translate(162.416 119.522) rotate(141.982) scale(128.125 127.407)">
<stop offset="0.125647" stop-color="#EEDAF7"/>
<stop offset="1" stop-color="#F9F5FC"/>
</radialGradient>
<radialGradient id="paint1_radial_2529_6465" cx="0" cy="0" r="1" gradientUnits="userSpaceOnUse" gradientTransform="translate(71.0631 96.956) rotate(50.8643) scale(40.0948)">
<stop offset="0.125683" stop-color="white"/>
<stop offset="1" stop-color="#E5CCF8"/>
</radialGradient>
<radialGradient id="paint2_radial_2529_6465" cx="0" cy="0" r="1" gradientUnits="userSpaceOnUse" gradientTransform="translate(138.149 88.8363) rotate(51.1668) scale(26.7408)">
<stop stop-color="white"/>
<stop offset="1" stop-color="#E5CCF8"/>
</radialGradient>
<radialGradient id="paint3_radial_2529_6465" cx="0" cy="0" r="1" gradientUnits="userSpaceOnUse" gradientTransform="translate(120.493 135.74) rotate(51.2534) scale(20.1584)">
<stop stop-color="white"/>
<stop offset="1" stop-color="#E5CCF8"/>
</radialGradient>
</defs>
</svg>
