<svg width="20" height="20" viewBox="0 0 20 20" fill="none" xmlns="http://www.w3.org/2000/svg">
<path d="M18.3333 0.833008H1.66667C1.22464 0.833008 0.800716 1.00861 0.488155 1.32117C0.175595 1.63373 0 2.05765 0 2.49968V13.3331C0 13.7751 0.175595 14.199 0.488155 14.5116C0.800716 14.8241 1.22464 14.9997 1.66667 14.9997H4.16667V19.9997L10.8333 14.9997H18.3333C18.7754 14.9997 19.1993 14.8241 19.5118 14.5116C19.8244 14.199 20 13.7751 20 13.3331V2.49968C20 2.05765 19.8244 1.63373 19.5118 1.32117C19.1993 1.00861 18.7754 0.833008 18.3333 0.833008Z" fill="#4535D8"/>
</svg>
