<svg width="20" height="18" viewBox="0 0 20 18" fill="none" xmlns="http://www.w3.org/2000/svg">
<path d="M20 2.83365C19.25 3.16699 18.5 3.41699 17.6667 3.50032C18.5 3.00032 19.1667 2.16699 19.5 1.25032C18.6667 1.75032 17.8333 2.08365 16.9167 2.25032C16.1667 1.41699 15.0833 0.916992 13.9167 0.916992C11.6667 0.916992 9.83333 2.75032 9.83333 5.00032C9.83333 5.33366 9.83333 5.66699 9.91667 5.91699C6.41667 5.75032 3.41667 4.08366 1.41667 1.58365C1 2.25032 0.833333 2.91699 0.833333 3.66699C0.833333 5.08366 1.58333 6.33366 2.66667 7.08366C2 7.08366 1.33333 6.91699 0.833333 6.58366C0.833333 6.58366 0.833333 6.58366 0.833333 6.66699C0.833333 8.66699 2.25 10.3336 4.08333 10.6669C3.75 10.7503 3.41667 10.8336 3 10.8336C2.75 10.8336 2.5 10.8336 2.25 10.7503C2.75 12.4169 4.25 13.5836 6.08333 13.5836C4.66667 14.6669 2.91667 15.3336 1 15.3336C0.666667 15.3336 0.333333 15.3336 0 15.2503C1.83333 16.417 4 17.0836 6.25 17.0836C13.8333 17.0836 17.9167 10.8336 17.9167 5.41699C17.9167 5.25032 17.9167 5.08366 17.9167 4.91699C18.75 4.33366 19.4167 3.58366 20 2.83365Z" fill="#4535D8"/>
</svg>
