<svg width="1602" height="1000" viewBox="0 0 1602 1000" fill="none" xmlns="http://www.w3.org/2000/svg">
<rect x="2" y="2" width="1598" height="996" rx="23" fill="#F8F9FC"/>
<line x1="855.961" y1="239.271" x2="672.961" y2="397.271" stroke="#C4BFF2" stroke-width="6"/>
<line x1="940.877" y1="234.659" x2="1167.88" y2="416.659" stroke="#C4BFF2" stroke-width="6"/>
<path d="M96.328 101.52C101.064 101.52 105.203 102.437 108.744 104.272C112.328 106.064 115.08 108.667 117 112.08C118.963 115.451 119.944 119.397 119.944 123.92C119.944 128.443 118.963 132.368 117 135.696C115.08 139.024 112.328 141.584 108.744 143.376C105.203 145.125 101.064 146 96.328 146H81.8V101.52H96.328ZM96.328 140.048C101.533 140.048 105.523 138.64 108.296 135.824C111.069 133.008 112.456 129.04 112.456 123.92C112.456 118.757 111.069 114.725 108.296 111.824C105.523 108.923 101.533 107.472 96.328 107.472H89.096V140.048H96.328ZM130.887 106.064C129.564 106.064 128.455 105.616 127.559 104.72C126.663 103.824 126.215 102.715 126.215 101.392C126.215 100.069 126.663 98.96 127.559 98.064C128.455 97.168 129.564 96.72 130.887 96.72C132.167 96.72 133.255 97.168 134.151 98.064C135.047 98.96 135.495 100.069 135.495 101.392C135.495 102.715 135.047 103.824 134.151 104.72C133.255 105.616 132.167 106.064 130.887 106.064ZM134.471 110.736V146H127.175V110.736H134.471ZM141.618 128.336C141.618 124.709 142.343 121.531 143.794 118.8C145.287 116.027 147.335 113.893 149.938 112.4C152.541 110.907 155.527 110.16 158.898 110.16C163.165 110.16 166.685 111.184 169.458 113.232C172.274 115.237 174.173 118.117 175.154 121.872H167.282C166.642 120.123 165.618 118.757 164.21 117.776C162.802 116.795 161.031 116.304 158.898 116.304C155.911 116.304 153.522 117.371 151.73 119.504C149.981 121.595 149.106 124.539 149.106 128.336C149.106 132.133 149.981 135.099 151.73 137.232C153.522 139.365 155.911 140.432 158.898 140.432C163.122 140.432 165.917 138.576 167.282 134.864H175.154C174.13 138.448 172.21 141.307 169.394 143.44C166.578 145.531 163.079 146.576 158.898 146.576C155.527 146.576 152.541 145.829 149.938 144.336C147.335 142.8 145.287 140.667 143.794 137.936C142.343 135.163 141.618 131.963 141.618 128.336ZM190.937 116.688V136.208C190.937 137.531 191.236 138.491 191.833 139.088C192.473 139.643 193.54 139.92 195.033 139.92H199.513V146H193.753C190.468 146 187.95 145.232 186.201 143.696C184.452 142.16 183.577 139.664 183.577 136.208V116.688H179.417V110.736H183.577V101.968H190.937V110.736H199.513V116.688H190.937ZM203.806 128.208C203.806 124.667 204.531 121.531 205.982 118.8C207.475 116.069 209.48 113.957 211.998 112.464C214.558 110.928 217.374 110.16 220.446 110.16C223.219 110.16 225.63 110.715 227.678 111.824C229.768 112.891 231.432 114.235 232.67 115.856V110.736H240.03V146H232.67V140.752C231.432 142.416 229.747 143.803 227.614 144.912C225.48 146.021 223.048 146.576 220.318 146.576C217.288 146.576 214.515 145.808 211.998 144.272C209.48 142.693 207.475 140.517 205.982 137.744C204.531 134.928 203.806 131.749 203.806 128.208ZM232.67 128.336C232.67 125.904 232.158 123.792 231.134 122C230.152 120.208 228.851 118.843 227.23 117.904C225.608 116.965 223.859 116.496 221.982 116.496C220.104 116.496 218.355 116.965 216.734 117.904C215.112 118.8 213.79 120.144 212.766 121.936C211.784 123.685 211.294 125.776 211.294 128.208C211.294 130.64 211.784 132.773 212.766 134.608C213.79 136.443 215.112 137.851 216.734 138.832C218.398 139.771 220.147 140.24 221.982 140.24C223.859 140.24 225.608 139.771 227.23 138.832C228.851 137.893 230.152 136.528 231.134 134.736C232.158 132.901 232.67 130.768 232.67 128.336ZM258.125 116.688V136.208C258.125 137.531 258.423 138.491 259.021 139.088C259.661 139.643 260.727 139.92 262.221 139.92H266.701V146H260.941C257.655 146 255.138 145.232 253.389 143.696C251.639 142.16 250.765 139.664 250.765 136.208V116.688H246.605V110.736H250.765V101.968H258.125V110.736H266.701V116.688H258.125ZM288.721 146.576C285.393 146.576 282.385 145.829 279.697 144.336C277.009 142.8 274.897 140.667 273.361 137.936C271.825 135.163 271.057 131.963 271.057 128.336C271.057 124.752 271.846 121.573 273.425 118.8C275.004 116.027 277.158 113.893 279.889 112.4C282.62 110.907 285.67 110.16 289.041 110.16C292.412 110.16 295.462 110.907 298.193 112.4C300.924 113.893 303.078 116.027 304.657 118.8C306.236 121.573 307.025 124.752 307.025 128.336C307.025 131.92 306.214 135.099 304.593 137.872C302.972 140.645 300.753 142.8 297.937 144.336C295.164 145.829 292.092 146.576 288.721 146.576ZM288.721 140.24C290.598 140.24 292.348 139.792 293.969 138.896C295.633 138 296.977 136.656 298.001 134.864C299.025 133.072 299.537 130.896 299.537 128.336C299.537 125.776 299.046 123.621 298.065 121.872C297.084 120.08 295.782 118.736 294.161 117.84C292.54 116.944 290.79 116.496 288.913 116.496C287.036 116.496 285.286 116.944 283.665 117.84C282.086 118.736 280.828 120.08 279.889 121.872C278.95 123.621 278.481 125.776 278.481 128.336C278.481 132.133 279.441 135.077 281.361 137.168C283.324 139.216 285.777 140.24 288.721 140.24ZM321.534 115.856C322.6 114.064 324.008 112.677 325.758 111.696C327.55 110.672 329.662 110.16 332.094 110.16V117.712H330.238C327.379 117.712 325.203 118.437 323.71 119.888C322.259 121.339 321.534 123.856 321.534 127.44V146H314.238V110.736H321.534V115.856Z" fill="#110F1F"/>
<path d="M147.368 210.32V227H144.632V215.576L139.544 227H137.648L132.536 215.576V227H129.8V210.32H132.752L138.608 223.4L144.44 210.32H147.368ZM150.052 220.328C150.052 219 150.324 217.824 150.868 216.8C151.428 215.776 152.18 214.984 153.124 214.424C154.084 213.848 155.14 213.56 156.292 213.56C157.332 213.56 158.236 213.768 159.004 214.184C159.788 214.584 160.412 215.088 160.876 215.696V213.776H163.636V227H160.876V225.032C160.412 225.656 159.78 226.176 158.98 226.592C158.18 227.008 157.268 227.216 156.244 227.216C155.108 227.216 154.068 226.928 153.124 226.352C152.18 225.76 151.428 224.944 150.868 223.904C150.324 222.848 150.052 221.656 150.052 220.328ZM160.876 220.376C160.876 219.464 160.684 218.672 160.3 218C159.932 217.328 159.444 216.816 158.836 216.464C158.228 216.112 157.572 215.936 156.868 215.936C156.164 215.936 155.508 216.112 154.9 216.464C154.292 216.8 153.796 217.304 153.412 217.976C153.044 218.632 152.86 219.416 152.86 220.328C152.86 221.24 153.044 222.04 153.412 222.728C153.796 223.416 154.292 223.944 154.9 224.312C155.524 224.664 156.18 224.84 156.868 224.84C157.572 224.84 158.228 224.664 158.836 224.312C159.444 223.96 159.932 223.448 160.3 222.776C160.684 222.088 160.876 221.288 160.876 220.376ZM173.902 213.56C174.942 213.56 175.87 213.776 176.686 214.208C177.518 214.64 178.166 215.28 178.63 216.128C179.094 216.976 179.326 218 179.326 219.2V227H176.614V219.608C176.614 218.424 176.318 217.52 175.726 216.896C175.134 216.256 174.326 215.936 173.302 215.936C172.278 215.936 171.462 216.256 170.854 216.896C170.262 217.52 169.966 218.424 169.966 219.608V227H167.23V213.776H169.966V215.288C170.414 214.744 170.982 214.32 171.67 214.016C172.374 213.712 173.118 213.56 173.902 213.56ZM181.904 220.328C181.904 219 182.176 217.824 182.72 216.8C183.28 215.776 184.032 214.984 184.976 214.424C185.936 213.848 186.992 213.56 188.144 213.56C189.184 213.56 190.088 213.768 190.856 214.184C191.64 214.584 192.264 215.088 192.728 215.696V213.776H195.488V227H192.728V225.032C192.264 225.656 191.632 226.176 190.832 226.592C190.032 227.008 189.12 227.216 188.096 227.216C186.96 227.216 185.92 226.928 184.976 226.352C184.032 225.76 183.28 224.944 182.72 223.904C182.176 222.848 181.904 221.656 181.904 220.328ZM192.728 220.376C192.728 219.464 192.536 218.672 192.152 218C191.784 217.328 191.296 216.816 190.688 216.464C190.08 216.112 189.424 215.936 188.72 215.936C188.016 215.936 187.36 216.112 186.752 216.464C186.144 216.8 185.648 217.304 185.264 217.976C184.896 218.632 184.712 219.416 184.712 220.328C184.712 221.24 184.896 222.04 185.264 222.728C185.648 223.416 186.144 223.944 186.752 224.312C187.376 224.664 188.032 224.84 188.72 224.84C189.424 224.84 190.08 224.664 190.688 224.312C191.296 223.96 191.784 223.448 192.152 222.776C192.536 222.088 192.728 221.288 192.728 220.376ZM204.409 213.56C205.433 213.56 206.337 213.768 207.121 214.184C207.921 214.584 208.545 215.088 208.993 215.696V213.776H211.753V227.216C211.753 228.432 211.497 229.512 210.985 230.456C210.473 231.416 209.729 232.168 208.753 232.712C207.793 233.256 206.641 233.528 205.297 233.528C203.505 233.528 202.017 233.104 200.833 232.256C199.649 231.424 198.977 230.288 198.817 228.848H201.529C201.737 229.536 202.177 230.088 202.849 230.504C203.537 230.936 204.353 231.152 205.297 231.152C206.401 231.152 207.289 230.816 207.961 230.144C208.649 229.472 208.993 228.496 208.993 227.216V225.008C208.529 225.632 207.897 226.16 207.097 226.592C206.313 227.008 205.417 227.216 204.409 227.216C203.257 227.216 202.201 226.928 201.241 226.352C200.297 225.76 199.545 224.944 198.985 223.904C198.441 222.848 198.169 221.656 198.169 220.328C198.169 219 198.441 217.824 198.985 216.8C199.545 215.776 200.297 214.984 201.241 214.424C202.201 213.848 203.257 213.56 204.409 213.56ZM208.993 220.376C208.993 219.464 208.801 218.672 208.417 218C208.049 217.328 207.561 216.816 206.953 216.464C206.345 216.112 205.689 215.936 204.985 215.936C204.281 215.936 203.625 216.112 203.017 216.464C202.409 216.8 201.913 217.304 201.529 217.976C201.161 218.632 200.977 219.416 200.977 220.328C200.977 221.24 201.161 222.04 201.529 222.728C201.913 223.416 202.409 223.944 203.017 224.312C203.641 224.664 204.297 224.84 204.985 224.84C205.689 224.84 206.345 224.664 206.953 224.312C207.561 223.96 208.049 223.448 208.417 222.776C208.801 222.088 208.993 221.288 208.993 220.376ZM227.467 220.064C227.467 220.56 227.435 221.008 227.371 221.408H217.267C217.347 222.464 217.739 223.312 218.443 223.952C219.147 224.592 220.011 224.912 221.035 224.912C222.507 224.912 223.547 224.296 224.155 223.064H227.107C226.707 224.28 225.979 225.28 224.923 226.064C223.883 226.832 222.587 227.216 221.035 227.216C219.771 227.216 218.635 226.936 217.627 226.376C216.635 225.8 215.851 225 215.275 223.976C214.715 222.936 214.435 221.736 214.435 220.376C214.435 219.016 214.707 217.824 215.251 216.8C215.811 215.76 216.587 214.96 217.579 214.4C218.587 213.84 219.739 213.56 221.035 213.56C222.283 213.56 223.395 213.832 224.371 214.376C225.347 214.92 226.107 215.688 226.651 216.68C227.195 217.656 227.467 218.784 227.467 220.064ZM224.611 219.2C224.595 218.192 224.235 217.384 223.531 216.776C222.827 216.168 221.955 215.864 220.915 215.864C219.971 215.864 219.163 216.168 218.491 216.776C217.819 217.368 217.419 218.176 217.291 219.2H224.611ZM232.895 215.696C233.295 215.024 233.823 214.504 234.479 214.136C235.151 213.752 235.943 213.56 236.855 213.56V216.392H236.159C235.087 216.392 234.271 216.664 233.711 217.208C233.167 217.752 232.895 218.696 232.895 220.04V227H230.159V213.776H232.895V215.696Z" fill="#110F1F"/>
<path d="M147.368 270.32V287H144.632V275.576L139.544 287H137.648L132.536 275.576V287H129.8V270.32H132.752L138.608 283.4L144.44 270.32H147.368ZM163.084 280.064C163.084 280.56 163.052 281.008 162.988 281.408H152.884C152.964 282.464 153.356 283.312 154.06 283.952C154.764 284.592 155.628 284.912 156.652 284.912C158.124 284.912 159.164 284.296 159.772 283.064H162.724C162.324 284.28 161.596 285.28 160.54 286.064C159.5 286.832 158.204 287.216 156.652 287.216C155.388 287.216 154.252 286.936 153.244 286.376C152.252 285.8 151.468 285 150.892 283.976C150.332 282.936 150.052 281.736 150.052 280.376C150.052 279.016 150.324 277.824 150.868 276.8C151.428 275.76 152.204 274.96 153.196 274.4C154.204 273.84 155.356 273.56 156.652 273.56C157.9 273.56 159.012 273.832 159.988 274.376C160.964 274.92 161.724 275.688 162.268 276.68C162.812 277.656 163.084 278.784 163.084 280.064ZM160.228 279.2C160.212 278.192 159.852 277.384 159.148 276.776C158.444 276.168 157.572 275.864 156.532 275.864C155.588 275.864 154.78 276.168 154.108 276.776C153.436 277.368 153.036 278.176 152.908 279.2H160.228ZM181.785 273.56C182.825 273.56 183.753 273.776 184.569 274.208C185.401 274.64 186.049 275.28 186.513 276.128C186.993 276.976 187.233 278 187.233 279.2V287H184.521V279.608C184.521 278.424 184.225 277.52 183.633 276.896C183.041 276.256 182.233 275.936 181.209 275.936C180.185 275.936 179.369 276.256 178.761 276.896C178.169 277.52 177.873 278.424 177.873 279.608V287H175.161V279.608C175.161 278.424 174.865 277.52 174.273 276.896C173.681 276.256 172.873 275.936 171.849 275.936C170.825 275.936 170.009 276.256 169.401 276.896C168.809 277.52 168.513 278.424 168.513 279.608V287H165.777V273.776H168.513V275.288C168.961 274.744 169.529 274.32 170.217 274.016C170.905 273.712 171.641 273.56 172.425 273.56C173.481 273.56 174.425 273.784 175.257 274.232C176.089 274.68 176.729 275.328 177.177 276.176C177.577 275.376 178.201 274.744 179.049 274.28C179.897 273.8 180.809 273.56 181.785 273.56ZM193.45 275.744C193.914 275.104 194.546 274.584 195.346 274.184C196.162 273.768 197.066 273.56 198.058 273.56C199.226 273.56 200.282 273.84 201.226 274.4C202.17 274.96 202.914 275.76 203.458 276.8C204.002 277.824 204.274 279 204.274 280.328C204.274 281.656 204.002 282.848 203.458 283.904C202.914 284.944 202.162 285.76 201.202 286.352C200.258 286.928 199.21 287.216 198.058 287.216C197.034 287.216 196.122 287.016 195.322 286.616C194.538 286.216 193.914 285.704 193.45 285.08V287H190.714V269.24H193.45V275.744ZM201.49 280.328C201.49 279.416 201.298 278.632 200.914 277.976C200.546 277.304 200.05 276.8 199.426 276.464C198.818 276.112 198.162 275.936 197.458 275.936C196.77 275.936 196.114 276.112 195.49 276.464C194.882 276.816 194.386 277.328 194.002 278C193.634 278.672 193.45 279.464 193.45 280.376C193.45 281.288 193.634 282.088 194.002 282.776C194.386 283.448 194.882 283.96 195.49 284.312C196.114 284.664 196.77 284.84 197.458 284.84C198.162 284.84 198.818 284.664 199.426 284.312C200.05 283.944 200.546 283.416 200.914 282.728C201.298 282.04 201.49 281.24 201.49 280.328ZM219.1 280.064C219.1 280.56 219.068 281.008 219.004 281.408H208.9C208.98 282.464 209.372 283.312 210.076 283.952C210.78 284.592 211.644 284.912 212.668 284.912C214.14 284.912 215.18 284.296 215.788 283.064H218.74C218.34 284.28 217.612 285.28 216.556 286.064C215.516 286.832 214.22 287.216 212.668 287.216C211.404 287.216 210.268 286.936 209.26 286.376C208.268 285.8 207.484 285 206.908 283.976C206.348 282.936 206.068 281.736 206.068 280.376C206.068 279.016 206.34 277.824 206.884 276.8C207.444 275.76 208.22 274.96 209.212 274.4C210.22 273.84 211.372 273.56 212.668 273.56C213.916 273.56 215.028 273.832 216.004 274.376C216.98 274.92 217.74 275.688 218.284 276.68C218.828 277.656 219.1 278.784 219.1 280.064ZM216.244 279.2C216.228 278.192 215.868 277.384 215.164 276.776C214.46 276.168 213.588 275.864 212.548 275.864C211.604 275.864 210.796 276.168 210.124 276.776C209.452 277.368 209.052 278.176 208.924 279.2H216.244ZM224.528 275.696C224.928 275.024 225.456 274.504 226.112 274.136C226.784 273.752 227.576 273.56 228.488 273.56V276.392H227.792C226.72 276.392 225.904 276.664 225.344 277.208C224.8 277.752 224.528 278.696 224.528 280.04V287H221.792V273.776H224.528V275.696Z" fill="#110F1F"/>
<circle cx="900.198" cy="227.198" r="46.1982" fill="#4535D8"/>
<circle cx="91" cy="222" r="14" fill="#4535D8"/>
<circle cx="91" cy="279" r="14" fill="#C4BFF2"/>
<g filter="url(#filter0_b_602_110)">
<path d="M338 625.228C338 483.717 454.496 369 596.007 369V369C737.517 369 854.014 483.717 854.014 625.228V625.228C854.014 766.738 737.517 881.455 596.007 881.455V881.455C454.496 881.455 338 766.738 338 625.228V625.228Z" fill="#FBFCFE"/>
<path d="M596.007 880.455C455.04 880.455 339 766.177 339 625.228C339 484.278 455.04 370 596.007 370C736.974 370 853.014 484.278 853.014 625.228C853.014 766.177 736.974 880.455 596.007 880.455Z" stroke="#C4BFF2" stroke-width="2"/>
</g>
<circle cx="416" cy="651" r="25.5" fill="#C4BFF2" stroke="#EBEAFB"/>
<circle cx="444" cy="729" r="25.5" fill="#C4BFF2" stroke="#EBEAFB"/>
<circle cx="508" cy="788" r="25.5" fill="#C4BFF2" stroke="#EBEAFB"/>
<circle cx="603" cy="807" r="25.5" fill="#C4BFF2" stroke="#EBEAFB"/>
<circle cx="697" cy="781" r="25.5" fill="#C4BFF2" stroke="#EBEAFB"/>
<circle cx="750" cy="714" r="25.5" fill="#C4BFF2" stroke="#EBEAFB"/>
<circle cx="771" cy="632" r="25.5" fill="#C4BFF2" stroke="#EBEAFB"/>
<path d="M447.67 528.9C448.25 528.14 449.04 527.5 450.04 526.98C451.04 526.46 452.17 526.2 453.43 526.2C454.87 526.2 456.18 526.56 457.36 527.28C458.56 527.98 459.5 528.97 460.18 530.25C460.86 531.53 461.2 533 461.2 534.66C461.2 536.32 460.86 537.81 460.18 539.13C459.5 540.43 458.56 541.45 457.36 542.19C456.18 542.91 454.87 543.27 453.43 543.27C452.17 543.27 451.05 543.02 450.07 542.52C449.09 542 448.29 541.36 447.67 540.6V550.86H444.25V526.47H447.67V528.9ZM457.72 534.66C457.72 533.52 457.48 532.54 457 531.72C456.54 530.88 455.92 530.25 455.14 529.83C454.38 529.39 453.56 529.17 452.68 529.17C451.82 529.17 451 529.39 450.22 529.83C449.46 530.27 448.84 530.91 448.36 531.75C447.9 532.59 447.67 533.58 447.67 534.72C447.67 535.86 447.9 536.86 448.36 537.72C448.84 538.56 449.46 539.2 450.22 539.64C451 540.08 451.82 540.3 452.68 540.3C453.56 540.3 454.38 540.08 455.14 539.64C455.92 539.18 456.54 538.52 457 537.66C457.48 536.8 457.72 535.8 457.72 534.66ZM468.002 528.87C468.502 528.03 469.162 527.38 469.982 526.92C470.822 526.44 471.812 526.2 472.952 526.2V529.74H472.082C470.742 529.74 469.722 530.08 469.022 530.76C468.342 531.44 468.002 532.62 468.002 534.3V543H464.582V526.47H468.002V528.87ZM483.266 543.27C481.706 543.27 480.296 542.92 479.036 542.22C477.776 541.5 476.786 540.5 476.066 539.22C475.346 537.92 474.986 536.42 474.986 534.72C474.986 533.04 475.356 531.55 476.096 530.25C476.836 528.95 477.846 527.95 479.126 527.25C480.406 526.55 481.836 526.2 483.416 526.2C484.996 526.2 486.426 526.55 487.706 527.25C488.986 527.95 489.996 528.95 490.736 530.25C491.476 531.55 491.846 533.04 491.846 534.72C491.846 536.4 491.466 537.89 490.706 539.19C489.946 540.49 488.906 541.5 487.586 542.22C486.286 542.92 484.846 543.27 483.266 543.27ZM483.266 540.3C484.146 540.3 484.966 540.09 485.726 539.67C486.506 539.25 487.136 538.62 487.616 537.78C488.096 536.94 488.336 535.92 488.336 534.72C488.336 533.52 488.106 532.51 487.646 531.69C487.186 530.85 486.576 530.22 485.816 529.8C485.056 529.38 484.236 529.17 483.356 529.17C482.476 529.17 481.656 529.38 480.896 529.8C480.156 530.22 479.566 530.85 479.126 531.69C478.686 532.51 478.466 533.52 478.466 534.72C478.466 536.5 478.916 537.88 479.816 538.86C480.736 539.82 481.886 540.3 483.266 540.3ZM496.967 524.28C496.347 524.28 495.827 524.07 495.407 523.65C494.987 523.23 494.777 522.71 494.777 522.09C494.777 521.47 494.987 520.95 495.407 520.53C495.827 520.11 496.347 519.9 496.967 519.9C497.567 519.9 498.077 520.11 498.497 520.53C498.917 520.95 499.127 521.47 499.127 522.09C499.127 522.71 498.917 523.23 498.497 523.65C498.077 524.07 497.567 524.28 496.967 524.28ZM498.647 546.24C498.647 547.86 498.237 549.03 497.417 549.75C496.617 550.49 495.447 550.86 493.907 550.86H492.137V547.98H493.307C494.007 547.98 494.497 547.84 494.777 547.56C495.077 547.3 495.227 546.86 495.227 546.24V526.47H498.647V546.24ZM518.287 534.33C518.287 534.95 518.247 535.51 518.167 536.01H505.537C505.637 537.33 506.127 538.39 507.007 539.19C507.887 539.99 508.967 540.39 510.247 540.39C512.087 540.39 513.387 539.62 514.147 538.08H517.837C517.337 539.6 516.427 540.85 515.107 541.83C513.807 542.79 512.187 543.27 510.247 543.27C508.667 543.27 507.247 542.92 505.987 542.22C504.747 541.5 503.767 540.5 503.047 539.22C502.347 537.92 501.997 536.42 501.997 534.72C501.997 533.02 502.337 531.53 503.017 530.25C503.717 528.95 504.687 527.95 505.927 527.25C507.187 526.55 508.627 526.2 510.247 526.2C511.807 526.2 513.197 526.54 514.417 527.22C515.637 527.9 516.587 528.86 517.267 530.1C517.947 531.32 518.287 532.73 518.287 534.33ZM514.717 533.25C514.697 531.99 514.247 530.98 513.367 530.22C512.487 529.46 511.397 529.08 510.097 529.08C508.917 529.08 507.907 529.46 507.067 530.22C506.227 530.96 505.727 531.97 505.567 533.25H514.717ZM520.512 534.72C520.512 533.02 520.852 531.53 521.532 530.25C522.232 528.95 523.192 527.95 524.412 527.25C525.632 526.55 527.032 526.2 528.612 526.2C530.612 526.2 532.262 526.68 533.562 527.64C534.882 528.58 535.772 529.93 536.232 531.69H532.542C532.242 530.87 531.762 530.23 531.102 529.77C530.442 529.31 529.612 529.08 528.612 529.08C527.212 529.08 526.092 529.58 525.252 530.58C524.432 531.56 524.022 532.94 524.022 534.72C524.022 536.5 524.432 537.89 525.252 538.89C526.092 539.89 527.212 540.39 528.612 540.39C530.592 540.39 531.902 539.52 532.542 537.78H536.232C535.752 539.46 534.852 540.8 533.532 541.8C532.212 542.78 530.572 543.27 528.612 543.27C527.032 543.27 525.632 542.92 524.412 542.22C523.192 541.5 522.232 540.5 521.532 539.22C520.852 537.92 520.512 536.42 520.512 534.72ZM543.631 529.26V538.41C543.631 539.03 543.771 539.48 544.051 539.76C544.351 540.02 544.851 540.15 545.551 540.15H547.651V543H544.951C543.411 543 542.231 542.64 541.411 541.92C540.591 541.2 540.181 540.03 540.181 538.41V529.26H538.231V526.47H540.181V522.36H543.631V526.47H547.651V529.26H543.631ZM563.493 530.7V533.58H551.163V530.7H563.493ZM567.212 534.66C567.212 533 567.552 531.53 568.232 530.25C568.932 528.97 569.872 527.98 571.052 527.28C572.252 526.56 573.582 526.2 575.042 526.2C576.122 526.2 577.182 526.44 578.222 526.92C579.282 527.38 580.122 528 580.742 528.78V520.8H584.192V543H580.742V540.51C580.182 541.31 579.402 541.97 578.402 542.49C577.422 543.01 576.292 543.27 575.012 543.27C573.572 543.27 572.252 542.91 571.052 542.19C569.872 541.45 568.932 540.43 568.232 539.13C567.552 537.81 567.212 536.32 567.212 534.66ZM580.742 534.72C580.742 533.58 580.502 532.59 580.022 531.75C579.562 530.91 578.952 530.27 578.192 529.83C577.432 529.39 576.612 529.17 575.732 529.17C574.852 529.17 574.032 529.39 573.272 529.83C572.512 530.25 571.892 530.88 571.412 531.72C570.952 532.54 570.722 533.52 570.722 534.66C570.722 535.8 570.952 536.8 571.412 537.66C571.892 538.52 572.512 539.18 573.272 539.64C574.052 540.08 574.872 540.3 575.732 540.3C576.612 540.3 577.432 540.08 578.192 539.64C578.952 539.2 579.562 538.56 580.022 537.72C580.502 536.86 580.742 535.86 580.742 534.72ZM603.834 534.33C603.834 534.95 603.794 535.51 603.714 536.01H591.084C591.184 537.33 591.674 538.39 592.554 539.19C593.434 539.99 594.514 540.39 595.794 540.39C597.634 540.39 598.934 539.62 599.694 538.08H603.384C602.884 539.6 601.974 540.85 600.654 541.83C599.354 542.79 597.734 543.27 595.794 543.27C594.214 543.27 592.794 542.92 591.534 542.22C590.294 541.5 589.314 540.5 588.594 539.22C587.894 537.92 587.544 536.42 587.544 534.72C587.544 533.02 587.884 531.53 588.564 530.25C589.264 528.95 590.234 527.95 591.474 527.25C592.734 526.55 594.174 526.2 595.794 526.2C597.354 526.2 598.744 526.54 599.964 527.22C601.184 527.9 602.134 528.86 602.814 530.1C603.494 531.32 603.834 532.73 603.834 534.33ZM600.264 533.25C600.244 531.99 599.794 530.98 598.914 530.22C598.034 529.46 596.944 529.08 595.644 529.08C594.464 529.08 593.454 529.46 592.614 530.22C591.774 530.96 591.274 531.97 591.114 533.25H600.264ZM613.589 539.94L618.269 526.47H621.899L615.599 543H611.519L605.249 526.47H608.909L613.589 539.94ZM625.864 543.21C625.244 543.21 624.724 543 624.304 542.58C623.884 542.16 623.674 541.64 623.674 541.02C623.674 540.4 623.884 539.88 624.304 539.46C624.724 539.04 625.244 538.83 625.864 538.83C626.464 538.83 626.974 539.04 627.394 539.46C627.814 539.88 628.024 540.4 628.024 541.02C628.024 541.64 627.814 542.16 627.394 542.58C626.974 543 626.464 543.21 625.864 543.21ZM635.141 528.9C635.721 528.14 636.511 527.5 637.511 526.98C638.511 526.46 639.641 526.2 640.901 526.2C642.341 526.2 643.651 526.56 644.831 527.28C646.031 527.98 646.971 528.97 647.651 530.25C648.331 531.53 648.671 533 648.671 534.66C648.671 536.32 648.331 537.81 647.651 539.13C646.971 540.43 646.031 541.45 644.831 542.19C643.651 542.91 642.341 543.27 640.901 543.27C639.641 543.27 638.521 543.02 637.541 542.52C636.561 542 635.761 541.36 635.141 540.6V550.86H631.721V526.47H635.141V528.9ZM645.191 534.66C645.191 533.52 644.951 532.54 644.471 531.72C644.011 530.88 643.391 530.25 642.611 529.83C641.851 529.39 641.031 529.17 640.151 529.17C639.291 529.17 638.471 529.39 637.691 529.83C636.931 530.27 636.311 530.91 635.831 531.75C635.371 532.59 635.141 533.58 635.141 534.72C635.141 535.86 635.371 536.86 635.831 537.72C636.311 538.56 636.931 539.2 637.691 539.64C638.471 540.08 639.291 540.3 640.151 540.3C641.031 540.3 641.851 540.08 642.611 539.64C643.391 539.18 644.011 538.52 644.471 537.66C644.951 536.8 645.191 535.8 645.191 534.66ZM659.223 543.27C657.663 543.27 656.253 542.92 654.993 542.22C653.733 541.5 652.743 540.5 652.023 539.22C651.303 537.92 650.943 536.42 650.943 534.72C650.943 533.04 651.313 531.55 652.053 530.25C652.793 528.95 653.803 527.95 655.083 527.25C656.363 526.55 657.793 526.2 659.373 526.2C660.953 526.2 662.383 526.55 663.663 527.25C664.943 527.95 665.953 528.95 666.693 530.25C667.433 531.55 667.803 533.04 667.803 534.72C667.803 536.4 667.423 537.89 666.663 539.19C665.903 540.49 664.863 541.5 663.543 542.22C662.243 542.92 660.803 543.27 659.223 543.27ZM659.223 540.3C660.103 540.3 660.923 540.09 661.683 539.67C662.463 539.25 663.093 538.62 663.573 537.78C664.053 536.94 664.293 535.92 664.293 534.72C664.293 533.52 664.063 532.51 663.603 531.69C663.143 530.85 662.533 530.22 661.773 529.8C661.013 529.38 660.193 529.17 659.313 529.17C658.433 529.17 657.613 529.38 656.853 529.8C656.113 530.22 655.523 530.85 655.083 531.69C654.643 532.51 654.423 533.52 654.423 534.72C654.423 536.5 654.873 537.88 655.773 538.86C656.693 539.82 657.843 540.3 659.223 540.3ZM670.044 534.66C670.044 533 670.384 531.53 671.064 530.25C671.764 528.97 672.704 527.98 673.884 527.28C675.084 526.56 676.414 526.2 677.874 526.2C678.954 526.2 680.014 526.44 681.054 526.92C682.114 527.38 682.954 528 683.574 528.78V520.8H687.024V543H683.574V540.51C683.014 541.31 682.234 541.97 681.234 542.49C680.254 543.01 679.124 543.27 677.844 543.27C676.404 543.27 675.084 542.91 673.884 542.19C672.704 541.45 671.764 540.43 671.064 539.13C670.384 537.81 670.044 536.32 670.044 534.66ZM683.574 534.72C683.574 533.58 683.334 532.59 682.854 531.75C682.394 530.91 681.784 530.27 681.024 529.83C680.264 529.39 679.444 529.17 678.564 529.17C677.684 529.17 676.864 529.39 676.104 529.83C675.344 530.25 674.724 530.88 674.244 531.72C673.784 532.54 673.554 533.52 673.554 534.66C673.554 535.8 673.784 536.8 674.244 537.66C674.724 538.52 675.344 539.18 676.104 539.64C676.884 540.08 677.704 540.3 678.564 540.3C679.444 540.3 680.264 540.08 681.024 539.64C681.784 539.2 682.394 538.56 682.854 537.72C683.334 536.86 683.574 535.86 683.574 534.72ZM692.896 543.21C692.276 543.21 691.756 543 691.336 542.58C690.916 542.16 690.706 541.64 690.706 541.02C690.706 540.4 690.916 539.88 691.336 539.46C691.756 539.04 692.276 538.83 692.896 538.83C693.496 538.83 694.006 539.04 694.426 539.46C694.846 539.88 695.056 540.4 695.056 541.02C695.056 541.64 694.846 542.16 694.426 542.58C694.006 543 693.496 543.21 692.896 543.21ZM705.832 534.63L711.172 543H707.302L703.732 537.39L700.372 543H696.802L702.142 534.87L696.802 526.47H700.672L704.242 532.08L707.602 526.47H711.172L705.832 534.63ZM728.603 526.47L718.463 550.77H714.923L718.283 542.73L711.773 526.47H715.583L720.233 539.07L725.063 526.47H728.603ZM734.214 540.21H741.714V543H730.254V540.21L737.784 529.26H730.254V526.47H741.714V529.26L734.214 540.21Z" fill="#110F1F"/>
<g filter="url(#filter1_b_602_110)">
<path d="M970 625.228C970 483.717 1086.5 369 1228.01 369V369C1369.52 369 1486.01 483.717 1486.01 625.228V625.228C1486.01 766.738 1369.52 881.455 1228.01 881.455V881.455C1086.5 881.455 970 766.738 970 625.228V625.228Z" fill="#FBFCFE"/>
<path d="M1228.01 880.455C1087.04 880.455 971 766.177 971 625.228C971 484.278 1087.04 370 1228.01 370C1368.97 370 1485.01 484.278 1485.01 625.228C1485.01 766.177 1368.97 880.455 1228.01 880.455Z" stroke="#C4BFF2" stroke-width="2"/>
</g>
<circle cx="1048" cy="651" r="25.5" fill="#C4BFF2" stroke="#EBEAFB"/>
<circle cx="1076" cy="729" r="25.5" fill="#C4BFF2" stroke="#EBEAFB"/>
<circle cx="1140" cy="788" r="25.5" fill="#C4BFF2" stroke="#EBEAFB"/>
<circle cx="1235" cy="807" r="25.5" fill="#C4BFF2" stroke="#EBEAFB"/>
<circle cx="1329" cy="781" r="25.5" fill="#C4BFF2" stroke="#EBEAFB"/>
<circle cx="1382" cy="714" r="25.5" fill="#C4BFF2" stroke="#EBEAFB"/>
<circle cx="1403" cy="632" r="25.5" fill="#C4BFF2" stroke="#EBEAFB"/>
<path d="M1063.67 528.9C1064.25 528.14 1065.04 527.5 1066.04 526.98C1067.04 526.46 1068.17 526.2 1069.43 526.2C1070.87 526.2 1072.18 526.56 1073.36 527.28C1074.56 527.98 1075.5 528.97 1076.18 530.25C1076.86 531.53 1077.2 533 1077.2 534.66C1077.2 536.32 1076.86 537.81 1076.18 539.13C1075.5 540.43 1074.56 541.45 1073.36 542.19C1072.18 542.91 1070.87 543.27 1069.43 543.27C1068.17 543.27 1067.05 543.02 1066.07 542.52C1065.09 542 1064.29 541.36 1063.67 540.6V550.86H1060.25V526.47H1063.67V528.9ZM1073.72 534.66C1073.72 533.52 1073.48 532.54 1073 531.72C1072.54 530.88 1071.92 530.25 1071.14 529.83C1070.38 529.39 1069.56 529.17 1068.68 529.17C1067.82 529.17 1067 529.39 1066.22 529.83C1065.46 530.27 1064.84 530.91 1064.36 531.75C1063.9 532.59 1063.67 533.58 1063.67 534.72C1063.67 535.86 1063.9 536.86 1064.36 537.72C1064.84 538.56 1065.46 539.2 1066.22 539.64C1067 540.08 1067.82 540.3 1068.68 540.3C1069.56 540.3 1070.38 540.08 1071.14 539.64C1071.92 539.18 1072.54 538.52 1073 537.66C1073.48 536.8 1073.72 535.8 1073.72 534.66ZM1084 528.87C1084.5 528.03 1085.16 527.38 1085.98 526.92C1086.82 526.44 1087.81 526.2 1088.95 526.2V529.74H1088.08C1086.74 529.74 1085.72 530.08 1085.02 530.76C1084.34 531.44 1084 532.62 1084 534.3V543H1080.58V526.47H1084V528.87ZM1099.27 543.27C1097.71 543.27 1096.3 542.92 1095.04 542.22C1093.78 541.5 1092.79 540.5 1092.07 539.22C1091.35 537.92 1090.99 536.42 1090.99 534.72C1090.99 533.04 1091.36 531.55 1092.1 530.25C1092.84 528.95 1093.85 527.95 1095.13 527.25C1096.41 526.55 1097.84 526.2 1099.42 526.2C1101 526.2 1102.43 526.55 1103.71 527.25C1104.99 527.95 1106 528.95 1106.74 530.25C1107.48 531.55 1107.85 533.04 1107.85 534.72C1107.85 536.4 1107.47 537.89 1106.71 539.19C1105.95 540.49 1104.91 541.5 1103.59 542.22C1102.29 542.92 1100.85 543.27 1099.27 543.27ZM1099.27 540.3C1100.15 540.3 1100.97 540.09 1101.73 539.67C1102.51 539.25 1103.14 538.62 1103.62 537.78C1104.1 536.94 1104.34 535.92 1104.34 534.72C1104.34 533.52 1104.11 532.51 1103.65 531.69C1103.19 530.85 1102.58 530.22 1101.82 529.8C1101.06 529.38 1100.24 529.17 1099.36 529.17C1098.48 529.17 1097.66 529.38 1096.9 529.8C1096.16 530.22 1095.57 530.85 1095.13 531.69C1094.69 532.51 1094.47 533.52 1094.47 534.72C1094.47 536.5 1094.92 537.88 1095.82 538.86C1096.74 539.82 1097.89 540.3 1099.27 540.3ZM1112.97 524.28C1112.35 524.28 1111.83 524.07 1111.41 523.65C1110.99 523.23 1110.78 522.71 1110.78 522.09C1110.78 521.47 1110.99 520.95 1111.41 520.53C1111.83 520.11 1112.35 519.9 1112.97 519.9C1113.57 519.9 1114.08 520.11 1114.5 520.53C1114.92 520.95 1115.13 521.47 1115.13 522.09C1115.13 522.71 1114.92 523.23 1114.5 523.65C1114.08 524.07 1113.57 524.28 1112.97 524.28ZM1114.65 546.24C1114.65 547.86 1114.24 549.03 1113.42 549.75C1112.62 550.49 1111.45 550.86 1109.91 550.86H1108.14V547.98H1109.31C1110.01 547.98 1110.5 547.84 1110.78 547.56C1111.08 547.3 1111.23 546.86 1111.23 546.24V526.47H1114.65V546.24ZM1134.29 534.33C1134.29 534.95 1134.25 535.51 1134.17 536.01H1121.54C1121.64 537.33 1122.13 538.39 1123.01 539.19C1123.89 539.99 1124.97 540.39 1126.25 540.39C1128.09 540.39 1129.39 539.62 1130.15 538.08H1133.84C1133.34 539.6 1132.43 540.85 1131.11 541.83C1129.81 542.79 1128.19 543.27 1126.25 543.27C1124.67 543.27 1123.25 542.92 1121.99 542.22C1120.75 541.5 1119.77 540.5 1119.05 539.22C1118.35 537.92 1118 536.42 1118 534.72C1118 533.02 1118.34 531.53 1119.02 530.25C1119.72 528.95 1120.69 527.95 1121.93 527.25C1123.19 526.55 1124.63 526.2 1126.25 526.2C1127.81 526.2 1129.2 526.54 1130.42 527.22C1131.64 527.9 1132.59 528.86 1133.27 530.1C1133.95 531.32 1134.29 532.73 1134.29 534.33ZM1130.72 533.25C1130.7 531.99 1130.25 530.98 1129.37 530.22C1128.49 529.46 1127.4 529.08 1126.1 529.08C1124.92 529.08 1123.91 529.46 1123.07 530.22C1122.23 530.96 1121.73 531.97 1121.57 533.25H1130.72ZM1136.51 534.72C1136.51 533.02 1136.85 531.53 1137.53 530.25C1138.23 528.95 1139.19 527.95 1140.41 527.25C1141.63 526.55 1143.03 526.2 1144.61 526.2C1146.61 526.2 1148.26 526.68 1149.56 527.64C1150.88 528.58 1151.77 529.93 1152.23 531.69H1148.54C1148.24 530.87 1147.76 530.23 1147.1 529.77C1146.44 529.31 1145.61 529.08 1144.61 529.08C1143.21 529.08 1142.09 529.58 1141.25 530.58C1140.43 531.56 1140.02 532.94 1140.02 534.72C1140.02 536.5 1140.43 537.89 1141.25 538.89C1142.09 539.89 1143.21 540.39 1144.61 540.39C1146.59 540.39 1147.9 539.52 1148.54 537.78H1152.23C1151.75 539.46 1150.85 540.8 1149.53 541.8C1148.21 542.78 1146.57 543.27 1144.61 543.27C1143.03 543.27 1141.63 542.92 1140.41 542.22C1139.19 541.5 1138.23 540.5 1137.53 539.22C1136.85 537.92 1136.51 536.42 1136.51 534.72ZM1159.63 529.26V538.41C1159.63 539.03 1159.77 539.48 1160.05 539.76C1160.35 540.02 1160.85 540.15 1161.55 540.15H1163.65V543H1160.95C1159.41 543 1158.23 542.64 1157.41 541.92C1156.59 541.2 1156.18 540.03 1156.18 538.41V529.26H1154.23V526.47H1156.18V522.36H1159.63V526.47H1163.65V529.26H1159.63ZM1179.49 530.7V533.58H1167.16V530.7H1179.49ZM1204.36 526.2C1205.66 526.2 1206.82 526.47 1207.84 527.01C1208.88 527.55 1209.69 528.35 1210.27 529.41C1210.87 530.47 1211.17 531.75 1211.17 533.25V543H1207.78V533.76C1207.78 532.28 1207.41 531.15 1206.67 530.37C1205.93 529.57 1204.92 529.17 1203.64 529.17C1202.36 529.17 1201.34 529.57 1200.58 530.37C1199.84 531.15 1199.47 532.28 1199.47 533.76V543H1196.08V533.76C1196.08 532.28 1195.71 531.15 1194.97 530.37C1194.23 529.57 1193.22 529.17 1191.94 529.17C1190.66 529.17 1189.64 529.57 1188.88 530.37C1188.14 531.15 1187.77 532.28 1187.77 533.76V543H1184.35V526.47H1187.77V528.36C1188.33 527.68 1189.04 527.15 1189.9 526.77C1190.76 526.39 1191.68 526.2 1192.66 526.2C1193.98 526.2 1195.16 526.48 1196.2 527.04C1197.24 527.6 1198.04 528.41 1198.6 529.47C1199.1 528.47 1199.88 527.68 1200.94 527.1C1202 526.5 1203.14 526.2 1204.36 526.2ZM1222.06 534.75L1229.68 543H1225.06L1218.94 535.89V543H1215.52V520.8H1218.94V533.7L1224.94 526.47H1229.68L1222.06 534.75ZM1236.12 529.26V538.41C1236.12 539.03 1236.26 539.48 1236.54 539.76C1236.84 540.02 1237.34 540.15 1238.04 540.15H1240.14V543H1237.44C1235.9 543 1234.72 542.64 1233.9 541.92C1233.08 541.2 1232.67 540.03 1232.67 538.41V529.26H1230.72V526.47H1232.67V522.36H1236.12V526.47H1240.14V529.26H1236.12ZM1249.96 526.2C1251.24 526.2 1252.37 526.46 1253.35 526.98C1254.35 527.48 1255.13 528.11 1255.69 528.87V526.47H1259.14V543.27C1259.14 544.79 1258.82 546.14 1258.18 547.32C1257.54 548.52 1256.61 549.46 1255.39 550.14C1254.19 550.82 1252.75 551.16 1251.07 551.16C1248.83 551.16 1246.97 550.63 1245.49 549.57C1244.01 548.53 1243.17 547.11 1242.97 545.31H1246.36C1246.62 546.17 1247.17 546.86 1248.01 547.38C1248.87 547.92 1249.89 548.19 1251.07 548.19C1252.45 548.19 1253.56 547.77 1254.4 546.93C1255.26 546.09 1255.69 544.87 1255.69 543.27V540.51C1255.11 541.29 1254.32 541.95 1253.32 542.49C1252.34 543.01 1251.22 543.27 1249.96 543.27C1248.52 543.27 1247.2 542.91 1246 542.19C1244.82 541.45 1243.88 540.43 1243.18 539.13C1242.5 537.81 1242.16 536.32 1242.16 534.66C1242.16 533 1242.5 531.53 1243.18 530.25C1243.88 528.97 1244.82 527.98 1246 527.28C1247.2 526.56 1248.52 526.2 1249.96 526.2ZM1255.69 534.72C1255.69 533.58 1255.45 532.59 1254.97 531.75C1254.51 530.91 1253.9 530.27 1253.14 529.83C1252.38 529.39 1251.56 529.17 1250.68 529.17C1249.8 529.17 1248.98 529.39 1248.22 529.83C1247.46 530.25 1246.84 530.88 1246.36 531.72C1245.9 532.54 1245.67 533.52 1245.67 534.66C1245.67 535.8 1245.9 536.8 1246.36 537.66C1246.84 538.52 1247.46 539.18 1248.22 539.64C1249 540.08 1249.82 540.3 1250.68 540.3C1251.56 540.3 1252.38 540.08 1253.14 539.64C1253.9 539.2 1254.51 538.56 1254.97 537.72C1255.45 536.86 1255.69 535.86 1255.69 534.72ZM1265.01 543.21C1264.39 543.21 1263.87 543 1263.45 542.58C1263.03 542.16 1262.82 541.64 1262.82 541.02C1262.82 540.4 1263.03 539.88 1263.45 539.46C1263.87 539.04 1264.39 538.83 1265.01 538.83C1265.61 538.83 1266.12 539.04 1266.54 539.46C1266.96 539.88 1267.17 540.4 1267.17 541.02C1267.17 541.64 1266.96 542.16 1266.54 542.58C1266.12 543 1265.61 543.21 1265.01 543.21ZM1274.29 528.9C1274.87 528.14 1275.66 527.5 1276.66 526.98C1277.66 526.46 1278.79 526.2 1280.05 526.2C1281.49 526.2 1282.8 526.56 1283.98 527.28C1285.18 527.98 1286.12 528.97 1286.8 530.25C1287.48 531.53 1287.82 533 1287.82 534.66C1287.82 536.32 1287.48 537.81 1286.8 539.13C1286.12 540.43 1285.18 541.45 1283.98 542.19C1282.8 542.91 1281.49 543.27 1280.05 543.27C1278.79 543.27 1277.67 543.02 1276.69 542.52C1275.71 542 1274.91 541.36 1274.29 540.6V550.86H1270.87V526.47H1274.29V528.9ZM1284.34 534.66C1284.34 533.52 1284.1 532.54 1283.62 531.72C1283.16 530.88 1282.54 530.25 1281.76 529.83C1281 529.39 1280.18 529.17 1279.3 529.17C1278.44 529.17 1277.62 529.39 1276.84 529.83C1276.08 530.27 1275.46 530.91 1274.98 531.75C1274.52 532.59 1274.29 533.58 1274.29 534.72C1274.29 535.86 1274.52 536.86 1274.98 537.72C1275.46 538.56 1276.08 539.2 1276.84 539.64C1277.62 540.08 1278.44 540.3 1279.3 540.3C1280.18 540.3 1281 540.08 1281.76 539.64C1282.54 539.18 1283.16 538.52 1283.62 537.66C1284.1 536.8 1284.34 535.8 1284.34 534.66ZM1298.37 543.27C1296.81 543.27 1295.4 542.92 1294.14 542.22C1292.88 541.5 1291.89 540.5 1291.17 539.22C1290.45 537.92 1290.09 536.42 1290.09 534.72C1290.09 533.04 1290.46 531.55 1291.2 530.25C1291.94 528.95 1292.95 527.95 1294.23 527.25C1295.51 526.55 1296.94 526.2 1298.52 526.2C1300.1 526.2 1301.53 526.55 1302.81 527.25C1304.09 527.95 1305.1 528.95 1305.84 530.25C1306.58 531.55 1306.95 533.04 1306.95 534.72C1306.95 536.4 1306.57 537.89 1305.81 539.19C1305.05 540.49 1304.01 541.5 1302.69 542.22C1301.39 542.92 1299.95 543.27 1298.37 543.27ZM1298.37 540.3C1299.25 540.3 1300.07 540.09 1300.83 539.67C1301.61 539.25 1302.24 538.62 1302.72 537.78C1303.2 536.94 1303.44 535.92 1303.44 534.72C1303.44 533.52 1303.21 532.51 1302.75 531.69C1302.29 530.85 1301.68 530.22 1300.92 529.8C1300.16 529.38 1299.34 529.17 1298.46 529.17C1297.58 529.17 1296.76 529.38 1296 529.8C1295.26 530.22 1294.67 530.85 1294.23 531.69C1293.79 532.51 1293.57 533.52 1293.57 534.72C1293.57 536.5 1294.02 537.88 1294.92 538.86C1295.84 539.82 1296.99 540.3 1298.37 540.3ZM1309.19 534.66C1309.19 533 1309.53 531.53 1310.21 530.25C1310.91 528.97 1311.85 527.98 1313.03 527.28C1314.23 526.56 1315.56 526.2 1317.02 526.2C1318.1 526.2 1319.16 526.44 1320.2 526.92C1321.26 527.38 1322.1 528 1322.72 528.78V520.8H1326.17V543H1322.72V540.51C1322.16 541.31 1321.38 541.97 1320.38 542.49C1319.4 543.01 1318.27 543.27 1316.99 543.27C1315.55 543.27 1314.23 542.91 1313.03 542.19C1311.85 541.45 1310.91 540.43 1310.21 539.13C1309.53 537.81 1309.19 536.32 1309.19 534.66ZM1322.72 534.72C1322.72 533.58 1322.48 532.59 1322 531.75C1321.54 530.91 1320.93 530.27 1320.17 529.83C1319.41 529.39 1318.59 529.17 1317.71 529.17C1316.83 529.17 1316.01 529.39 1315.25 529.83C1314.49 530.25 1313.87 530.88 1313.39 531.72C1312.93 532.54 1312.7 533.52 1312.7 534.66C1312.7 535.8 1312.93 536.8 1313.39 537.66C1313.87 538.52 1314.49 539.18 1315.25 539.64C1316.03 540.08 1316.85 540.3 1317.71 540.3C1318.59 540.3 1319.41 540.08 1320.17 539.64C1320.93 539.2 1321.54 538.56 1322 537.72C1322.48 536.86 1322.72 535.86 1322.72 534.72ZM1332.04 543.21C1331.42 543.21 1330.9 543 1330.48 542.58C1330.06 542.16 1329.85 541.64 1329.85 541.02C1329.85 540.4 1330.06 539.88 1330.48 539.46C1330.9 539.04 1331.42 538.83 1332.04 538.83C1332.64 538.83 1333.15 539.04 1333.57 539.46C1333.99 539.88 1334.2 540.4 1334.2 541.02C1334.2 541.64 1333.99 542.16 1333.57 542.58C1333.15 543 1332.64 543.21 1332.04 543.21ZM1344.98 534.63L1350.32 543H1346.45L1342.88 537.39L1339.52 543H1335.95L1341.29 534.87L1335.95 526.47H1339.82L1343.39 532.08L1346.75 526.47H1350.32L1344.98 534.63ZM1367.75 526.47L1357.61 550.77H1354.07L1357.43 542.73L1350.92 526.47H1354.73L1359.38 539.07L1364.21 526.47H1367.75ZM1373.36 540.21H1380.86V543H1369.4V540.21L1376.93 529.26H1369.4V526.47H1380.86V529.26L1373.36 540.21Z" fill="#110F1F"/>
<rect x="2" y="2" width="1598" height="996" rx="23" stroke="#C4BFF2" stroke-width="4"/>
<defs>
<filter id="filter0_b_602_110" x="238" y="269" width="716.014" height="712.455" filterUnits="userSpaceOnUse" color-interpolation-filters="sRGB">
<feFlood flood-opacity="0" result="BackgroundImageFix"/>
<feGaussianBlur in="BackgroundImage" stdDeviation="50"/>
<feComposite in2="SourceAlpha" operator="in" result="effect1_backgroundBlur_602_110"/>
<feBlend mode="normal" in="SourceGraphic" in2="effect1_backgroundBlur_602_110" result="shape"/>
</filter>
<filter id="filter1_b_602_110" x="870" y="269" width="716.014" height="712.455" filterUnits="userSpaceOnUse" color-interpolation-filters="sRGB">
<feFlood flood-opacity="0" result="BackgroundImageFix"/>
<feGaussianBlur in="BackgroundImage" stdDeviation="50"/>
<feComposite in2="SourceAlpha" operator="in" result="effect1_backgroundBlur_602_110"/>
<feBlend mode="normal" in="SourceGraphic" in2="effect1_backgroundBlur_602_110" result="shape"/>
</filter>
</defs>
</svg>
