<svg width="1602" height="1000" viewBox="0 0 1602 1000" fill="none" xmlns="http://www.w3.org/2000/svg">
<rect x="2" y="2" width="1598" height="996" rx="23" fill="#F8F9FC"/>
<circle cx="942" cy="265" r="197" fill="#FF3C3C" fill-opacity="0.87"/>
<path d="M104.904 138L94.664 120.208H89.096V138H81.8V93.52H97.16C100.573 93.52 103.453 94.1173 105.8 95.312C108.189 96.5067 109.96 98.1067 111.112 100.112C112.307 102.117 112.904 104.357 112.904 106.832C112.904 109.733 112.051 112.379 110.344 114.768C108.68 117.115 106.099 118.715 102.6 119.568L113.608 138H104.904ZM89.096 114.384H97.16C99.8907 114.384 101.939 113.701 103.304 112.336C104.712 110.971 105.416 109.136 105.416 106.832C105.416 104.528 104.733 102.736 103.368 101.456C102.003 100.133 99.9333 99.472 97.16 99.472H89.096V114.384ZM137.534 138.576C134.206 138.576 131.198 137.829 128.51 136.336C125.822 134.8 123.71 132.667 122.174 129.936C120.638 127.163 119.87 123.963 119.87 120.336C119.87 116.752 120.659 113.573 122.238 110.8C123.816 108.027 125.971 105.893 128.702 104.4C131.432 102.907 134.483 102.16 137.854 102.16C141.224 102.16 144.275 102.907 147.006 104.4C149.736 105.893 151.891 108.027 153.47 110.8C155.048 113.573 155.838 116.752 155.838 120.336C155.838 123.92 155.027 127.099 153.406 129.872C151.784 132.645 149.566 134.8 146.75 136.336C143.976 137.829 140.904 138.576 137.534 138.576ZM137.534 132.24C139.411 132.24 141.16 131.792 142.782 130.896C144.446 130 145.79 128.656 146.814 126.864C147.838 125.072 148.35 122.896 148.35 120.336C148.35 117.776 147.859 115.621 146.878 113.872C145.896 112.08 144.595 110.736 142.974 109.84C141.352 108.944 139.603 108.496 137.726 108.496C135.848 108.496 134.099 108.944 132.478 109.84C130.899 110.736 129.64 112.08 128.702 113.872C127.763 115.621 127.294 117.776 127.294 120.336C127.294 124.133 128.254 127.077 130.174 129.168C132.136 131.216 134.59 132.24 137.534 132.24ZM194.986 102.736V138H187.69V133.84C186.538 135.291 185.023 136.443 183.146 137.296C181.311 138.107 179.349 138.512 177.258 138.512C174.485 138.512 171.989 137.936 169.77 136.784C167.594 135.632 165.866 133.925 164.586 131.664C163.349 129.403 162.73 126.672 162.73 123.472V102.736H169.962V122.384C169.962 125.541 170.751 127.973 172.33 129.68C173.909 131.344 176.063 132.176 178.794 132.176C181.525 132.176 183.679 131.344 185.258 129.68C186.879 127.973 187.69 125.541 187.69 122.384V102.736H194.986ZM222.405 102.16C225.178 102.16 227.653 102.736 229.829 103.888C232.047 105.04 233.775 106.747 235.013 109.008C236.25 111.269 236.869 114 236.869 117.2V138H229.637V118.288C229.637 115.131 228.847 112.72 227.269 111.056C225.69 109.349 223.535 108.496 220.805 108.496C218.074 108.496 215.898 109.349 214.277 111.056C212.698 112.72 211.909 115.131 211.909 118.288V138H204.613V102.736H211.909V106.768C213.103 105.317 214.618 104.187 216.453 103.376C218.33 102.565 220.314 102.16 222.405 102.16ZM243.743 120.208C243.743 116.667 244.468 113.531 245.919 110.8C247.412 108.069 249.418 105.957 251.935 104.464C254.495 102.928 257.332 102.16 260.447 102.16C262.751 102.16 265.012 102.672 267.231 103.696C269.492 104.677 271.284 106 272.607 107.664V90.64H279.967V138H272.607V132.688C271.412 134.395 269.748 135.803 267.615 136.912C265.524 138.021 263.114 138.576 260.383 138.576C257.311 138.576 254.495 137.808 251.935 136.272C249.418 134.693 247.412 132.517 245.919 129.744C244.468 126.928 243.743 123.749 243.743 120.208ZM272.607 120.336C272.607 117.904 272.095 115.792 271.071 114C270.09 112.208 268.788 110.843 267.167 109.904C265.546 108.965 263.796 108.496 261.919 108.496C260.042 108.496 258.292 108.965 256.671 109.904C255.05 110.8 253.727 112.144 252.703 113.936C251.722 115.685 251.231 117.776 251.231 120.208C251.231 122.64 251.722 124.773 252.703 126.608C253.727 128.443 255.05 129.851 256.671 130.832C258.335 131.771 260.084 132.24 261.919 132.24C263.796 132.24 265.546 131.771 267.167 130.832C268.788 129.893 270.09 128.528 271.071 126.736C272.095 124.901 272.607 122.768 272.607 120.336ZM334.911 93.52V99.472H323.071V138H315.775V99.472H303.871V93.52H334.911ZM339.868 120.208C339.868 116.667 340.593 113.531 342.044 110.8C343.537 108.069 345.543 105.957 348.06 104.464C350.62 102.928 353.436 102.16 356.508 102.16C359.281 102.16 361.692 102.715 363.74 103.824C365.831 104.891 367.495 106.235 368.732 107.856V102.736H376.092V138H368.732V132.752C367.495 134.416 365.809 135.803 363.676 136.912C361.543 138.021 359.111 138.576 356.38 138.576C353.351 138.576 350.577 137.808 348.06 136.272C345.543 134.693 343.537 132.517 342.044 129.744C340.593 126.928 339.868 123.749 339.868 120.208ZM368.732 120.336C368.732 117.904 368.22 115.792 367.196 114C366.215 112.208 364.913 110.843 363.292 109.904C361.671 108.965 359.921 108.496 358.044 108.496C356.167 108.496 354.417 108.965 352.796 109.904C351.175 110.8 349.852 112.144 348.828 113.936C347.847 115.685 347.356 117.776 347.356 120.208C347.356 122.64 347.847 124.773 348.828 126.608C349.852 128.443 351.175 129.851 352.796 130.832C354.46 131.771 356.209 132.24 358.044 132.24C359.921 132.24 361.671 131.771 363.292 130.832C364.913 129.893 366.215 128.528 367.196 126.736C368.22 124.901 368.732 122.768 368.732 120.336ZM392.971 107.984C394.208 106.277 395.894 104.891 398.027 103.824C400.203 102.715 402.614 102.16 405.259 102.16C408.374 102.16 411.19 102.907 413.707 104.4C416.224 105.893 418.208 108.027 419.659 110.8C421.11 113.531 421.835 116.667 421.835 120.208C421.835 123.749 421.11 126.928 419.659 129.744C418.208 132.517 416.203 134.693 413.643 136.272C411.126 137.808 408.331 138.576 405.259 138.576C402.528 138.576 400.096 138.043 397.963 136.976C395.872 135.909 394.208 134.544 392.971 132.88V138H385.675V90.64H392.971V107.984ZM414.411 120.208C414.411 117.776 413.899 115.685 412.875 113.936C411.894 112.144 410.571 110.8 408.907 109.904C407.286 108.965 405.536 108.496 403.659 108.496C401.824 108.496 400.075 108.965 398.411 109.904C396.79 110.843 395.467 112.208 394.443 114C393.462 115.792 392.971 117.904 392.971 120.336C392.971 122.768 393.462 124.901 394.443 126.736C395.467 128.528 396.79 129.893 398.411 130.832C400.075 131.771 401.824 132.24 403.659 132.24C405.536 132.24 407.286 131.771 408.907 130.832C410.571 129.851 411.894 128.443 412.875 126.608C413.899 124.773 414.411 122.64 414.411 120.208ZM436.346 90.64V138H429.05V90.64H436.346ZM478.245 119.504C478.245 120.827 478.16 122.021 477.989 123.088H451.045C451.258 125.904 452.304 128.165 454.181 129.872C456.058 131.579 458.362 132.432 461.093 132.432C465.018 132.432 467.792 130.789 469.413 127.504H477.285C476.218 130.747 474.277 133.413 471.461 135.504C468.688 137.552 465.232 138.576 461.093 138.576C457.722 138.576 454.693 137.829 452.005 136.336C449.36 134.8 447.269 132.667 445.733 129.936C444.24 127.163 443.493 123.963 443.493 120.336C443.493 116.709 444.218 113.531 445.669 110.8C447.162 108.027 449.232 105.893 451.877 104.4C454.565 102.907 457.637 102.16 461.093 102.16C464.421 102.16 467.386 102.885 469.989 104.336C472.592 105.787 474.618 107.835 476.069 110.48C477.52 113.083 478.245 116.091 478.245 119.504ZM470.629 117.2C470.586 114.512 469.626 112.357 467.749 110.736C465.872 109.115 463.546 108.304 460.773 108.304C458.256 108.304 456.101 109.115 454.309 110.736C452.517 112.315 451.45 114.469 451.109 117.2H470.629Z" fill="#110F1F"/>
<path d="M147.368 210.32V227H144.632V215.576L139.544 227H137.648L132.536 215.576V227H129.8V210.32H132.752L138.608 223.4L144.44 210.32H147.368ZM150.052 220.328C150.052 219 150.324 217.824 150.868 216.8C151.428 215.776 152.18 214.984 153.124 214.424C154.084 213.848 155.14 213.56 156.292 213.56C157.332 213.56 158.236 213.768 159.004 214.184C159.788 214.584 160.412 215.088 160.876 215.696V213.776H163.636V227H160.876V225.032C160.412 225.656 159.78 226.176 158.98 226.592C158.18 227.008 157.268 227.216 156.244 227.216C155.108 227.216 154.068 226.928 153.124 226.352C152.18 225.76 151.428 224.944 150.868 223.904C150.324 222.848 150.052 221.656 150.052 220.328ZM160.876 220.376C160.876 219.464 160.684 218.672 160.3 218C159.932 217.328 159.444 216.816 158.836 216.464C158.228 216.112 157.572 215.936 156.868 215.936C156.164 215.936 155.508 216.112 154.9 216.464C154.292 216.8 153.796 217.304 153.412 217.976C153.044 218.632 152.86 219.416 152.86 220.328C152.86 221.24 153.044 222.04 153.412 222.728C153.796 223.416 154.292 223.944 154.9 224.312C155.524 224.664 156.18 224.84 156.868 224.84C157.572 224.84 158.228 224.664 158.836 224.312C159.444 223.96 159.932 223.448 160.3 222.776C160.684 222.088 160.876 221.288 160.876 220.376ZM173.902 213.56C174.942 213.56 175.87 213.776 176.686 214.208C177.518 214.64 178.166 215.28 178.63 216.128C179.094 216.976 179.326 218 179.326 219.2V227H176.614V219.608C176.614 218.424 176.318 217.52 175.726 216.896C175.134 216.256 174.326 215.936 173.302 215.936C172.278 215.936 171.462 216.256 170.854 216.896C170.262 217.52 169.966 218.424 169.966 219.608V227H167.23V213.776H169.966V215.288C170.414 214.744 170.982 214.32 171.67 214.016C172.374 213.712 173.118 213.56 173.902 213.56ZM181.904 220.328C181.904 219 182.176 217.824 182.72 216.8C183.28 215.776 184.032 214.984 184.976 214.424C185.936 213.848 186.992 213.56 188.144 213.56C189.184 213.56 190.088 213.768 190.856 214.184C191.64 214.584 192.264 215.088 192.728 215.696V213.776H195.488V227H192.728V225.032C192.264 225.656 191.632 226.176 190.832 226.592C190.032 227.008 189.12 227.216 188.096 227.216C186.96 227.216 185.92 226.928 184.976 226.352C184.032 225.76 183.28 224.944 182.72 223.904C182.176 222.848 181.904 221.656 181.904 220.328ZM192.728 220.376C192.728 219.464 192.536 218.672 192.152 218C191.784 217.328 191.296 216.816 190.688 216.464C190.08 216.112 189.424 215.936 188.72 215.936C188.016 215.936 187.36 216.112 186.752 216.464C186.144 216.8 185.648 217.304 185.264 217.976C184.896 218.632 184.712 219.416 184.712 220.328C184.712 221.24 184.896 222.04 185.264 222.728C185.648 223.416 186.144 223.944 186.752 224.312C187.376 224.664 188.032 224.84 188.72 224.84C189.424 224.84 190.08 224.664 190.688 224.312C191.296 223.96 191.784 223.448 192.152 222.776C192.536 222.088 192.728 221.288 192.728 220.376ZM204.409 213.56C205.433 213.56 206.337 213.768 207.121 214.184C207.921 214.584 208.545 215.088 208.993 215.696V213.776H211.753V227.216C211.753 228.432 211.497 229.512 210.985 230.456C210.473 231.416 209.729 232.168 208.753 232.712C207.793 233.256 206.641 233.528 205.297 233.528C203.505 233.528 202.017 233.104 200.833 232.256C199.649 231.424 198.977 230.288 198.817 228.848H201.529C201.737 229.536 202.177 230.088 202.849 230.504C203.537 230.936 204.353 231.152 205.297 231.152C206.401 231.152 207.289 230.816 207.961 230.144C208.649 229.472 208.993 228.496 208.993 227.216V225.008C208.529 225.632 207.897 226.16 207.097 226.592C206.313 227.008 205.417 227.216 204.409 227.216C203.257 227.216 202.201 226.928 201.241 226.352C200.297 225.76 199.545 224.944 198.985 223.904C198.441 222.848 198.169 221.656 198.169 220.328C198.169 219 198.441 217.824 198.985 216.8C199.545 215.776 200.297 214.984 201.241 214.424C202.201 213.848 203.257 213.56 204.409 213.56ZM208.993 220.376C208.993 219.464 208.801 218.672 208.417 218C208.049 217.328 207.561 216.816 206.953 216.464C206.345 216.112 205.689 215.936 204.985 215.936C204.281 215.936 203.625 216.112 203.017 216.464C202.409 216.8 201.913 217.304 201.529 217.976C201.161 218.632 200.977 219.416 200.977 220.328C200.977 221.24 201.161 222.04 201.529 222.728C201.913 223.416 202.409 223.944 203.017 224.312C203.641 224.664 204.297 224.84 204.985 224.84C205.689 224.84 206.345 224.664 206.953 224.312C207.561 223.96 208.049 223.448 208.417 222.776C208.801 222.088 208.993 221.288 208.993 220.376ZM227.467 220.064C227.467 220.56 227.435 221.008 227.371 221.408H217.267C217.347 222.464 217.739 223.312 218.443 223.952C219.147 224.592 220.011 224.912 221.035 224.912C222.507 224.912 223.547 224.296 224.155 223.064H227.107C226.707 224.28 225.979 225.28 224.923 226.064C223.883 226.832 222.587 227.216 221.035 227.216C219.771 227.216 218.635 226.936 217.627 226.376C216.635 225.8 215.851 225 215.275 223.976C214.715 222.936 214.435 221.736 214.435 220.376C214.435 219.016 214.707 217.824 215.251 216.8C215.811 215.76 216.587 214.96 217.579 214.4C218.587 213.84 219.739 213.56 221.035 213.56C222.283 213.56 223.395 213.832 224.371 214.376C225.347 214.92 226.107 215.688 226.651 216.68C227.195 217.656 227.467 218.784 227.467 220.064ZM224.611 219.2C224.595 218.192 224.235 217.384 223.531 216.776C222.827 216.168 221.955 215.864 220.915 215.864C219.971 215.864 219.163 216.168 218.491 216.776C217.819 217.368 217.419 218.176 217.291 219.2H224.611ZM232.895 215.696C233.295 215.024 233.823 214.504 234.479 214.136C235.151 213.752 235.943 213.56 236.855 213.56V216.392H236.159C235.087 216.392 234.271 216.664 233.711 217.208C233.167 217.752 232.895 218.696 232.895 220.04V227H230.159V213.776H232.895V215.696Z" fill="#110F1F"/>
<path d="M147.368 270.32V287H144.632V275.576L139.544 287H137.648L132.536 275.576V287H129.8V270.32H132.752L138.608 283.4L144.44 270.32H147.368ZM163.084 280.064C163.084 280.56 163.052 281.008 162.988 281.408H152.884C152.964 282.464 153.356 283.312 154.06 283.952C154.764 284.592 155.628 284.912 156.652 284.912C158.124 284.912 159.164 284.296 159.772 283.064H162.724C162.324 284.28 161.596 285.28 160.54 286.064C159.5 286.832 158.204 287.216 156.652 287.216C155.388 287.216 154.252 286.936 153.244 286.376C152.252 285.8 151.468 285 150.892 283.976C150.332 282.936 150.052 281.736 150.052 280.376C150.052 279.016 150.324 277.824 150.868 276.8C151.428 275.76 152.204 274.96 153.196 274.4C154.204 273.84 155.356 273.56 156.652 273.56C157.9 273.56 159.012 273.832 159.988 274.376C160.964 274.92 161.724 275.688 162.268 276.68C162.812 277.656 163.084 278.784 163.084 280.064ZM160.228 279.2C160.212 278.192 159.852 277.384 159.148 276.776C158.444 276.168 157.572 275.864 156.532 275.864C155.588 275.864 154.78 276.168 154.108 276.776C153.436 277.368 153.036 278.176 152.908 279.2H160.228ZM181.785 273.56C182.825 273.56 183.753 273.776 184.569 274.208C185.401 274.64 186.049 275.28 186.513 276.128C186.993 276.976 187.233 278 187.233 279.2V287H184.521V279.608C184.521 278.424 184.225 277.52 183.633 276.896C183.041 276.256 182.233 275.936 181.209 275.936C180.185 275.936 179.369 276.256 178.761 276.896C178.169 277.52 177.873 278.424 177.873 279.608V287H175.161V279.608C175.161 278.424 174.865 277.52 174.273 276.896C173.681 276.256 172.873 275.936 171.849 275.936C170.825 275.936 170.009 276.256 169.401 276.896C168.809 277.52 168.513 278.424 168.513 279.608V287H165.777V273.776H168.513V275.288C168.961 274.744 169.529 274.32 170.217 274.016C170.905 273.712 171.641 273.56 172.425 273.56C173.481 273.56 174.425 273.784 175.257 274.232C176.089 274.68 176.729 275.328 177.177 276.176C177.577 275.376 178.201 274.744 179.049 274.28C179.897 273.8 180.809 273.56 181.785 273.56ZM193.45 275.744C193.914 275.104 194.546 274.584 195.346 274.184C196.162 273.768 197.066 273.56 198.058 273.56C199.226 273.56 200.282 273.84 201.226 274.4C202.17 274.96 202.914 275.76 203.458 276.8C204.002 277.824 204.274 279 204.274 280.328C204.274 281.656 204.002 282.848 203.458 283.904C202.914 284.944 202.162 285.76 201.202 286.352C200.258 286.928 199.21 287.216 198.058 287.216C197.034 287.216 196.122 287.016 195.322 286.616C194.538 286.216 193.914 285.704 193.45 285.08V287H190.714V269.24H193.45V275.744ZM201.49 280.328C201.49 279.416 201.298 278.632 200.914 277.976C200.546 277.304 200.05 276.8 199.426 276.464C198.818 276.112 198.162 275.936 197.458 275.936C196.77 275.936 196.114 276.112 195.49 276.464C194.882 276.816 194.386 277.328 194.002 278C193.634 278.672 193.45 279.464 193.45 280.376C193.45 281.288 193.634 282.088 194.002 282.776C194.386 283.448 194.882 283.96 195.49 284.312C196.114 284.664 196.77 284.84 197.458 284.84C198.162 284.84 198.818 284.664 199.426 284.312C200.05 283.944 200.546 283.416 200.914 282.728C201.298 282.04 201.49 281.24 201.49 280.328ZM219.1 280.064C219.1 280.56 219.068 281.008 219.004 281.408H208.9C208.98 282.464 209.372 283.312 210.076 283.952C210.78 284.592 211.644 284.912 212.668 284.912C214.14 284.912 215.18 284.296 215.788 283.064H218.74C218.34 284.28 217.612 285.28 216.556 286.064C215.516 286.832 214.22 287.216 212.668 287.216C211.404 287.216 210.268 286.936 209.26 286.376C208.268 285.8 207.484 285 206.908 283.976C206.348 282.936 206.068 281.736 206.068 280.376C206.068 279.016 206.34 277.824 206.884 276.8C207.444 275.76 208.22 274.96 209.212 274.4C210.22 273.84 211.372 273.56 212.668 273.56C213.916 273.56 215.028 273.832 216.004 274.376C216.98 274.92 217.74 275.688 218.284 276.68C218.828 277.656 219.1 278.784 219.1 280.064ZM216.244 279.2C216.228 278.192 215.868 277.384 215.164 276.776C214.46 276.168 213.588 275.864 212.548 275.864C211.604 275.864 210.796 276.168 210.124 276.776C209.452 277.368 209.052 278.176 208.924 279.2H216.244ZM224.528 275.696C224.928 275.024 225.456 274.504 226.112 274.136C226.784 273.752 227.576 273.56 228.488 273.56V276.392H227.792C226.72 276.392 225.904 276.664 225.344 277.208C224.8 277.752 224.528 278.696 224.528 280.04V287H221.792V273.776H224.528V275.696Z" fill="#110F1F"/>
<path d="M141.464 327.288C141.464 328.136 141.264 328.936 140.864 329.688C140.464 330.44 139.824 331.056 138.944 331.536C138.064 332 136.936 332.232 135.56 332.232H132.536V339H129.8V322.32H135.56C136.84 322.32 137.92 322.544 138.8 322.992C139.696 323.424 140.36 324.016 140.792 324.768C141.24 325.52 141.464 326.36 141.464 327.288ZM135.56 330C136.6 330 137.376 329.768 137.888 329.304C138.4 328.824 138.656 328.152 138.656 327.288C138.656 325.464 137.624 324.552 135.56 324.552H132.536V330H135.56ZM149.809 339.216C148.561 339.216 147.433 338.936 146.425 338.376C145.417 337.8 144.625 337 144.049 335.976C143.473 334.936 143.185 333.736 143.185 332.376C143.185 331.032 143.481 329.84 144.073 328.8C144.665 327.76 145.473 326.96 146.497 326.4C147.521 325.84 148.665 325.56 149.929 325.56C151.193 325.56 152.337 325.84 153.361 326.4C154.385 326.96 155.193 327.76 155.785 328.8C156.377 329.84 156.673 331.032 156.673 332.376C156.673 333.72 156.369 334.912 155.761 335.952C155.153 336.992 154.321 337.8 153.265 338.376C152.225 338.936 151.073 339.216 149.809 339.216ZM149.809 336.84C150.513 336.84 151.169 336.672 151.777 336.336C152.401 336 152.905 335.496 153.289 334.824C153.673 334.152 153.865 333.336 153.865 332.376C153.865 331.416 153.681 330.608 153.313 329.952C152.945 329.28 152.457 328.776 151.849 328.44C151.241 328.104 150.585 327.936 149.881 327.936C149.177 327.936 148.521 328.104 147.913 328.44C147.321 328.776 146.849 329.28 146.497 329.952C146.145 330.608 145.969 331.416 145.969 332.376C145.969 333.8 146.329 334.904 147.049 335.688C147.785 336.456 148.705 336.84 149.809 336.84ZM158.466 332.328C158.466 331 158.738 329.824 159.282 328.8C159.842 327.776 160.594 326.984 161.538 326.424C162.498 325.848 163.562 325.56 164.73 325.56C165.594 325.56 166.442 325.752 167.274 326.136C168.122 326.504 168.794 327 169.29 327.624V321.24H172.05V339H169.29V337.008C168.842 337.648 168.218 338.176 167.418 338.592C166.634 339.008 165.73 339.216 164.706 339.216C163.554 339.216 162.498 338.928 161.538 338.352C160.594 337.76 159.842 336.944 159.282 335.904C158.738 334.848 158.466 333.656 158.466 332.328ZM169.29 332.376C169.29 331.464 169.098 330.672 168.714 330C168.346 329.328 167.858 328.816 167.25 328.464C166.642 328.112 165.986 327.936 165.282 327.936C164.578 327.936 163.922 328.112 163.314 328.464C162.706 328.8 162.21 329.304 161.826 329.976C161.458 330.632 161.274 331.416 161.274 332.328C161.274 333.24 161.458 334.04 161.826 334.728C162.21 335.416 162.706 335.944 163.314 336.312C163.938 336.664 164.594 336.84 165.282 336.84C165.986 336.84 166.642 336.664 167.25 336.312C167.858 335.96 168.346 335.448 168.714 334.776C169.098 334.088 169.29 333.288 169.29 332.376ZM183.27 324.024C182.774 324.024 182.358 323.856 182.022 323.52C181.686 323.184 181.518 322.768 181.518 322.272C181.518 321.776 181.686 321.36 182.022 321.024C182.358 320.688 182.774 320.52 183.27 320.52C183.75 320.52 184.158 320.688 184.494 321.024C184.83 321.36 184.998 321.776 184.998 322.272C184.998 322.768 184.83 323.184 184.494 323.52C184.158 323.856 183.75 324.024 183.27 324.024ZM184.614 325.776V339H181.878V325.776H184.614ZM194.878 325.56C195.918 325.56 196.846 325.776 197.662 326.208C198.494 326.64 199.142 327.28 199.606 328.128C200.07 328.976 200.302 330 200.302 331.2V339H197.59V331.608C197.59 330.424 197.294 329.52 196.702 328.896C196.11 328.256 195.302 327.936 194.278 327.936C193.254 327.936 192.438 328.256 191.83 328.896C191.238 329.52 190.942 330.424 190.942 331.608V339H188.206V325.776H190.942V327.288C191.39 326.744 191.958 326.32 192.646 326.016C193.35 325.712 194.094 325.56 194.878 325.56ZM209.115 332.328C209.115 331 209.387 329.824 209.931 328.8C210.491 327.776 211.243 326.984 212.187 326.424C213.147 325.848 214.203 325.56 215.355 325.56C216.395 325.56 217.299 325.768 218.067 326.184C218.851 326.584 219.475 327.088 219.939 327.696V325.776H222.699V339H219.939V337.032C219.475 337.656 218.843 338.176 218.043 338.592C217.243 339.008 216.331 339.216 215.307 339.216C214.171 339.216 213.131 338.928 212.187 338.352C211.243 337.76 210.491 336.944 209.931 335.904C209.387 334.848 209.115 333.656 209.115 332.328ZM219.939 332.376C219.939 331.464 219.747 330.672 219.363 330C218.995 329.328 218.507 328.816 217.899 328.464C217.291 328.112 216.635 327.936 215.931 327.936C215.227 327.936 214.571 328.112 213.963 328.464C213.355 328.8 212.859 329.304 212.475 329.976C212.107 330.632 211.923 331.416 211.923 332.328C211.923 333.24 212.107 334.04 212.475 334.728C212.859 335.416 213.355 335.944 213.963 336.312C214.587 336.664 215.243 336.84 215.931 336.84C216.635 336.84 217.291 336.664 217.899 336.312C218.507 335.96 218.995 335.448 219.363 334.776C219.747 334.088 219.939 333.288 219.939 332.376ZM235.263 327.72C235.727 327.112 236.359 326.6 237.159 326.184C237.959 325.768 238.863 325.56 239.871 325.56C241.023 325.56 242.071 325.848 243.015 326.424C243.975 326.984 244.727 327.776 245.271 328.8C245.815 329.824 246.087 331 246.087 332.328C246.087 333.656 245.815 334.848 245.271 335.904C244.727 336.944 243.975 337.76 243.015 338.352C242.071 338.928 241.023 339.216 239.871 339.216C238.863 339.216 237.967 339.016 237.183 338.616C236.399 338.2 235.759 337.688 235.263 337.08V345.288H232.527V325.776H235.263V327.72ZM243.303 332.328C243.303 331.416 243.111 330.632 242.727 329.976C242.359 329.304 241.863 328.8 241.239 328.464C240.631 328.112 239.975 327.936 239.271 327.936C238.583 327.936 237.927 328.112 237.303 328.464C236.695 328.816 236.199 329.328 235.815 330C235.447 330.672 235.263 331.464 235.263 332.376C235.263 333.288 235.447 334.088 235.815 334.776C236.199 335.448 236.695 335.96 237.303 336.312C237.927 336.664 238.583 336.84 239.271 336.84C239.975 336.84 240.631 336.664 241.239 336.312C241.863 335.944 242.359 335.416 242.727 334.728C243.111 334.04 243.303 333.24 243.303 332.328ZM254.528 339.216C253.28 339.216 252.152 338.936 251.144 338.376C250.136 337.8 249.344 337 248.768 335.976C248.192 334.936 247.904 333.736 247.904 332.376C247.904 331.032 248.2 329.84 248.792 328.8C249.384 327.76 250.192 326.96 251.216 326.4C252.24 325.84 253.384 325.56 254.648 325.56C255.912 325.56 257.056 325.84 258.08 326.4C259.104 326.96 259.912 327.76 260.504 328.8C261.096 329.84 261.392 331.032 261.392 332.376C261.392 333.72 261.088 334.912 260.48 335.952C259.872 336.992 259.04 337.8 257.984 338.376C256.944 338.936 255.792 339.216 254.528 339.216ZM254.528 336.84C255.232 336.84 255.888 336.672 256.496 336.336C257.12 336 257.624 335.496 258.008 334.824C258.392 334.152 258.584 333.336 258.584 332.376C258.584 331.416 258.4 330.608 258.032 329.952C257.664 329.28 257.176 328.776 256.568 328.44C255.96 328.104 255.304 327.936 254.6 327.936C253.896 327.936 253.24 328.104 252.632 328.44C252.04 328.776 251.568 329.28 251.216 329.952C250.864 330.608 250.688 331.416 250.688 332.376C250.688 333.8 251.048 334.904 251.768 335.688C252.504 336.456 253.424 336.84 254.528 336.84ZM263.185 332.328C263.185 331 263.457 329.824 264.001 328.8C264.561 327.776 265.313 326.984 266.257 326.424C267.217 325.848 268.281 325.56 269.449 325.56C270.313 325.56 271.161 325.752 271.993 326.136C272.841 326.504 273.513 327 274.009 327.624V321.24H276.769V339H274.009V337.008C273.561 337.648 272.937 338.176 272.137 338.592C271.353 339.008 270.449 339.216 269.425 339.216C268.273 339.216 267.217 338.928 266.257 338.352C265.313 337.76 264.561 336.944 264.001 335.904C263.457 334.848 263.185 333.656 263.185 332.328ZM274.009 332.376C274.009 331.464 273.817 330.672 273.433 330C273.065 329.328 272.577 328.816 271.969 328.464C271.361 328.112 270.705 327.936 270.001 327.936C269.297 327.936 268.641 328.112 268.033 328.464C267.425 328.8 266.929 329.304 266.545 329.976C266.177 330.632 265.993 331.416 265.993 332.328C265.993 333.24 266.177 334.04 266.545 334.728C266.929 335.416 267.425 335.944 268.033 336.312C268.657 336.664 269.313 336.84 270.001 336.84C270.705 336.84 271.361 336.664 271.969 336.312C272.577 335.96 273.065 335.448 273.433 334.776C273.817 334.088 274.009 333.288 274.009 332.376Z" fill="#110F1F"/>
<circle cx="91" cy="222" r="14" fill="#4535D8"/>
<circle cx="91" cy="279" r="14" fill="#B79EFD"/>
<circle cx="91" cy="331" r="14" fill="#CAE7CF"/>
<g filter="url(#filter0_b_808_7)">
<path d="M679 279.228C679 137.717 795.496 23 937.007 23V23C1078.52 23 1195.01 137.717 1195.01 279.228V279.228C1195.01 420.738 1078.52 535.455 937.007 535.455V535.455C795.496 535.455 679 420.738 679 279.228V279.228Z" fill="#FBFCFE"/>
<path d="M937.007 534.455C796.04 534.455 680 420.177 680 279.228C680 138.278 796.04 24 937.007 24C1077.97 24 1194.01 138.278 1194.01 279.228C1194.01 420.177 1077.97 534.455 937.007 534.455Z" stroke="#C4BFF2" stroke-width="2"/>
</g>
<circle cx="757" cy="305" r="25.5" fill="#C4BFF2" stroke="#EBEAFB"/>
<circle cx="785" cy="383" r="25.5" fill="#C4BFF2" stroke="#EBEAFB"/>
<circle cx="944" cy="461" r="25.5" fill="#C4BFF2" stroke="#EBEAFB"/>
<circle cx="1038" cy="435" r="25.5" fill="#CAE7CF" stroke="#EBEAFB"/>
<circle cx="1091" cy="368" r="25.5" fill="#C4BFF2" stroke="#EBEAFB"/>
<circle cx="1112" cy="286" r="25.5" fill="#C4BFF2" stroke="#EBEAFB"/>
<path d="M828.67 149.9C829.25 149.14 830.04 148.5 831.04 147.98C832.04 147.46 833.17 147.2 834.43 147.2C835.87 147.2 837.18 147.56 838.36 148.28C839.56 148.98 840.5 149.97 841.18 151.25C841.86 152.53 842.2 154 842.2 155.66C842.2 157.32 841.86 158.81 841.18 160.13C840.5 161.43 839.56 162.45 838.36 163.19C837.18 163.91 835.87 164.27 834.43 164.27C833.17 164.27 832.05 164.02 831.07 163.52C830.09 163 829.29 162.36 828.67 161.6V171.86H825.25V147.47H828.67V149.9ZM838.72 155.66C838.72 154.52 838.48 153.54 838 152.72C837.54 151.88 836.92 151.25 836.14 150.83C835.38 150.39 834.56 150.17 833.68 150.17C832.82 150.17 832 150.39 831.22 150.83C830.46 151.27 829.84 151.91 829.36 152.75C828.9 153.59 828.67 154.58 828.67 155.72C828.67 156.86 828.9 157.86 829.36 158.72C829.84 159.56 830.46 160.2 831.22 160.64C832 161.08 832.82 161.3 833.68 161.3C834.56 161.3 835.38 161.08 836.14 160.64C836.92 160.18 837.54 159.52 838 158.66C838.48 157.8 838.72 156.8 838.72 155.66ZM849.002 149.87C849.502 149.03 850.162 148.38 850.982 147.92C851.822 147.44 852.812 147.2 853.952 147.2V150.74H853.082C851.742 150.74 850.722 151.08 850.022 151.76C849.342 152.44 849.002 153.62 849.002 155.3V164H845.582V147.47H849.002V149.87ZM864.266 164.27C862.706 164.27 861.296 163.92 860.036 163.22C858.776 162.5 857.786 161.5 857.066 160.22C856.346 158.92 855.986 157.42 855.986 155.72C855.986 154.04 856.356 152.55 857.096 151.25C857.836 149.95 858.846 148.95 860.126 148.25C861.406 147.55 862.836 147.2 864.416 147.2C865.996 147.2 867.426 147.55 868.706 148.25C869.986 148.95 870.996 149.95 871.736 151.25C872.476 152.55 872.846 154.04 872.846 155.72C872.846 157.4 872.466 158.89 871.706 160.19C870.946 161.49 869.906 162.5 868.586 163.22C867.286 163.92 865.846 164.27 864.266 164.27ZM864.266 161.3C865.146 161.3 865.966 161.09 866.726 160.67C867.506 160.25 868.136 159.62 868.616 158.78C869.096 157.94 869.336 156.92 869.336 155.72C869.336 154.52 869.106 153.51 868.646 152.69C868.186 151.85 867.576 151.22 866.816 150.8C866.056 150.38 865.236 150.17 864.356 150.17C863.476 150.17 862.656 150.38 861.896 150.8C861.156 151.22 860.566 151.85 860.126 152.69C859.686 153.51 859.466 154.52 859.466 155.72C859.466 157.5 859.916 158.88 860.816 159.86C861.736 160.82 862.886 161.3 864.266 161.3ZM877.967 145.28C877.347 145.28 876.827 145.07 876.407 144.65C875.987 144.23 875.777 143.71 875.777 143.09C875.777 142.47 875.987 141.95 876.407 141.53C876.827 141.11 877.347 140.9 877.967 140.9C878.567 140.9 879.077 141.11 879.497 141.53C879.917 141.95 880.127 142.47 880.127 143.09C880.127 143.71 879.917 144.23 879.497 144.65C879.077 145.07 878.567 145.28 877.967 145.28ZM879.647 167.24C879.647 168.86 879.237 170.03 878.417 170.75C877.617 171.49 876.447 171.86 874.907 171.86H873.137V168.98H874.307C875.007 168.98 875.497 168.84 875.777 168.56C876.077 168.3 876.227 167.86 876.227 167.24V147.47H879.647V167.24ZM899.287 155.33C899.287 155.95 899.247 156.51 899.167 157.01H886.537C886.637 158.33 887.127 159.39 888.007 160.19C888.887 160.99 889.967 161.39 891.247 161.39C893.087 161.39 894.387 160.62 895.147 159.08H898.837C898.337 160.6 897.427 161.85 896.107 162.83C894.807 163.79 893.187 164.27 891.247 164.27C889.667 164.27 888.247 163.92 886.987 163.22C885.747 162.5 884.767 161.5 884.047 160.22C883.347 158.92 882.997 157.42 882.997 155.72C882.997 154.02 883.337 152.53 884.017 151.25C884.717 149.95 885.687 148.95 886.927 148.25C888.187 147.55 889.627 147.2 891.247 147.2C892.807 147.2 894.197 147.54 895.417 148.22C896.637 148.9 897.587 149.86 898.267 151.1C898.947 152.32 899.287 153.73 899.287 155.33ZM895.717 154.25C895.697 152.99 895.247 151.98 894.367 151.22C893.487 150.46 892.397 150.08 891.097 150.08C889.917 150.08 888.907 150.46 888.067 151.22C887.227 151.96 886.727 152.97 886.567 154.25H895.717ZM901.512 155.72C901.512 154.02 901.852 152.53 902.532 151.25C903.232 149.95 904.192 148.95 905.412 148.25C906.632 147.55 908.032 147.2 909.612 147.2C911.612 147.2 913.262 147.68 914.562 148.64C915.882 149.58 916.772 150.93 917.232 152.69H913.542C913.242 151.87 912.762 151.23 912.102 150.77C911.442 150.31 910.612 150.08 909.612 150.08C908.212 150.08 907.092 150.58 906.252 151.58C905.432 152.56 905.022 153.94 905.022 155.72C905.022 157.5 905.432 158.89 906.252 159.89C907.092 160.89 908.212 161.39 909.612 161.39C911.592 161.39 912.902 160.52 913.542 158.78H917.232C916.752 160.46 915.852 161.8 914.532 162.8C913.212 163.78 911.572 164.27 909.612 164.27C908.032 164.27 906.632 163.92 905.412 163.22C904.192 162.5 903.232 161.5 902.532 160.22C901.852 158.92 901.512 157.42 901.512 155.72ZM924.631 150.26V159.41C924.631 160.03 924.771 160.48 925.051 160.76C925.351 161.02 925.851 161.15 926.551 161.15H928.651V164H925.951C924.411 164 923.231 163.64 922.411 162.92C921.591 162.2 921.181 161.03 921.181 159.41V150.26H919.231V147.47H921.181V143.36H924.631V147.47H928.651V150.26H924.631ZM933.183 164.21C932.563 164.21 932.043 164 931.623 163.58C931.203 163.16 930.993 162.64 930.993 162.02C930.993 161.4 931.203 160.88 931.623 160.46C932.043 160.04 932.563 159.83 933.183 159.83C933.783 159.83 934.293 160.04 934.713 160.46C935.133 160.88 935.343 161.4 935.343 162.02C935.343 162.64 935.133 163.16 934.713 163.58C934.293 164 933.783 164.21 933.183 164.21ZM942.459 149.9C943.039 149.14 943.829 148.5 944.829 147.98C945.829 147.46 946.959 147.2 948.219 147.2C949.659 147.2 950.969 147.56 952.149 148.28C953.349 148.98 954.289 149.97 954.969 151.25C955.649 152.53 955.989 154 955.989 155.66C955.989 157.32 955.649 158.81 954.969 160.13C954.289 161.43 953.349 162.45 952.149 163.19C950.969 163.91 949.659 164.27 948.219 164.27C946.959 164.27 945.839 164.02 944.859 163.52C943.879 163 943.079 162.36 942.459 161.6V171.86H939.039V147.47H942.459V149.9ZM952.509 155.66C952.509 154.52 952.269 153.54 951.789 152.72C951.329 151.88 950.709 151.25 949.929 150.83C949.169 150.39 948.349 150.17 947.469 150.17C946.609 150.17 945.789 150.39 945.009 150.83C944.249 151.27 943.629 151.91 943.149 152.75C942.689 153.59 942.459 154.58 942.459 155.72C942.459 156.86 942.689 157.86 943.149 158.72C943.629 159.56 944.249 160.2 945.009 160.64C945.789 161.08 946.609 161.3 947.469 161.3C948.349 161.3 949.169 161.08 949.929 160.64C950.709 160.18 951.329 159.52 951.789 158.66C952.269 157.8 952.509 156.8 952.509 155.66ZM966.541 164.27C964.981 164.27 963.571 163.92 962.311 163.22C961.051 162.5 960.061 161.5 959.341 160.22C958.621 158.92 958.261 157.42 958.261 155.72C958.261 154.04 958.631 152.55 959.371 151.25C960.111 149.95 961.121 148.95 962.401 148.25C963.681 147.55 965.111 147.2 966.691 147.2C968.271 147.2 969.701 147.55 970.981 148.25C972.261 148.95 973.271 149.95 974.011 151.25C974.751 152.55 975.121 154.04 975.121 155.72C975.121 157.4 974.741 158.89 973.981 160.19C973.221 161.49 972.181 162.5 970.861 163.22C969.561 163.92 968.121 164.27 966.541 164.27ZM966.541 161.3C967.421 161.3 968.241 161.09 969.001 160.67C969.781 160.25 970.411 159.62 970.891 158.78C971.371 157.94 971.611 156.92 971.611 155.72C971.611 154.52 971.381 153.51 970.921 152.69C970.461 151.85 969.851 151.22 969.091 150.8C968.331 150.38 967.511 150.17 966.631 150.17C965.751 150.17 964.931 150.38 964.171 150.8C963.431 151.22 962.841 151.85 962.401 152.69C961.961 153.51 961.741 154.52 961.741 155.72C961.741 157.5 962.191 158.88 963.091 159.86C964.011 160.82 965.161 161.3 966.541 161.3ZM977.362 155.66C977.362 154 977.702 152.53 978.382 151.25C979.082 149.97 980.022 148.98 981.202 148.28C982.402 147.56 983.732 147.2 985.192 147.2C986.272 147.2 987.332 147.44 988.372 147.92C989.432 148.38 990.272 149 990.892 149.78V141.8H994.342V164H990.892V161.51C990.332 162.31 989.552 162.97 988.552 163.49C987.572 164.01 986.442 164.27 985.162 164.27C983.722 164.27 982.402 163.91 981.202 163.19C980.022 162.45 979.082 161.43 978.382 160.13C977.702 158.81 977.362 157.32 977.362 155.66ZM990.892 155.72C990.892 154.58 990.652 153.59 990.172 152.75C989.712 151.91 989.102 151.27 988.342 150.83C987.582 150.39 986.762 150.17 985.882 150.17C985.002 150.17 984.182 150.39 983.422 150.83C982.662 151.25 982.042 151.88 981.562 152.72C981.102 153.54 980.872 154.52 980.872 155.66C980.872 156.8 981.102 157.8 981.562 158.66C982.042 159.52 982.662 160.18 983.422 160.64C984.202 161.08 985.022 161.3 985.882 161.3C986.762 161.3 987.582 161.08 988.342 160.64C989.102 160.2 989.712 159.56 990.172 158.72C990.652 157.86 990.892 156.86 990.892 155.72ZM1000.21 164.21C999.594 164.21 999.074 164 998.654 163.58C998.234 163.16 998.024 162.64 998.024 162.02C998.024 161.4 998.234 160.88 998.654 160.46C999.074 160.04 999.594 159.83 1000.21 159.83C1000.81 159.83 1001.32 160.04 1001.74 160.46C1002.16 160.88 1002.37 161.4 1002.37 162.02C1002.37 162.64 1002.16 163.16 1001.74 163.58C1001.32 164 1000.81 164.21 1000.21 164.21ZM1013.15 155.63L1018.49 164H1014.62L1011.05 158.39L1007.69 164H1004.12L1009.46 155.87L1004.12 147.47H1007.99L1011.56 153.08L1014.92 147.47H1018.49L1013.15 155.63ZM1035.92 147.47L1025.78 171.77H1022.24L1025.6 163.73L1019.09 147.47H1022.9L1027.55 160.07L1032.38 147.47H1035.92ZM1041.53 161.21H1049.03V164H1037.57V161.21L1045.1 150.26H1037.57V147.47H1049.03V150.26L1041.53 161.21Z" fill="#110F1F"/>
<circle cx="849" cy="442" r="26" fill="#CAE7CF"/>
<line x1="1049.27" y1="454.041" x2="1149.27" y2="570.041" stroke="#CAE7CF" stroke-width="6"/>
<line x1="834.14" y1="461.102" x2="723.14" y2="574.102" stroke="#CAE7CF" stroke-width="6"/>
<g filter="url(#filter1_b_808_7)">
<path d="M280 724.228C280 582.717 396.496 468 538.007 468V468C679.517 468 796.014 582.717 796.014 724.228V724.228C796.014 865.738 679.517 980.455 538.007 980.455V980.455C396.496 980.455 280 865.738 280 724.228V724.228Z" fill="#FBFCFE"/>
<path d="M538.007 979.455C397.04 979.455 281 865.177 281 724.228C281 583.278 397.04 469 538.007 469C678.974 469 795.014 583.278 795.014 724.228C795.014 865.177 678.974 979.455 538.007 979.455Z" stroke="#C4BFF2" stroke-width="2"/>
</g>
<circle cx="358" cy="750" r="25.5" fill="#C4BFF2" stroke="#EBEAFB"/>
<circle cx="386" cy="828" r="25.5" fill="#C4BFF2" stroke="#EBEAFB"/>
<circle cx="450" cy="887" r="25.5" fill="#C4BFF2" stroke="#EBEAFB"/>
<circle cx="545" cy="906" r="25.5" fill="#C4BFF2" stroke="#EBEAFB"/>
<circle cx="639" cy="880" r="25.5" fill="#C4BFF2" stroke="#EBEAFB"/>
<circle cx="692" cy="813" r="25.5" fill="#C4BFF2" stroke="#EBEAFB"/>
<circle cx="713" cy="731" r="25.5" fill="#C4BFF2" stroke="#EBEAFB"/>
<path d="M396.67 595.9C397.25 595.14 398.04 594.5 399.04 593.98C400.04 593.46 401.17 593.2 402.43 593.2C403.87 593.2 405.18 593.56 406.36 594.28C407.56 594.98 408.5 595.97 409.18 597.25C409.86 598.53 410.2 600 410.2 601.66C410.2 603.32 409.86 604.81 409.18 606.13C408.5 607.43 407.56 608.45 406.36 609.19C405.18 609.91 403.87 610.27 402.43 610.27C401.17 610.27 400.05 610.02 399.07 609.52C398.09 609 397.29 608.36 396.67 607.6V617.86H393.25V593.47H396.67V595.9ZM406.72 601.66C406.72 600.52 406.48 599.54 406 598.72C405.54 597.88 404.92 597.25 404.14 596.83C403.38 596.39 402.56 596.17 401.68 596.17C400.82 596.17 400 596.39 399.22 596.83C398.46 597.27 397.84 597.91 397.36 598.75C396.9 599.59 396.67 600.58 396.67 601.72C396.67 602.86 396.9 603.86 397.36 604.72C397.84 605.56 398.46 606.2 399.22 606.64C400 607.08 400.82 607.3 401.68 607.3C402.56 607.3 403.38 607.08 404.14 606.64C404.92 606.18 405.54 605.52 406 604.66C406.48 603.8 406.72 602.8 406.72 601.66ZM417.002 595.87C417.502 595.03 418.162 594.38 418.982 593.92C419.822 593.44 420.812 593.2 421.952 593.2V596.74H421.082C419.742 596.74 418.722 597.08 418.022 597.76C417.342 598.44 417.002 599.62 417.002 601.3V610H413.582V593.47H417.002V595.87ZM432.266 610.27C430.706 610.27 429.296 609.92 428.036 609.22C426.776 608.5 425.786 607.5 425.066 606.22C424.346 604.92 423.986 603.42 423.986 601.72C423.986 600.04 424.356 598.55 425.096 597.25C425.836 595.95 426.846 594.95 428.126 594.25C429.406 593.55 430.836 593.2 432.416 593.2C433.996 593.2 435.426 593.55 436.706 594.25C437.986 594.95 438.996 595.95 439.736 597.25C440.476 598.55 440.846 600.04 440.846 601.72C440.846 603.4 440.466 604.89 439.706 606.19C438.946 607.49 437.906 608.5 436.586 609.22C435.286 609.92 433.846 610.27 432.266 610.27ZM432.266 607.3C433.146 607.3 433.966 607.09 434.726 606.67C435.506 606.25 436.136 605.62 436.616 604.78C437.096 603.94 437.336 602.92 437.336 601.72C437.336 600.52 437.106 599.51 436.646 598.69C436.186 597.85 435.576 597.22 434.816 596.8C434.056 596.38 433.236 596.17 432.356 596.17C431.476 596.17 430.656 596.38 429.896 596.8C429.156 597.22 428.566 597.85 428.126 598.69C427.686 599.51 427.466 600.52 427.466 601.72C427.466 603.5 427.916 604.88 428.816 605.86C429.736 606.82 430.886 607.3 432.266 607.3ZM445.967 591.28C445.347 591.28 444.827 591.07 444.407 590.65C443.987 590.23 443.777 589.71 443.777 589.09C443.777 588.47 443.987 587.95 444.407 587.53C444.827 587.11 445.347 586.9 445.967 586.9C446.567 586.9 447.077 587.11 447.497 587.53C447.917 587.95 448.127 588.47 448.127 589.09C448.127 589.71 447.917 590.23 447.497 590.65C447.077 591.07 446.567 591.28 445.967 591.28ZM447.647 613.24C447.647 614.86 447.237 616.03 446.417 616.75C445.617 617.49 444.447 617.86 442.907 617.86H441.137V614.98H442.307C443.007 614.98 443.497 614.84 443.777 614.56C444.077 614.3 444.227 613.86 444.227 613.24V593.47H447.647V613.24ZM467.287 601.33C467.287 601.95 467.247 602.51 467.167 603.01H454.537C454.637 604.33 455.127 605.39 456.007 606.19C456.887 606.99 457.967 607.39 459.247 607.39C461.087 607.39 462.387 606.62 463.147 605.08H466.837C466.337 606.6 465.427 607.85 464.107 608.83C462.807 609.79 461.187 610.27 459.247 610.27C457.667 610.27 456.247 609.92 454.987 609.22C453.747 608.5 452.767 607.5 452.047 606.22C451.347 604.92 450.997 603.42 450.997 601.72C450.997 600.02 451.337 598.53 452.017 597.25C452.717 595.95 453.687 594.95 454.927 594.25C456.187 593.55 457.627 593.2 459.247 593.2C460.807 593.2 462.197 593.54 463.417 594.22C464.637 594.9 465.587 595.86 466.267 597.1C466.947 598.32 467.287 599.73 467.287 601.33ZM463.717 600.25C463.697 598.99 463.247 597.98 462.367 597.22C461.487 596.46 460.397 596.08 459.097 596.08C457.917 596.08 456.907 596.46 456.067 597.22C455.227 597.96 454.727 598.97 454.567 600.25H463.717ZM469.512 601.72C469.512 600.02 469.852 598.53 470.532 597.25C471.232 595.95 472.192 594.95 473.412 594.25C474.632 593.55 476.032 593.2 477.612 593.2C479.612 593.2 481.262 593.68 482.562 594.64C483.882 595.58 484.772 596.93 485.232 598.69H481.542C481.242 597.87 480.762 597.23 480.102 596.77C479.442 596.31 478.612 596.08 477.612 596.08C476.212 596.08 475.092 596.58 474.252 597.58C473.432 598.56 473.022 599.94 473.022 601.72C473.022 603.5 473.432 604.89 474.252 605.89C475.092 606.89 476.212 607.39 477.612 607.39C479.592 607.39 480.902 606.52 481.542 604.78H485.232C484.752 606.46 483.852 607.8 482.532 608.8C481.212 609.78 479.572 610.27 477.612 610.27C476.032 610.27 474.632 609.92 473.412 609.22C472.192 608.5 471.232 607.5 470.532 606.22C469.852 604.92 469.512 603.42 469.512 601.72ZM492.631 596.26V605.41C492.631 606.03 492.771 606.48 493.051 606.76C493.351 607.02 493.851 607.15 494.551 607.15H496.651V610H493.951C492.411 610 491.231 609.64 490.411 608.92C489.591 608.2 489.181 607.03 489.181 605.41V596.26H487.231V593.47H489.181V589.36H492.631V593.47H496.651V596.26H492.631ZM512.493 597.7V600.58H500.163V597.7H512.493ZM516.212 601.66C516.212 600 516.552 598.53 517.232 597.25C517.932 595.97 518.872 594.98 520.052 594.28C521.252 593.56 522.582 593.2 524.042 593.2C525.122 593.2 526.182 593.44 527.222 593.92C528.282 594.38 529.122 595 529.742 595.78V587.8H533.192V610H529.742V607.51C529.182 608.31 528.402 608.97 527.402 609.49C526.422 610.01 525.292 610.27 524.012 610.27C522.572 610.27 521.252 609.91 520.052 609.19C518.872 608.45 517.932 607.43 517.232 606.13C516.552 604.81 516.212 603.32 516.212 601.66ZM529.742 601.72C529.742 600.58 529.502 599.59 529.022 598.75C528.562 597.91 527.952 597.27 527.192 596.83C526.432 596.39 525.612 596.17 524.732 596.17C523.852 596.17 523.032 596.39 522.272 596.83C521.512 597.25 520.892 597.88 520.412 598.72C519.952 599.54 519.722 600.52 519.722 601.66C519.722 602.8 519.952 603.8 520.412 604.66C520.892 605.52 521.512 606.18 522.272 606.64C523.052 607.08 523.872 607.3 524.732 607.3C525.612 607.3 526.432 607.08 527.192 606.64C527.952 606.2 528.562 605.56 529.022 604.72C529.502 603.86 529.742 602.86 529.742 601.72ZM552.834 601.33C552.834 601.95 552.794 602.51 552.714 603.01H540.084C540.184 604.33 540.674 605.39 541.554 606.19C542.434 606.99 543.514 607.39 544.794 607.39C546.634 607.39 547.934 606.62 548.694 605.08H552.384C551.884 606.6 550.974 607.85 549.654 608.83C548.354 609.79 546.734 610.27 544.794 610.27C543.214 610.27 541.794 609.92 540.534 609.22C539.294 608.5 538.314 607.5 537.594 606.22C536.894 604.92 536.544 603.42 536.544 601.72C536.544 600.02 536.884 598.53 537.564 597.25C538.264 595.95 539.234 594.95 540.474 594.25C541.734 593.55 543.174 593.2 544.794 593.2C546.354 593.2 547.744 593.54 548.964 594.22C550.184 594.9 551.134 595.86 551.814 597.1C552.494 598.32 552.834 599.73 552.834 601.33ZM549.264 600.25C549.244 598.99 548.794 597.98 547.914 597.22C547.034 596.46 545.944 596.08 544.644 596.08C543.464 596.08 542.454 596.46 541.614 597.22C540.774 597.96 540.274 598.97 540.114 600.25H549.264ZM562.589 606.94L567.269 593.47H570.899L564.599 610H560.519L554.249 593.47H557.909L562.589 606.94ZM574.864 610.21C574.244 610.21 573.724 610 573.304 609.58C572.884 609.16 572.674 608.64 572.674 608.02C572.674 607.4 572.884 606.88 573.304 606.46C573.724 606.04 574.244 605.83 574.864 605.83C575.464 605.83 575.974 606.04 576.394 606.46C576.814 606.88 577.024 607.4 577.024 608.02C577.024 608.64 576.814 609.16 576.394 609.58C575.974 610 575.464 610.21 574.864 610.21ZM584.141 595.9C584.721 595.14 585.511 594.5 586.511 593.98C587.511 593.46 588.641 593.2 589.901 593.2C591.341 593.2 592.651 593.56 593.831 594.28C595.031 594.98 595.971 595.97 596.651 597.25C597.331 598.53 597.671 600 597.671 601.66C597.671 603.32 597.331 604.81 596.651 606.13C595.971 607.43 595.031 608.45 593.831 609.19C592.651 609.91 591.341 610.27 589.901 610.27C588.641 610.27 587.521 610.02 586.541 609.52C585.561 609 584.761 608.36 584.141 607.6V617.86H580.721V593.47H584.141V595.9ZM594.191 601.66C594.191 600.52 593.951 599.54 593.471 598.72C593.011 597.88 592.391 597.25 591.611 596.83C590.851 596.39 590.031 596.17 589.151 596.17C588.291 596.17 587.471 596.39 586.691 596.83C585.931 597.27 585.311 597.91 584.831 598.75C584.371 599.59 584.141 600.58 584.141 601.72C584.141 602.86 584.371 603.86 584.831 604.72C585.311 605.56 585.931 606.2 586.691 606.64C587.471 607.08 588.291 607.3 589.151 607.3C590.031 607.3 590.851 607.08 591.611 606.64C592.391 606.18 593.011 605.52 593.471 604.66C593.951 603.8 594.191 602.8 594.191 601.66ZM608.223 610.27C606.663 610.27 605.253 609.92 603.993 609.22C602.733 608.5 601.743 607.5 601.023 606.22C600.303 604.92 599.943 603.42 599.943 601.72C599.943 600.04 600.313 598.55 601.053 597.25C601.793 595.95 602.803 594.95 604.083 594.25C605.363 593.55 606.793 593.2 608.373 593.2C609.953 593.2 611.383 593.55 612.663 594.25C613.943 594.95 614.953 595.95 615.693 597.25C616.433 598.55 616.803 600.04 616.803 601.72C616.803 603.4 616.423 604.89 615.663 606.19C614.903 607.49 613.863 608.5 612.543 609.22C611.243 609.92 609.803 610.27 608.223 610.27ZM608.223 607.3C609.103 607.3 609.923 607.09 610.683 606.67C611.463 606.25 612.093 605.62 612.573 604.78C613.053 603.94 613.293 602.92 613.293 601.72C613.293 600.52 613.063 599.51 612.603 598.69C612.143 597.85 611.533 597.22 610.773 596.8C610.013 596.38 609.193 596.17 608.313 596.17C607.433 596.17 606.613 596.38 605.853 596.8C605.113 597.22 604.523 597.85 604.083 598.69C603.643 599.51 603.423 600.52 603.423 601.72C603.423 603.5 603.873 604.88 604.773 605.86C605.693 606.82 606.843 607.3 608.223 607.3ZM619.044 601.66C619.044 600 619.384 598.53 620.064 597.25C620.764 595.97 621.704 594.98 622.884 594.28C624.084 593.56 625.414 593.2 626.874 593.2C627.954 593.2 629.014 593.44 630.054 593.92C631.114 594.38 631.954 595 632.574 595.78V587.8H636.024V610H632.574V607.51C632.014 608.31 631.234 608.97 630.234 609.49C629.254 610.01 628.124 610.27 626.844 610.27C625.404 610.27 624.084 609.91 622.884 609.19C621.704 608.45 620.764 607.43 620.064 606.13C619.384 604.81 619.044 603.32 619.044 601.66ZM632.574 601.72C632.574 600.58 632.334 599.59 631.854 598.75C631.394 597.91 630.784 597.27 630.024 596.83C629.264 596.39 628.444 596.17 627.564 596.17C626.684 596.17 625.864 596.39 625.104 596.83C624.344 597.25 623.724 597.88 623.244 598.72C622.784 599.54 622.554 600.52 622.554 601.66C622.554 602.8 622.784 603.8 623.244 604.66C623.724 605.52 624.344 606.18 625.104 606.64C625.884 607.08 626.704 607.3 627.564 607.3C628.444 607.3 629.264 607.08 630.024 606.64C630.784 606.2 631.394 605.56 631.854 604.72C632.334 603.86 632.574 602.86 632.574 601.72ZM641.896 610.21C641.276 610.21 640.756 610 640.336 609.58C639.916 609.16 639.706 608.64 639.706 608.02C639.706 607.4 639.916 606.88 640.336 606.46C640.756 606.04 641.276 605.83 641.896 605.83C642.496 605.83 643.006 606.04 643.426 606.46C643.846 606.88 644.056 607.4 644.056 608.02C644.056 608.64 643.846 609.16 643.426 609.58C643.006 610 642.496 610.21 641.896 610.21ZM654.832 601.63L660.172 610H656.302L652.732 604.39L649.372 610H645.802L651.142 601.87L645.802 593.47H649.672L653.242 599.08L656.602 593.47H660.172L654.832 601.63ZM677.603 593.47L667.463 617.77H663.923L667.283 609.73L660.773 593.47H664.583L669.233 606.07L674.063 593.47H677.603ZM683.214 607.21H690.714V610H679.254V607.21L686.784 596.26H679.254V593.47H690.714V596.26L683.214 607.21Z" fill="#110F1F"/>
<g filter="url(#filter2_b_808_7)">
<path d="M1073 724.228C1073 582.717 1189.5 468 1331.01 468V468C1472.52 468 1589.01 582.717 1589.01 724.228V724.228C1589.01 865.738 1472.52 980.455 1331.01 980.455V980.455C1189.5 980.455 1073 865.738 1073 724.228V724.228Z" fill="#FBFCFE"/>
<path d="M1331.01 979.455C1190.04 979.455 1074 865.177 1074 724.228C1074 583.278 1190.04 469 1331.01 469C1471.97 469 1588.01 583.278 1588.01 724.228C1588.01 865.177 1471.97 979.455 1331.01 979.455Z" stroke="#C4BFF2" stroke-width="2"/>
</g>
<circle cx="1151" cy="750" r="25.5" fill="#C4BFF2" stroke="#EBEAFB"/>
<circle cx="1179" cy="828" r="25.5" fill="#C4BFF2" stroke="#EBEAFB"/>
<circle cx="1243" cy="887" r="25.5" fill="#C4BFF2" stroke="#EBEAFB"/>
<circle cx="1338" cy="906" r="25.5" fill="#C4BFF2" stroke="#EBEAFB"/>
<circle cx="1432" cy="880" r="25.5" fill="#C4BFF2" stroke="#EBEAFB"/>
<circle cx="1485" cy="813" r="25.5" fill="#C4BFF2" stroke="#EBEAFB"/>
<circle cx="1506" cy="731" r="25.5" fill="#C4BFF2" stroke="#EBEAFB"/>
<path d="M1194.67 595.9C1195.25 595.14 1196.04 594.5 1197.04 593.98C1198.04 593.46 1199.17 593.2 1200.43 593.2C1201.87 593.2 1203.18 593.56 1204.36 594.28C1205.56 594.98 1206.5 595.97 1207.18 597.25C1207.86 598.53 1208.2 600 1208.2 601.66C1208.2 603.32 1207.86 604.81 1207.18 606.13C1206.5 607.43 1205.56 608.45 1204.36 609.19C1203.18 609.91 1201.87 610.27 1200.43 610.27C1199.17 610.27 1198.05 610.02 1197.07 609.52C1196.09 609 1195.29 608.36 1194.67 607.6V617.86H1191.25V593.47H1194.67V595.9ZM1204.72 601.66C1204.72 600.52 1204.48 599.54 1204 598.72C1203.54 597.88 1202.92 597.25 1202.14 596.83C1201.38 596.39 1200.56 596.17 1199.68 596.17C1198.82 596.17 1198 596.39 1197.22 596.83C1196.46 597.27 1195.84 597.91 1195.36 598.75C1194.9 599.59 1194.67 600.58 1194.67 601.72C1194.67 602.86 1194.9 603.86 1195.36 604.72C1195.84 605.56 1196.46 606.2 1197.22 606.64C1198 607.08 1198.82 607.3 1199.68 607.3C1200.56 607.3 1201.38 607.08 1202.14 606.64C1202.92 606.18 1203.54 605.52 1204 604.66C1204.48 603.8 1204.72 602.8 1204.72 601.66ZM1215 595.87C1215.5 595.03 1216.16 594.38 1216.98 593.92C1217.82 593.44 1218.81 593.2 1219.95 593.2V596.74H1219.08C1217.74 596.74 1216.72 597.08 1216.02 597.76C1215.34 598.44 1215 599.62 1215 601.3V610H1211.58V593.47H1215V595.87ZM1230.27 610.27C1228.71 610.27 1227.3 609.92 1226.04 609.22C1224.78 608.5 1223.79 607.5 1223.07 606.22C1222.35 604.92 1221.99 603.42 1221.99 601.72C1221.99 600.04 1222.36 598.55 1223.1 597.25C1223.84 595.95 1224.85 594.95 1226.13 594.25C1227.41 593.55 1228.84 593.2 1230.42 593.2C1232 593.2 1233.43 593.55 1234.71 594.25C1235.99 594.95 1237 595.95 1237.74 597.25C1238.48 598.55 1238.85 600.04 1238.85 601.72C1238.85 603.4 1238.47 604.89 1237.71 606.19C1236.95 607.49 1235.91 608.5 1234.59 609.22C1233.29 609.92 1231.85 610.27 1230.27 610.27ZM1230.27 607.3C1231.15 607.3 1231.97 607.09 1232.73 606.67C1233.51 606.25 1234.14 605.62 1234.62 604.78C1235.1 603.94 1235.34 602.92 1235.34 601.72C1235.34 600.52 1235.11 599.51 1234.65 598.69C1234.19 597.85 1233.58 597.22 1232.82 596.8C1232.06 596.38 1231.24 596.17 1230.36 596.17C1229.48 596.17 1228.66 596.38 1227.9 596.8C1227.16 597.22 1226.57 597.85 1226.13 598.69C1225.69 599.51 1225.47 600.52 1225.47 601.72C1225.47 603.5 1225.92 604.88 1226.82 605.86C1227.74 606.82 1228.89 607.3 1230.27 607.3ZM1243.97 591.28C1243.35 591.28 1242.83 591.07 1242.41 590.65C1241.99 590.23 1241.78 589.71 1241.78 589.09C1241.78 588.47 1241.99 587.95 1242.41 587.53C1242.83 587.11 1243.35 586.9 1243.97 586.9C1244.57 586.9 1245.08 587.11 1245.5 587.53C1245.92 587.95 1246.13 588.47 1246.13 589.09C1246.13 589.71 1245.92 590.23 1245.5 590.65C1245.08 591.07 1244.57 591.28 1243.97 591.28ZM1245.65 613.24C1245.65 614.86 1245.24 616.03 1244.42 616.75C1243.62 617.49 1242.45 617.86 1240.91 617.86H1239.14V614.98H1240.31C1241.01 614.98 1241.5 614.84 1241.78 614.56C1242.08 614.3 1242.23 613.86 1242.23 613.24V593.47H1245.65V613.24ZM1265.29 601.33C1265.29 601.95 1265.25 602.51 1265.17 603.01H1252.54C1252.64 604.33 1253.13 605.39 1254.01 606.19C1254.89 606.99 1255.97 607.39 1257.25 607.39C1259.09 607.39 1260.39 606.62 1261.15 605.08H1264.84C1264.34 606.6 1263.43 607.85 1262.11 608.83C1260.81 609.79 1259.19 610.27 1257.25 610.27C1255.67 610.27 1254.25 609.92 1252.99 609.22C1251.75 608.5 1250.77 607.5 1250.05 606.22C1249.35 604.92 1249 603.42 1249 601.72C1249 600.02 1249.34 598.53 1250.02 597.25C1250.72 595.95 1251.69 594.95 1252.93 594.25C1254.19 593.55 1255.63 593.2 1257.25 593.2C1258.81 593.2 1260.2 593.54 1261.42 594.22C1262.64 594.9 1263.59 595.86 1264.27 597.1C1264.95 598.32 1265.29 599.73 1265.29 601.33ZM1261.72 600.25C1261.7 598.99 1261.25 597.98 1260.37 597.22C1259.49 596.46 1258.4 596.08 1257.1 596.08C1255.92 596.08 1254.91 596.46 1254.07 597.22C1253.23 597.96 1252.73 598.97 1252.57 600.25H1261.72ZM1267.51 601.72C1267.51 600.02 1267.85 598.53 1268.53 597.25C1269.23 595.95 1270.19 594.95 1271.41 594.25C1272.63 593.55 1274.03 593.2 1275.61 593.2C1277.61 593.2 1279.26 593.68 1280.56 594.64C1281.88 595.58 1282.77 596.93 1283.23 598.69H1279.54C1279.24 597.87 1278.76 597.23 1278.1 596.77C1277.44 596.31 1276.61 596.08 1275.61 596.08C1274.21 596.08 1273.09 596.58 1272.25 597.58C1271.43 598.56 1271.02 599.94 1271.02 601.72C1271.02 603.5 1271.43 604.89 1272.25 605.89C1273.09 606.89 1274.21 607.39 1275.61 607.39C1277.59 607.39 1278.9 606.52 1279.54 604.78H1283.23C1282.75 606.46 1281.85 607.8 1280.53 608.8C1279.21 609.78 1277.57 610.27 1275.61 610.27C1274.03 610.27 1272.63 609.92 1271.41 609.22C1270.19 608.5 1269.23 607.5 1268.53 606.22C1267.85 604.92 1267.51 603.42 1267.51 601.72ZM1290.63 596.26V605.41C1290.63 606.03 1290.77 606.48 1291.05 606.76C1291.35 607.02 1291.85 607.15 1292.55 607.15H1294.65V610H1291.95C1290.41 610 1289.23 609.64 1288.41 608.92C1287.59 608.2 1287.18 607.03 1287.18 605.41V596.26H1285.23V593.47H1287.18V589.36H1290.63V593.47H1294.65V596.26H1290.63ZM1310.49 597.7V600.58H1298.16V597.7H1310.49ZM1335.36 593.2C1336.66 593.2 1337.82 593.47 1338.84 594.01C1339.88 594.55 1340.69 595.35 1341.27 596.41C1341.87 597.47 1342.17 598.75 1342.17 600.25V610H1338.78V600.76C1338.78 599.28 1338.41 598.15 1337.67 597.37C1336.93 596.57 1335.92 596.17 1334.64 596.17C1333.36 596.17 1332.34 596.57 1331.58 597.37C1330.84 598.15 1330.47 599.28 1330.47 600.76V610H1327.08V600.76C1327.08 599.28 1326.71 598.15 1325.97 597.37C1325.23 596.57 1324.22 596.17 1322.94 596.17C1321.66 596.17 1320.64 596.57 1319.88 597.37C1319.14 598.15 1318.77 599.28 1318.77 600.76V610H1315.35V593.47H1318.77V595.36C1319.33 594.68 1320.04 594.15 1320.9 593.77C1321.76 593.39 1322.68 593.2 1323.66 593.2C1324.98 593.2 1326.16 593.48 1327.2 594.04C1328.24 594.6 1329.04 595.41 1329.6 596.47C1330.1 595.47 1330.88 594.68 1331.94 594.1C1333 593.5 1334.14 593.2 1335.36 593.2ZM1353.06 601.75L1360.68 610H1356.06L1349.94 602.89V610H1346.52V587.8H1349.94V600.7L1355.94 593.47H1360.68L1353.06 601.75ZM1367.12 596.26V605.41C1367.12 606.03 1367.26 606.48 1367.54 606.76C1367.84 607.02 1368.34 607.15 1369.04 607.15H1371.14V610H1368.44C1366.9 610 1365.72 609.64 1364.9 608.92C1364.08 608.2 1363.67 607.03 1363.67 605.41V596.26H1361.72V593.47H1363.67V589.36H1367.12V593.47H1371.14V596.26H1367.12ZM1380.96 593.2C1382.24 593.2 1383.37 593.46 1384.35 593.98C1385.35 594.48 1386.13 595.11 1386.69 595.87V593.47H1390.14V610.27C1390.14 611.79 1389.82 613.14 1389.18 614.32C1388.54 615.52 1387.61 616.46 1386.39 617.14C1385.19 617.82 1383.75 618.16 1382.07 618.16C1379.83 618.16 1377.97 617.63 1376.49 616.57C1375.01 615.53 1374.17 614.11 1373.97 612.31H1377.36C1377.62 613.17 1378.17 613.86 1379.01 614.38C1379.87 614.92 1380.89 615.19 1382.07 615.19C1383.45 615.19 1384.56 614.77 1385.4 613.93C1386.26 613.09 1386.69 611.87 1386.69 610.27V607.51C1386.11 608.29 1385.32 608.95 1384.32 609.49C1383.34 610.01 1382.22 610.27 1380.96 610.27C1379.52 610.27 1378.2 609.91 1377 609.19C1375.82 608.45 1374.88 607.43 1374.18 606.13C1373.5 604.81 1373.16 603.32 1373.16 601.66C1373.16 600 1373.5 598.53 1374.18 597.25C1374.88 595.97 1375.82 594.98 1377 594.28C1378.2 593.56 1379.52 593.2 1380.96 593.2ZM1386.69 601.72C1386.69 600.58 1386.45 599.59 1385.97 598.75C1385.51 597.91 1384.9 597.27 1384.14 596.83C1383.38 596.39 1382.56 596.17 1381.68 596.17C1380.8 596.17 1379.98 596.39 1379.22 596.83C1378.46 597.25 1377.84 597.88 1377.36 598.72C1376.9 599.54 1376.67 600.52 1376.67 601.66C1376.67 602.8 1376.9 603.8 1377.36 604.66C1377.84 605.52 1378.46 606.18 1379.22 606.64C1380 607.08 1380.82 607.3 1381.68 607.3C1382.56 607.3 1383.38 607.08 1384.14 606.64C1384.9 606.2 1385.51 605.56 1385.97 604.72C1386.45 603.86 1386.69 602.86 1386.69 601.72ZM1396.01 610.21C1395.39 610.21 1394.87 610 1394.45 609.58C1394.03 609.16 1393.82 608.64 1393.82 608.02C1393.82 607.4 1394.03 606.88 1394.45 606.46C1394.87 606.04 1395.39 605.83 1396.01 605.83C1396.61 605.83 1397.12 606.04 1397.54 606.46C1397.96 606.88 1398.17 607.4 1398.17 608.02C1398.17 608.64 1397.96 609.16 1397.54 609.58C1397.12 610 1396.61 610.21 1396.01 610.21ZM1405.29 595.9C1405.87 595.14 1406.66 594.5 1407.66 593.98C1408.66 593.46 1409.79 593.2 1411.05 593.2C1412.49 593.2 1413.8 593.56 1414.98 594.28C1416.18 594.98 1417.12 595.97 1417.8 597.25C1418.48 598.53 1418.82 600 1418.82 601.66C1418.82 603.32 1418.48 604.81 1417.8 606.13C1417.12 607.43 1416.18 608.45 1414.98 609.19C1413.8 609.91 1412.49 610.27 1411.05 610.27C1409.79 610.27 1408.67 610.02 1407.69 609.52C1406.71 609 1405.91 608.36 1405.29 607.6V617.86H1401.87V593.47H1405.29V595.9ZM1415.34 601.66C1415.34 600.52 1415.1 599.54 1414.62 598.72C1414.16 597.88 1413.54 597.25 1412.76 596.83C1412 596.39 1411.18 596.17 1410.3 596.17C1409.44 596.17 1408.62 596.39 1407.84 596.83C1407.08 597.27 1406.46 597.91 1405.98 598.75C1405.52 599.59 1405.29 600.58 1405.29 601.72C1405.29 602.86 1405.52 603.86 1405.98 604.72C1406.46 605.56 1407.08 606.2 1407.84 606.64C1408.62 607.08 1409.44 607.3 1410.3 607.3C1411.18 607.3 1412 607.08 1412.76 606.64C1413.54 606.18 1414.16 605.52 1414.62 604.66C1415.1 603.8 1415.34 602.8 1415.34 601.66ZM1429.37 610.27C1427.81 610.27 1426.4 609.92 1425.14 609.22C1423.88 608.5 1422.89 607.5 1422.17 606.22C1421.45 604.92 1421.09 603.42 1421.09 601.72C1421.09 600.04 1421.46 598.55 1422.2 597.25C1422.94 595.95 1423.95 594.95 1425.23 594.25C1426.51 593.55 1427.94 593.2 1429.52 593.2C1431.1 593.2 1432.53 593.55 1433.81 594.25C1435.09 594.95 1436.1 595.95 1436.84 597.25C1437.58 598.55 1437.95 600.04 1437.95 601.72C1437.95 603.4 1437.57 604.89 1436.81 606.19C1436.05 607.49 1435.01 608.5 1433.69 609.22C1432.39 609.92 1430.95 610.27 1429.37 610.27ZM1429.37 607.3C1430.25 607.3 1431.07 607.09 1431.83 606.67C1432.61 606.25 1433.24 605.62 1433.72 604.78C1434.2 603.94 1434.44 602.92 1434.44 601.72C1434.44 600.52 1434.21 599.51 1433.75 598.69C1433.29 597.85 1432.68 597.22 1431.92 596.8C1431.16 596.38 1430.34 596.17 1429.46 596.17C1428.58 596.17 1427.76 596.38 1427 596.8C1426.26 597.22 1425.67 597.85 1425.23 598.69C1424.79 599.51 1424.57 600.52 1424.57 601.72C1424.57 603.5 1425.02 604.88 1425.92 605.86C1426.84 606.82 1427.99 607.3 1429.37 607.3ZM1440.19 601.66C1440.19 600 1440.53 598.53 1441.21 597.25C1441.91 595.97 1442.85 594.98 1444.03 594.28C1445.23 593.56 1446.56 593.2 1448.02 593.2C1449.1 593.2 1450.16 593.44 1451.2 593.92C1452.26 594.38 1453.1 595 1453.72 595.78V587.8H1457.17V610H1453.72V607.51C1453.16 608.31 1452.38 608.97 1451.38 609.49C1450.4 610.01 1449.27 610.27 1447.99 610.27C1446.55 610.27 1445.23 609.91 1444.03 609.19C1442.85 608.45 1441.91 607.43 1441.21 606.13C1440.53 604.81 1440.19 603.32 1440.19 601.66ZM1453.72 601.72C1453.72 600.58 1453.48 599.59 1453 598.75C1452.54 597.91 1451.93 597.27 1451.17 596.83C1450.41 596.39 1449.59 596.17 1448.71 596.17C1447.83 596.17 1447.01 596.39 1446.25 596.83C1445.49 597.25 1444.87 597.88 1444.39 598.72C1443.93 599.54 1443.7 600.52 1443.7 601.66C1443.7 602.8 1443.93 603.8 1444.39 604.66C1444.87 605.52 1445.49 606.18 1446.25 606.64C1447.03 607.08 1447.85 607.3 1448.71 607.3C1449.59 607.3 1450.41 607.08 1451.17 606.64C1451.93 606.2 1452.54 605.56 1453 604.72C1453.48 603.86 1453.72 602.86 1453.72 601.72ZM1463.04 610.21C1462.42 610.21 1461.9 610 1461.48 609.58C1461.06 609.16 1460.85 608.64 1460.85 608.02C1460.85 607.4 1461.06 606.88 1461.48 606.46C1461.9 606.04 1462.42 605.83 1463.04 605.83C1463.64 605.83 1464.15 606.04 1464.57 606.46C1464.99 606.88 1465.2 607.4 1465.2 608.02C1465.2 608.64 1464.99 609.16 1464.57 609.58C1464.15 610 1463.64 610.21 1463.04 610.21ZM1475.98 601.63L1481.32 610H1477.45L1473.88 604.39L1470.52 610H1466.95L1472.29 601.87L1466.95 593.47H1470.82L1474.39 599.08L1477.75 593.47H1481.32L1475.98 601.63ZM1498.75 593.47L1488.61 617.77H1485.07L1488.43 609.73L1481.92 593.47H1485.73L1490.38 606.07L1495.21 593.47H1498.75ZM1504.36 607.21H1511.86V610H1500.4V607.21L1507.93 596.26H1500.4V593.47H1511.86V596.26L1504.36 607.21Z" fill="#110F1F"/>
<rect x="2" y="2" width="1598" height="996" rx="23" stroke="#C4BFF2" stroke-width="4"/>
<defs>
<filter id="filter0_b_808_7" x="579" y="-77" width="716.014" height="712.455" filterUnits="userSpaceOnUse" color-interpolation-filters="sRGB">
<feFlood flood-opacity="0" result="BackgroundImageFix"/>
<feGaussianBlur in="BackgroundImage" stdDeviation="50"/>
<feComposite in2="SourceAlpha" operator="in" result="effect1_backgroundBlur_808_7"/>
<feBlend mode="normal" in="SourceGraphic" in2="effect1_backgroundBlur_808_7" result="shape"/>
</filter>
<filter id="filter1_b_808_7" x="180" y="368" width="716.014" height="712.455" filterUnits="userSpaceOnUse" color-interpolation-filters="sRGB">
<feFlood flood-opacity="0" result="BackgroundImageFix"/>
<feGaussianBlur in="BackgroundImage" stdDeviation="50"/>
<feComposite in2="SourceAlpha" operator="in" result="effect1_backgroundBlur_808_7"/>
<feBlend mode="normal" in="SourceGraphic" in2="effect1_backgroundBlur_808_7" result="shape"/>
</filter>
<filter id="filter2_b_808_7" x="973" y="368" width="716.014" height="712.455" filterUnits="userSpaceOnUse" color-interpolation-filters="sRGB">
<feFlood flood-opacity="0" result="BackgroundImageFix"/>
<feGaussianBlur in="BackgroundImage" stdDeviation="50"/>
<feComposite in2="SourceAlpha" operator="in" result="effect1_backgroundBlur_808_7"/>
<feBlend mode="normal" in="SourceGraphic" in2="effect1_backgroundBlur_808_7" result="shape"/>
</filter>
</defs>
</svg>
