<svg width="1602" height="1000" viewBox="0 0 1602 1000" fill="none" xmlns="http://www.w3.org/2000/svg">
<rect x="2" y="2" width="1598" height="996" rx="23" fill="#F8F9FC"/>
<path d="M889.5 314.5L724.096 461.147" stroke="#C4BFF2" stroke-width="6"/>
<line x1="1066.03" y1="304.794" x2="1219.03" y2="445.794" stroke="#C4BFF2" stroke-width="6"/>
<path d="M110.536 93.52V99.472H98.696V138H91.4V99.472H79.496V93.52H110.536ZM133.221 138.576C129.893 138.576 126.885 137.829 124.197 136.336C121.509 134.8 119.397 132.667 117.861 129.936C116.325 127.163 115.557 123.963 115.557 120.336C115.557 116.752 116.346 113.573 117.925 110.8C119.504 108.027 121.658 105.893 124.389 104.4C127.12 102.907 130.17 102.16 133.541 102.16C136.912 102.16 139.962 102.907 142.693 104.4C145.424 105.893 147.578 108.027 149.157 110.8C150.736 113.573 151.525 116.752 151.525 120.336C151.525 123.92 150.714 127.099 149.093 129.872C147.472 132.645 145.253 134.8 142.437 136.336C139.664 137.829 136.592 138.576 133.221 138.576ZM133.221 132.24C135.098 132.24 136.848 131.792 138.469 130.896C140.133 130 141.477 128.656 142.501 126.864C143.525 125.072 144.037 122.896 144.037 120.336C144.037 117.776 143.546 115.621 142.565 113.872C141.584 112.08 140.282 110.736 138.661 109.84C137.04 108.944 135.29 108.496 133.413 108.496C131.536 108.496 129.786 108.944 128.165 109.84C126.586 110.736 125.328 112.08 124.389 113.872C123.45 115.621 122.981 117.776 122.981 120.336C122.981 124.133 123.941 127.077 125.861 129.168C127.824 131.216 130.277 132.24 133.221 132.24ZM172.69 120.4L188.946 138H179.09L166.034 122.832V138H158.738V90.64H166.034V118.16L178.834 102.736H188.946L172.69 120.4ZM226.495 119.504C226.495 120.827 226.41 122.021 226.239 123.088H199.295C199.508 125.904 200.554 128.165 202.431 129.872C204.308 131.579 206.612 132.432 209.343 132.432C213.268 132.432 216.042 130.789 217.663 127.504H225.535C224.468 130.747 222.527 133.413 219.711 135.504C216.938 137.552 213.482 138.576 209.343 138.576C205.972 138.576 202.943 137.829 200.255 136.336C197.61 134.8 195.519 132.667 193.983 129.936C192.49 127.163 191.743 123.963 191.743 120.336C191.743 116.709 192.468 113.531 193.919 110.8C195.412 108.027 197.482 105.893 200.127 104.4C202.815 102.907 205.887 102.16 209.343 102.16C212.671 102.16 215.636 102.885 218.239 104.336C220.842 105.787 222.868 107.835 224.319 110.48C225.77 113.083 226.495 116.091 226.495 119.504ZM218.879 117.2C218.836 114.512 217.876 112.357 215.999 110.736C214.122 109.115 211.796 108.304 209.023 108.304C206.506 108.304 204.351 109.115 202.559 110.736C200.767 112.315 199.7 114.469 199.359 117.2H218.879ZM251.467 102.16C254.24 102.16 256.715 102.736 258.891 103.888C261.11 105.04 262.838 106.747 264.075 109.008C265.312 111.269 265.931 114 265.931 117.2V138H258.699V118.288C258.699 115.131 257.91 112.72 256.331 111.056C254.752 109.349 252.598 108.496 249.867 108.496C247.136 108.496 244.96 109.349 243.339 111.056C241.76 112.72 240.971 115.131 240.971 118.288V138H233.675V102.736H240.971V106.768C242.166 105.317 243.68 104.187 245.515 103.376C247.392 102.565 249.376 102.16 251.467 102.16ZM314.967 138L304.727 120.208H299.159V138H291.863V93.52H307.223C310.636 93.52 313.516 94.1173 315.863 95.312C318.252 96.5067 320.023 98.1067 321.175 100.112C322.369 102.117 322.967 104.357 322.967 106.832C322.967 109.733 322.113 112.379 320.407 114.768C318.743 117.115 316.161 118.715 312.663 119.568L323.671 138H314.967ZM299.159 114.384H307.223C309.953 114.384 312.001 113.701 313.367 112.336C314.775 110.971 315.479 109.136 315.479 106.832C315.479 104.528 314.796 102.736 313.431 101.456C312.065 100.133 309.996 99.472 307.223 99.472H299.159V114.384ZM364.62 119.504C364.62 120.827 364.535 122.021 364.364 123.088H337.42C337.633 125.904 338.679 128.165 340.556 129.872C342.433 131.579 344.737 132.432 347.468 132.432C351.393 132.432 354.167 130.789 355.788 127.504H363.66C362.593 130.747 360.652 133.413 357.836 135.504C355.063 137.552 351.607 138.576 347.468 138.576C344.097 138.576 341.068 137.829 338.38 136.336C335.735 134.8 333.644 132.667 332.108 129.936C330.615 127.163 329.868 123.963 329.868 120.336C329.868 116.709 330.593 113.531 332.044 110.8C333.537 108.027 335.607 105.893 338.252 104.4C340.94 102.907 344.012 102.16 347.468 102.16C350.796 102.16 353.761 102.885 356.364 104.336C358.967 105.787 360.993 107.835 362.444 110.48C363.895 113.083 364.62 116.091 364.62 119.504ZM357.004 117.2C356.961 114.512 356.001 112.357 354.124 110.736C352.247 109.115 349.921 108.304 347.148 108.304C344.631 108.304 342.476 109.115 340.684 110.736C338.892 112.315 337.825 114.469 337.484 117.2H357.004ZM379.096 107.92C380.333 106.299 382.019 104.933 384.152 103.824C386.285 102.715 388.696 102.16 391.384 102.16C394.456 102.16 397.251 102.928 399.768 104.464C402.328 105.957 404.333 108.069 405.784 110.8C407.235 113.531 407.96 116.667 407.96 120.208C407.96 123.749 407.235 126.928 405.784 129.744C404.333 132.517 402.328 134.693 399.768 136.272C397.251 137.808 394.456 138.576 391.384 138.576C388.696 138.576 386.307 138.043 384.216 136.976C382.125 135.867 380.419 134.501 379.096 132.88V154.768H371.8V102.736H379.096V107.92ZM400.536 120.208C400.536 117.776 400.024 115.685 399 113.936C398.019 112.144 396.696 110.8 395.032 109.904C393.411 108.965 391.661 108.496 389.784 108.496C387.949 108.496 386.2 108.965 384.536 109.904C382.915 110.843 381.592 112.208 380.568 114C379.587 115.792 379.096 117.904 379.096 120.336C379.096 122.768 379.587 124.901 380.568 126.736C381.592 128.528 382.915 129.893 384.536 130.832C386.2 131.771 387.949 132.24 389.784 132.24C391.661 132.24 393.411 131.771 395.032 130.832C396.696 129.851 398.019 128.443 399 126.608C400.024 124.773 400.536 122.64 400.536 120.208ZM447.111 102.736V138H439.815V133.84C438.663 135.291 437.148 136.443 435.271 137.296C433.436 138.107 431.474 138.512 429.383 138.512C426.61 138.512 424.114 137.936 421.895 136.784C419.719 135.632 417.991 133.925 416.711 131.664C415.474 129.403 414.855 126.672 414.855 123.472V102.736H422.087V122.384C422.087 125.541 422.876 127.973 424.455 129.68C426.034 131.344 428.188 132.176 430.919 132.176C433.65 132.176 435.804 131.344 437.383 129.68C439.004 127.973 439.815 125.541 439.815 122.384V102.736H447.111ZM464.034 107.984C465.271 106.277 466.956 104.891 469.09 103.824C471.266 102.715 473.676 102.16 476.322 102.16C479.436 102.16 482.252 102.907 484.77 104.4C487.287 105.893 489.271 108.027 490.722 110.8C492.172 113.531 492.898 116.667 492.898 120.208C492.898 123.749 492.172 126.928 490.722 129.744C489.271 132.517 487.266 134.693 484.706 136.272C482.188 137.808 479.394 138.576 476.322 138.576C473.591 138.576 471.159 138.043 469.026 136.976C466.935 135.909 465.271 134.544 464.034 132.88V138H456.738V90.64H464.034V107.984ZM485.474 120.208C485.474 117.776 484.962 115.685 483.938 113.936C482.956 112.144 481.634 110.8 479.97 109.904C478.348 108.965 476.599 108.496 474.722 108.496C472.887 108.496 471.138 108.965 469.474 109.904C467.852 110.843 466.53 112.208 465.506 114C464.524 115.792 464.034 117.904 464.034 120.336C464.034 122.768 464.524 124.901 465.506 126.736C466.53 128.528 467.852 129.893 469.474 130.832C471.138 131.771 472.887 132.24 474.722 132.24C476.599 132.24 478.348 131.771 479.97 130.832C481.634 129.851 482.956 128.443 483.938 126.608C484.962 124.773 485.474 122.64 485.474 120.208ZM507.409 90.64V138H500.113V90.64H507.409ZM520.7 98.064C519.377 98.064 518.268 97.616 517.372 96.72C516.476 95.824 516.028 94.7147 516.028 93.392C516.028 92.0693 516.476 90.96 517.372 90.064C518.268 89.168 519.377 88.72 520.7 88.72C521.98 88.72 523.068 89.168 523.964 90.064C524.86 90.96 525.308 92.0693 525.308 93.392C525.308 94.7147 524.86 95.824 523.964 96.72C523.068 97.616 521.98 98.064 520.7 98.064ZM524.284 102.736V138H516.988V102.736H524.284ZM531.431 120.336C531.431 116.709 532.156 113.531 533.607 110.8C535.1 108.027 537.148 105.893 539.751 104.4C542.353 102.907 545.34 102.16 548.711 102.16C552.977 102.16 556.497 103.184 559.271 105.232C562.087 107.237 563.985 110.117 564.967 113.872H557.095C556.455 112.123 555.431 110.757 554.023 109.776C552.615 108.795 550.844 108.304 548.711 108.304C545.724 108.304 543.335 109.371 541.543 111.504C539.793 113.595 538.919 116.539 538.919 120.336C538.919 124.133 539.793 127.099 541.543 129.232C543.335 131.365 545.724 132.432 548.711 132.432C552.935 132.432 555.729 130.576 557.095 126.864H564.967C563.943 130.448 562.023 133.307 559.207 135.44C556.391 137.531 552.892 138.576 548.711 138.576C545.34 138.576 542.353 137.829 539.751 136.336C537.148 134.8 535.1 132.667 533.607 129.936C532.156 127.163 531.431 123.963 531.431 120.336Z" fill="#110F1F"/>
<path d="M147.368 210.32V227H144.632V215.576L139.544 227H137.648L132.536 215.576V227H129.8V210.32H132.752L138.608 223.4L144.44 210.32H147.368ZM150.052 220.328C150.052 219 150.324 217.824 150.868 216.8C151.428 215.776 152.18 214.984 153.124 214.424C154.084 213.848 155.14 213.56 156.292 213.56C157.332 213.56 158.236 213.768 159.004 214.184C159.788 214.584 160.412 215.088 160.876 215.696V213.776H163.636V227H160.876V225.032C160.412 225.656 159.78 226.176 158.98 226.592C158.18 227.008 157.268 227.216 156.244 227.216C155.108 227.216 154.068 226.928 153.124 226.352C152.18 225.76 151.428 224.944 150.868 223.904C150.324 222.848 150.052 221.656 150.052 220.328ZM160.876 220.376C160.876 219.464 160.684 218.672 160.3 218C159.932 217.328 159.444 216.816 158.836 216.464C158.228 216.112 157.572 215.936 156.868 215.936C156.164 215.936 155.508 216.112 154.9 216.464C154.292 216.8 153.796 217.304 153.412 217.976C153.044 218.632 152.86 219.416 152.86 220.328C152.86 221.24 153.044 222.04 153.412 222.728C153.796 223.416 154.292 223.944 154.9 224.312C155.524 224.664 156.18 224.84 156.868 224.84C157.572 224.84 158.228 224.664 158.836 224.312C159.444 223.96 159.932 223.448 160.3 222.776C160.684 222.088 160.876 221.288 160.876 220.376ZM173.902 213.56C174.942 213.56 175.87 213.776 176.686 214.208C177.518 214.64 178.166 215.28 178.63 216.128C179.094 216.976 179.326 218 179.326 219.2V227H176.614V219.608C176.614 218.424 176.318 217.52 175.726 216.896C175.134 216.256 174.326 215.936 173.302 215.936C172.278 215.936 171.462 216.256 170.854 216.896C170.262 217.52 169.966 218.424 169.966 219.608V227H167.23V213.776H169.966V215.288C170.414 214.744 170.982 214.32 171.67 214.016C172.374 213.712 173.118 213.56 173.902 213.56ZM181.904 220.328C181.904 219 182.176 217.824 182.72 216.8C183.28 215.776 184.032 214.984 184.976 214.424C185.936 213.848 186.992 213.56 188.144 213.56C189.184 213.56 190.088 213.768 190.856 214.184C191.64 214.584 192.264 215.088 192.728 215.696V213.776H195.488V227H192.728V225.032C192.264 225.656 191.632 226.176 190.832 226.592C190.032 227.008 189.12 227.216 188.096 227.216C186.96 227.216 185.92 226.928 184.976 226.352C184.032 225.76 183.28 224.944 182.72 223.904C182.176 222.848 181.904 221.656 181.904 220.328ZM192.728 220.376C192.728 219.464 192.536 218.672 192.152 218C191.784 217.328 191.296 216.816 190.688 216.464C190.08 216.112 189.424 215.936 188.72 215.936C188.016 215.936 187.36 216.112 186.752 216.464C186.144 216.8 185.648 217.304 185.264 217.976C184.896 218.632 184.712 219.416 184.712 220.328C184.712 221.24 184.896 222.04 185.264 222.728C185.648 223.416 186.144 223.944 186.752 224.312C187.376 224.664 188.032 224.84 188.72 224.84C189.424 224.84 190.08 224.664 190.688 224.312C191.296 223.96 191.784 223.448 192.152 222.776C192.536 222.088 192.728 221.288 192.728 220.376ZM204.409 213.56C205.433 213.56 206.337 213.768 207.121 214.184C207.921 214.584 208.545 215.088 208.993 215.696V213.776H211.753V227.216C211.753 228.432 211.497 229.512 210.985 230.456C210.473 231.416 209.729 232.168 208.753 232.712C207.793 233.256 206.641 233.528 205.297 233.528C203.505 233.528 202.017 233.104 200.833 232.256C199.649 231.424 198.977 230.288 198.817 228.848H201.529C201.737 229.536 202.177 230.088 202.849 230.504C203.537 230.936 204.353 231.152 205.297 231.152C206.401 231.152 207.289 230.816 207.961 230.144C208.649 229.472 208.993 228.496 208.993 227.216V225.008C208.529 225.632 207.897 226.16 207.097 226.592C206.313 227.008 205.417 227.216 204.409 227.216C203.257 227.216 202.201 226.928 201.241 226.352C200.297 225.76 199.545 224.944 198.985 223.904C198.441 222.848 198.169 221.656 198.169 220.328C198.169 219 198.441 217.824 198.985 216.8C199.545 215.776 200.297 214.984 201.241 214.424C202.201 213.848 203.257 213.56 204.409 213.56ZM208.993 220.376C208.993 219.464 208.801 218.672 208.417 218C208.049 217.328 207.561 216.816 206.953 216.464C206.345 216.112 205.689 215.936 204.985 215.936C204.281 215.936 203.625 216.112 203.017 216.464C202.409 216.8 201.913 217.304 201.529 217.976C201.161 218.632 200.977 219.416 200.977 220.328C200.977 221.24 201.161 222.04 201.529 222.728C201.913 223.416 202.409 223.944 203.017 224.312C203.641 224.664 204.297 224.84 204.985 224.84C205.689 224.84 206.345 224.664 206.953 224.312C207.561 223.96 208.049 223.448 208.417 222.776C208.801 222.088 208.993 221.288 208.993 220.376ZM227.467 220.064C227.467 220.56 227.435 221.008 227.371 221.408H217.267C217.347 222.464 217.739 223.312 218.443 223.952C219.147 224.592 220.011 224.912 221.035 224.912C222.507 224.912 223.547 224.296 224.155 223.064H227.107C226.707 224.28 225.979 225.28 224.923 226.064C223.883 226.832 222.587 227.216 221.035 227.216C219.771 227.216 218.635 226.936 217.627 226.376C216.635 225.8 215.851 225 215.275 223.976C214.715 222.936 214.435 221.736 214.435 220.376C214.435 219.016 214.707 217.824 215.251 216.8C215.811 215.76 216.587 214.96 217.579 214.4C218.587 213.84 219.739 213.56 221.035 213.56C222.283 213.56 223.395 213.832 224.371 214.376C225.347 214.92 226.107 215.688 226.651 216.68C227.195 217.656 227.467 218.784 227.467 220.064ZM224.611 219.2C224.595 218.192 224.235 217.384 223.531 216.776C222.827 216.168 221.955 215.864 220.915 215.864C219.971 215.864 219.163 216.168 218.491 216.776C217.819 217.368 217.419 218.176 217.291 219.2H224.611ZM232.895 215.696C233.295 215.024 233.823 214.504 234.479 214.136C235.151 213.752 235.943 213.56 236.855 213.56V216.392H236.159C235.087 216.392 234.271 216.664 233.711 217.208C233.167 217.752 232.895 218.696 232.895 220.04V227H230.159V213.776H232.895V215.696Z" fill="#110F1F"/>
<path d="M147.368 270.32V287H144.632V275.576L139.544 287H137.648L132.536 275.576V287H129.8V270.32H132.752L138.608 283.4L144.44 270.32H147.368ZM163.084 280.064C163.084 280.56 163.052 281.008 162.988 281.408H152.884C152.964 282.464 153.356 283.312 154.06 283.952C154.764 284.592 155.628 284.912 156.652 284.912C158.124 284.912 159.164 284.296 159.772 283.064H162.724C162.324 284.28 161.596 285.28 160.54 286.064C159.5 286.832 158.204 287.216 156.652 287.216C155.388 287.216 154.252 286.936 153.244 286.376C152.252 285.8 151.468 285 150.892 283.976C150.332 282.936 150.052 281.736 150.052 280.376C150.052 279.016 150.324 277.824 150.868 276.8C151.428 275.76 152.204 274.96 153.196 274.4C154.204 273.84 155.356 273.56 156.652 273.56C157.9 273.56 159.012 273.832 159.988 274.376C160.964 274.92 161.724 275.688 162.268 276.68C162.812 277.656 163.084 278.784 163.084 280.064ZM160.228 279.2C160.212 278.192 159.852 277.384 159.148 276.776C158.444 276.168 157.572 275.864 156.532 275.864C155.588 275.864 154.78 276.168 154.108 276.776C153.436 277.368 153.036 278.176 152.908 279.2H160.228ZM181.785 273.56C182.825 273.56 183.753 273.776 184.569 274.208C185.401 274.64 186.049 275.28 186.513 276.128C186.993 276.976 187.233 278 187.233 279.2V287H184.521V279.608C184.521 278.424 184.225 277.52 183.633 276.896C183.041 276.256 182.233 275.936 181.209 275.936C180.185 275.936 179.369 276.256 178.761 276.896C178.169 277.52 177.873 278.424 177.873 279.608V287H175.161V279.608C175.161 278.424 174.865 277.52 174.273 276.896C173.681 276.256 172.873 275.936 171.849 275.936C170.825 275.936 170.009 276.256 169.401 276.896C168.809 277.52 168.513 278.424 168.513 279.608V287H165.777V273.776H168.513V275.288C168.961 274.744 169.529 274.32 170.217 274.016C170.905 273.712 171.641 273.56 172.425 273.56C173.481 273.56 174.425 273.784 175.257 274.232C176.089 274.68 176.729 275.328 177.177 276.176C177.577 275.376 178.201 274.744 179.049 274.28C179.897 273.8 180.809 273.56 181.785 273.56ZM193.45 275.744C193.914 275.104 194.546 274.584 195.346 274.184C196.162 273.768 197.066 273.56 198.058 273.56C199.226 273.56 200.282 273.84 201.226 274.4C202.17 274.96 202.914 275.76 203.458 276.8C204.002 277.824 204.274 279 204.274 280.328C204.274 281.656 204.002 282.848 203.458 283.904C202.914 284.944 202.162 285.76 201.202 286.352C200.258 286.928 199.21 287.216 198.058 287.216C197.034 287.216 196.122 287.016 195.322 286.616C194.538 286.216 193.914 285.704 193.45 285.08V287H190.714V269.24H193.45V275.744ZM201.49 280.328C201.49 279.416 201.298 278.632 200.914 277.976C200.546 277.304 200.05 276.8 199.426 276.464C198.818 276.112 198.162 275.936 197.458 275.936C196.77 275.936 196.114 276.112 195.49 276.464C194.882 276.816 194.386 277.328 194.002 278C193.634 278.672 193.45 279.464 193.45 280.376C193.45 281.288 193.634 282.088 194.002 282.776C194.386 283.448 194.882 283.96 195.49 284.312C196.114 284.664 196.77 284.84 197.458 284.84C198.162 284.84 198.818 284.664 199.426 284.312C200.05 283.944 200.546 283.416 200.914 282.728C201.298 282.04 201.49 281.24 201.49 280.328ZM219.1 280.064C219.1 280.56 219.068 281.008 219.004 281.408H208.9C208.98 282.464 209.372 283.312 210.076 283.952C210.78 284.592 211.644 284.912 212.668 284.912C214.14 284.912 215.18 284.296 215.788 283.064H218.74C218.34 284.28 217.612 285.28 216.556 286.064C215.516 286.832 214.22 287.216 212.668 287.216C211.404 287.216 210.268 286.936 209.26 286.376C208.268 285.8 207.484 285 206.908 283.976C206.348 282.936 206.068 281.736 206.068 280.376C206.068 279.016 206.34 277.824 206.884 276.8C207.444 275.76 208.22 274.96 209.212 274.4C210.22 273.84 211.372 273.56 212.668 273.56C213.916 273.56 215.028 273.832 216.004 274.376C216.98 274.92 217.74 275.688 218.284 276.68C218.828 277.656 219.1 278.784 219.1 280.064ZM216.244 279.2C216.228 278.192 215.868 277.384 215.164 276.776C214.46 276.168 213.588 275.864 212.548 275.864C211.604 275.864 210.796 276.168 210.124 276.776C209.452 277.368 209.052 278.176 208.924 279.2H216.244ZM224.528 275.696C224.928 275.024 225.456 274.504 226.112 274.136C226.784 273.752 227.576 273.56 228.488 273.56V276.392H227.792C226.72 276.392 225.904 276.664 225.344 277.208C224.8 277.752 224.528 278.696 224.528 280.04V287H221.792V273.776H224.528V275.696Z" fill="#110F1F"/>
<g filter="url(#filter0_b_602_302)">
<path d="M748 210C748 201.716 754.716 195 763 195H1176C1184.28 195 1191 201.716 1191 210V305C1191 313.284 1184.28 320 1176 320H763C754.716 320 748 313.284 748 305V210Z" fill="#4535D8"/>
<path d="M763 195.5H1176C1184.01 195.5 1190.5 201.992 1190.5 210V305C1190.5 313.008 1184.01 319.5 1176 319.5H763C754.992 319.5 748.5 313.008 748.5 305V210C748.5 201.992 754.992 195.5 763 195.5Z" stroke="#EBEAFB"/>
</g>
<circle cx="91" cy="222" r="14" fill="#4535D8"/>
<circle cx="91" cy="279" r="14" fill="#B79EFD"/>
<g filter="url(#filter1_b_602_302)">
<path d="M389 689.228C389 547.717 505.496 433 647.007 433V433C788.517 433 905.014 547.717 905.014 689.228V689.228C905.014 830.738 788.517 945.455 647.007 945.455V945.455C505.496 945.455 389 830.738 389 689.228V689.228Z" fill="#FBFCFE"/>
<path d="M647.007 944.455C506.04 944.455 390 830.177 390 689.228C390 548.278 506.04 434 647.007 434C787.974 434 904.014 548.278 904.014 689.228C904.014 830.177 787.974 944.455 647.007 944.455Z" stroke="#C4BFF2" stroke-width="2"/>
</g>
<circle cx="467" cy="715" r="25.5" fill="#C4BFF2" stroke="#EBEAFB"/>
<circle cx="495" cy="793" r="25.5" fill="#C4BFF2" stroke="#EBEAFB"/>
<circle cx="559" cy="852" r="25.5" fill="#C4BFF2" stroke="#EBEAFB"/>
<circle cx="654" cy="871" r="25.5" fill="#C4BFF2" stroke="#EBEAFB"/>
<circle cx="748" cy="845" r="25.5" fill="#C4BFF2" stroke="#EBEAFB"/>
<circle cx="801" cy="778" r="25.5" fill="#C4BFF2" stroke="#EBEAFB"/>
<circle cx="822" cy="696" r="25.5" fill="#C4BFF2" stroke="#EBEAFB"/>
<path d="M501.67 559.9C502.25 559.14 503.04 558.5 504.04 557.98C505.04 557.46 506.17 557.2 507.43 557.2C508.87 557.2 510.18 557.56 511.36 558.28C512.56 558.98 513.5 559.97 514.18 561.25C514.86 562.53 515.2 564 515.2 565.66C515.2 567.32 514.86 568.81 514.18 570.13C513.5 571.43 512.56 572.45 511.36 573.19C510.18 573.91 508.87 574.27 507.43 574.27C506.17 574.27 505.05 574.02 504.07 573.52C503.09 573 502.29 572.36 501.67 571.6V581.86H498.25V557.47H501.67V559.9ZM511.72 565.66C511.72 564.52 511.48 563.54 511 562.72C510.54 561.88 509.92 561.25 509.14 560.83C508.38 560.39 507.56 560.17 506.68 560.17C505.82 560.17 505 560.39 504.22 560.83C503.46 561.27 502.84 561.91 502.36 562.75C501.9 563.59 501.67 564.58 501.67 565.72C501.67 566.86 501.9 567.86 502.36 568.72C502.84 569.56 503.46 570.2 504.22 570.64C505 571.08 505.82 571.3 506.68 571.3C507.56 571.3 508.38 571.08 509.14 570.64C509.92 570.18 510.54 569.52 511 568.66C511.48 567.8 511.72 566.8 511.72 565.66ZM522.002 559.87C522.502 559.03 523.162 558.38 523.982 557.92C524.822 557.44 525.812 557.2 526.952 557.2V560.74H526.082C524.742 560.74 523.722 561.08 523.022 561.76C522.342 562.44 522.002 563.62 522.002 565.3V574H518.582V557.47H522.002V559.87ZM537.266 574.27C535.706 574.27 534.296 573.92 533.036 573.22C531.776 572.5 530.786 571.5 530.066 570.22C529.346 568.92 528.986 567.42 528.986 565.72C528.986 564.04 529.356 562.55 530.096 561.25C530.836 559.95 531.846 558.95 533.126 558.25C534.406 557.55 535.836 557.2 537.416 557.2C538.996 557.2 540.426 557.55 541.706 558.25C542.986 558.95 543.996 559.95 544.736 561.25C545.476 562.55 545.846 564.04 545.846 565.72C545.846 567.4 545.466 568.89 544.706 570.19C543.946 571.49 542.906 572.5 541.586 573.22C540.286 573.92 538.846 574.27 537.266 574.27ZM537.266 571.3C538.146 571.3 538.966 571.09 539.726 570.67C540.506 570.25 541.136 569.62 541.616 568.78C542.096 567.94 542.336 566.92 542.336 565.72C542.336 564.52 542.106 563.51 541.646 562.69C541.186 561.85 540.576 561.22 539.816 560.8C539.056 560.38 538.236 560.17 537.356 560.17C536.476 560.17 535.656 560.38 534.896 560.8C534.156 561.22 533.566 561.85 533.126 562.69C532.686 563.51 532.466 564.52 532.466 565.72C532.466 567.5 532.916 568.88 533.816 569.86C534.736 570.82 535.886 571.3 537.266 571.3ZM550.967 555.28C550.347 555.28 549.827 555.07 549.407 554.65C548.987 554.23 548.777 553.71 548.777 553.09C548.777 552.47 548.987 551.95 549.407 551.53C549.827 551.11 550.347 550.9 550.967 550.9C551.567 550.9 552.077 551.11 552.497 551.53C552.917 551.95 553.127 552.47 553.127 553.09C553.127 553.71 552.917 554.23 552.497 554.65C552.077 555.07 551.567 555.28 550.967 555.28ZM552.647 577.24C552.647 578.86 552.237 580.03 551.417 580.75C550.617 581.49 549.447 581.86 547.907 581.86H546.137V578.98H547.307C548.007 578.98 548.497 578.84 548.777 578.56C549.077 578.3 549.227 577.86 549.227 577.24V557.47H552.647V577.24ZM572.287 565.33C572.287 565.95 572.247 566.51 572.167 567.01H559.537C559.637 568.33 560.127 569.39 561.007 570.19C561.887 570.99 562.967 571.39 564.247 571.39C566.087 571.39 567.387 570.62 568.147 569.08H571.837C571.337 570.6 570.427 571.85 569.107 572.83C567.807 573.79 566.187 574.27 564.247 574.27C562.667 574.27 561.247 573.92 559.987 573.22C558.747 572.5 557.767 571.5 557.047 570.22C556.347 568.92 555.997 567.42 555.997 565.72C555.997 564.02 556.337 562.53 557.017 561.25C557.717 559.95 558.687 558.95 559.927 558.25C561.187 557.55 562.627 557.2 564.247 557.2C565.807 557.2 567.197 557.54 568.417 558.22C569.637 558.9 570.587 559.86 571.267 561.1C571.947 562.32 572.287 563.73 572.287 565.33ZM568.717 564.25C568.697 562.99 568.247 561.98 567.367 561.22C566.487 560.46 565.397 560.08 564.097 560.08C562.917 560.08 561.907 560.46 561.067 561.22C560.227 561.96 559.727 562.97 559.567 564.25H568.717ZM574.512 565.72C574.512 564.02 574.852 562.53 575.532 561.25C576.232 559.95 577.192 558.95 578.412 558.25C579.632 557.55 581.032 557.2 582.612 557.2C584.612 557.2 586.262 557.68 587.562 558.64C588.882 559.58 589.772 560.93 590.232 562.69H586.542C586.242 561.87 585.762 561.23 585.102 560.77C584.442 560.31 583.612 560.08 582.612 560.08C581.212 560.08 580.092 560.58 579.252 561.58C578.432 562.56 578.022 563.94 578.022 565.72C578.022 567.5 578.432 568.89 579.252 569.89C580.092 570.89 581.212 571.39 582.612 571.39C584.592 571.39 585.902 570.52 586.542 568.78H590.232C589.752 570.46 588.852 571.8 587.532 572.8C586.212 573.78 584.572 574.27 582.612 574.27C581.032 574.27 579.632 573.92 578.412 573.22C577.192 572.5 576.232 571.5 575.532 570.22C574.852 568.92 574.512 567.42 574.512 565.72ZM597.631 560.26V569.41C597.631 570.03 597.771 570.48 598.051 570.76C598.351 571.02 598.851 571.15 599.551 571.15H601.651V574H598.951C597.411 574 596.231 573.64 595.411 572.92C594.591 572.2 594.181 571.03 594.181 569.41V560.26H592.231V557.47H594.181V553.36H597.631V557.47H601.651V560.26H597.631ZM617.493 561.7V564.58H605.163V561.7H617.493ZM621.212 565.66C621.212 564 621.552 562.53 622.232 561.25C622.932 559.97 623.872 558.98 625.052 558.28C626.252 557.56 627.582 557.2 629.042 557.2C630.122 557.2 631.182 557.44 632.222 557.92C633.282 558.38 634.122 559 634.742 559.78V551.8H638.192V574H634.742V571.51C634.182 572.31 633.402 572.97 632.402 573.49C631.422 574.01 630.292 574.27 629.012 574.27C627.572 574.27 626.252 573.91 625.052 573.19C623.872 572.45 622.932 571.43 622.232 570.13C621.552 568.81 621.212 567.32 621.212 565.66ZM634.742 565.72C634.742 564.58 634.502 563.59 634.022 562.75C633.562 561.91 632.952 561.27 632.192 560.83C631.432 560.39 630.612 560.17 629.732 560.17C628.852 560.17 628.032 560.39 627.272 560.83C626.512 561.25 625.892 561.88 625.412 562.72C624.952 563.54 624.722 564.52 624.722 565.66C624.722 566.8 624.952 567.8 625.412 568.66C625.892 569.52 626.512 570.18 627.272 570.64C628.052 571.08 628.872 571.3 629.732 571.3C630.612 571.3 631.432 571.08 632.192 570.64C632.952 570.2 633.562 569.56 634.022 568.72C634.502 567.86 634.742 566.86 634.742 565.72ZM657.834 565.33C657.834 565.95 657.794 566.51 657.714 567.01H645.084C645.184 568.33 645.674 569.39 646.554 570.19C647.434 570.99 648.514 571.39 649.794 571.39C651.634 571.39 652.934 570.62 653.694 569.08H657.384C656.884 570.6 655.974 571.85 654.654 572.83C653.354 573.79 651.734 574.27 649.794 574.27C648.214 574.27 646.794 573.92 645.534 573.22C644.294 572.5 643.314 571.5 642.594 570.22C641.894 568.92 641.544 567.42 641.544 565.72C641.544 564.02 641.884 562.53 642.564 561.25C643.264 559.95 644.234 558.95 645.474 558.25C646.734 557.55 648.174 557.2 649.794 557.2C651.354 557.2 652.744 557.54 653.964 558.22C655.184 558.9 656.134 559.86 656.814 561.1C657.494 562.32 657.834 563.73 657.834 565.33ZM654.264 564.25C654.244 562.99 653.794 561.98 652.914 561.22C652.034 560.46 650.944 560.08 649.644 560.08C648.464 560.08 647.454 560.46 646.614 561.22C645.774 561.96 645.274 562.97 645.114 564.25H654.264ZM667.589 570.94L672.269 557.47H675.899L669.599 574H665.519L659.249 557.47H662.909L667.589 570.94ZM679.864 574.21C679.244 574.21 678.724 574 678.304 573.58C677.884 573.16 677.674 572.64 677.674 572.02C677.674 571.4 677.884 570.88 678.304 570.46C678.724 570.04 679.244 569.83 679.864 569.83C680.464 569.83 680.974 570.04 681.394 570.46C681.814 570.88 682.024 571.4 682.024 572.02C682.024 572.64 681.814 573.16 681.394 573.58C680.974 574 680.464 574.21 679.864 574.21ZM689.141 559.9C689.721 559.14 690.511 558.5 691.511 557.98C692.511 557.46 693.641 557.2 694.901 557.2C696.341 557.2 697.651 557.56 698.831 558.28C700.031 558.98 700.971 559.97 701.651 561.25C702.331 562.53 702.671 564 702.671 565.66C702.671 567.32 702.331 568.81 701.651 570.13C700.971 571.43 700.031 572.45 698.831 573.19C697.651 573.91 696.341 574.27 694.901 574.27C693.641 574.27 692.521 574.02 691.541 573.52C690.561 573 689.761 572.36 689.141 571.6V581.86H685.721V557.47H689.141V559.9ZM699.191 565.66C699.191 564.52 698.951 563.54 698.471 562.72C698.011 561.88 697.391 561.25 696.611 560.83C695.851 560.39 695.031 560.17 694.151 560.17C693.291 560.17 692.471 560.39 691.691 560.83C690.931 561.27 690.311 561.91 689.831 562.75C689.371 563.59 689.141 564.58 689.141 565.72C689.141 566.86 689.371 567.86 689.831 568.72C690.311 569.56 690.931 570.2 691.691 570.64C692.471 571.08 693.291 571.3 694.151 571.3C695.031 571.3 695.851 571.08 696.611 570.64C697.391 570.18 698.011 569.52 698.471 568.66C698.951 567.8 699.191 566.8 699.191 565.66ZM713.223 574.27C711.663 574.27 710.253 573.92 708.993 573.22C707.733 572.5 706.743 571.5 706.023 570.22C705.303 568.92 704.943 567.42 704.943 565.72C704.943 564.04 705.313 562.55 706.053 561.25C706.793 559.95 707.803 558.95 709.083 558.25C710.363 557.55 711.793 557.2 713.373 557.2C714.953 557.2 716.383 557.55 717.663 558.25C718.943 558.95 719.953 559.95 720.693 561.25C721.433 562.55 721.803 564.04 721.803 565.72C721.803 567.4 721.423 568.89 720.663 570.19C719.903 571.49 718.863 572.5 717.543 573.22C716.243 573.92 714.803 574.27 713.223 574.27ZM713.223 571.3C714.103 571.3 714.923 571.09 715.683 570.67C716.463 570.25 717.093 569.62 717.573 568.78C718.053 567.94 718.293 566.92 718.293 565.72C718.293 564.52 718.063 563.51 717.603 562.69C717.143 561.85 716.533 561.22 715.773 560.8C715.013 560.38 714.193 560.17 713.313 560.17C712.433 560.17 711.613 560.38 710.853 560.8C710.113 561.22 709.523 561.85 709.083 562.69C708.643 563.51 708.423 564.52 708.423 565.72C708.423 567.5 708.873 568.88 709.773 569.86C710.693 570.82 711.843 571.3 713.223 571.3ZM724.044 565.66C724.044 564 724.384 562.53 725.064 561.25C725.764 559.97 726.704 558.98 727.884 558.28C729.084 557.56 730.414 557.2 731.874 557.2C732.954 557.2 734.014 557.44 735.054 557.92C736.114 558.38 736.954 559 737.574 559.78V551.8H741.024V574H737.574V571.51C737.014 572.31 736.234 572.97 735.234 573.49C734.254 574.01 733.124 574.27 731.844 574.27C730.404 574.27 729.084 573.91 727.884 573.19C726.704 572.45 725.764 571.43 725.064 570.13C724.384 568.81 724.044 567.32 724.044 565.66ZM737.574 565.72C737.574 564.58 737.334 563.59 736.854 562.75C736.394 561.91 735.784 561.27 735.024 560.83C734.264 560.39 733.444 560.17 732.564 560.17C731.684 560.17 730.864 560.39 730.104 560.83C729.344 561.25 728.724 561.88 728.244 562.72C727.784 563.54 727.554 564.52 727.554 565.66C727.554 566.8 727.784 567.8 728.244 568.66C728.724 569.52 729.344 570.18 730.104 570.64C730.884 571.08 731.704 571.3 732.564 571.3C733.444 571.3 734.264 571.08 735.024 570.64C735.784 570.2 736.394 569.56 736.854 568.72C737.334 567.86 737.574 566.86 737.574 565.72ZM746.896 574.21C746.276 574.21 745.756 574 745.336 573.58C744.916 573.16 744.706 572.64 744.706 572.02C744.706 571.4 744.916 570.88 745.336 570.46C745.756 570.04 746.276 569.83 746.896 569.83C747.496 569.83 748.006 570.04 748.426 570.46C748.846 570.88 749.056 571.4 749.056 572.02C749.056 572.64 748.846 573.16 748.426 573.58C748.006 574 747.496 574.21 746.896 574.21ZM759.832 565.63L765.172 574H761.302L757.732 568.39L754.372 574H750.802L756.142 565.87L750.802 557.47H754.672L758.242 563.08L761.602 557.47H765.172L759.832 565.63ZM782.603 557.47L772.463 581.77H768.923L772.283 573.73L765.773 557.47H769.583L774.233 570.07L779.063 557.47H782.603ZM788.214 571.21H795.714V574H784.254V571.21L791.784 560.26H784.254V557.47H795.714V560.26L788.214 571.21Z" fill="#110F1F"/>
<path d="M859.76 263.08C859.76 264.413 859.427 265.667 858.76 266.84C858.12 268.013 857.16 269 855.88 269.8C854.627 270.6 853.133 271.08 851.4 271.24V274.48H848.8V271.24C846.293 271 844.267 270.213 842.72 268.88C841.173 267.547 840.4 265.787 840.4 263.6H845.28C845.36 264.64 845.693 265.507 846.28 266.2C846.867 266.867 847.707 267.293 848.8 267.48V258.68C847.013 258.227 845.56 257.773 844.44 257.32C843.32 256.84 842.36 256.093 841.56 255.08C840.787 254.067 840.4 252.68 840.4 250.92C840.4 248.707 841.173 246.88 842.72 245.44C844.267 243.973 846.293 243.12 848.8 242.88V239.64H851.4V242.88C853.747 243.093 855.627 243.84 857.04 245.12C858.48 246.373 859.293 248.107 859.48 250.32H854.6C854.52 249.493 854.2 248.76 853.64 248.12C853.08 247.453 852.333 247 851.4 246.76V255.4C853.187 255.827 854.64 256.28 855.76 256.76C856.88 257.213 857.827 257.947 858.6 258.96C859.373 259.947 859.76 261.32 859.76 263.08ZM845.04 250.68C845.04 251.773 845.36 252.627 846 253.24C846.667 253.853 847.6 254.347 848.8 254.72V246.64C847.653 246.773 846.733 247.187 846.04 247.88C845.373 248.573 845.04 249.507 845.04 250.68ZM851.4 267.48C852.573 267.293 853.493 266.827 854.16 266.08C854.827 265.307 855.16 264.387 855.16 263.32C855.16 262.253 854.827 261.427 854.16 260.84C853.52 260.227 852.6 259.733 851.4 259.36V267.48ZM884.976 243.2V246.92H877.576V271H873.016V246.92H865.576V243.2H884.976ZM899.154 271.36C897.074 271.36 895.194 270.893 893.514 269.96C891.834 269 890.514 267.667 889.554 265.96C888.594 264.227 888.114 262.227 888.114 259.96C888.114 257.72 888.607 255.733 889.594 254C890.58 252.267 891.927 250.933 893.634 250C895.34 249.067 897.247 248.6 899.354 248.6C901.46 248.6 903.367 249.067 905.074 250C906.78 250.933 908.127 252.267 909.114 254C910.1 255.733 910.594 257.72 910.594 259.96C910.594 262.2 910.087 264.187 909.074 265.92C908.06 267.653 906.674 269 904.914 269.96C903.18 270.893 901.26 271.36 899.154 271.36ZM899.154 267.4C900.327 267.4 901.42 267.12 902.434 266.56C903.474 266 904.314 265.16 904.954 264.04C905.594 262.92 905.914 261.56 905.914 259.96C905.914 258.36 905.607 257.013 904.994 255.92C904.38 254.8 903.567 253.96 902.554 253.4C901.54 252.84 900.447 252.56 899.274 252.56C898.1 252.56 897.007 252.84 895.994 253.4C895.007 253.96 894.22 254.8 893.634 255.92C893.047 257.013 892.754 258.36 892.754 259.96C892.754 262.333 893.354 264.173 894.554 265.48C895.78 266.76 897.314 267.4 899.154 267.4ZM923.822 260L933.982 271H927.822L919.662 261.52V271H915.102V241.4H919.662V258.6L927.662 248.96H933.982L923.822 260ZM957.45 259.44C957.45 260.267 957.397 261.013 957.29 261.68H940.45C940.583 263.44 941.237 264.853 942.41 265.92C943.583 266.987 945.023 267.52 946.73 267.52C949.183 267.52 950.917 266.493 951.93 264.44H956.85C956.183 266.467 954.97 268.133 953.21 269.44C951.477 270.72 949.317 271.36 946.73 271.36C944.623 271.36 942.73 270.893 941.05 269.96C939.397 269 938.09 267.667 937.13 265.96C936.197 264.227 935.73 262.227 935.73 259.96C935.73 257.693 936.183 255.707 937.09 254C938.023 252.267 939.317 250.933 940.97 250C942.65 249.067 944.57 248.6 946.73 248.6C948.81 248.6 950.663 249.053 952.29 249.96C953.917 250.867 955.183 252.147 956.09 253.8C956.997 255.427 957.45 257.307 957.45 259.44ZM952.69 258C952.663 256.32 952.063 254.973 950.89 253.96C949.717 252.947 948.263 252.44 946.53 252.44C944.957 252.44 943.61 252.947 942.49 253.96C941.37 254.947 940.703 256.293 940.49 258H952.69ZM973.058 248.6C974.791 248.6 976.338 248.96 977.698 249.68C979.084 250.4 980.164 251.467 980.938 252.88C981.711 254.293 982.098 256 982.098 258V271H977.578V258.68C977.578 256.707 977.084 255.2 976.098 254.16C975.111 253.093 973.764 252.56 972.058 252.56C970.351 252.56 968.991 253.093 967.978 254.16C966.991 255.2 966.498 256.707 966.498 258.68V271H961.938V248.96H966.498V251.48C967.244 250.573 968.191 249.867 969.338 249.36C970.511 248.853 971.751 248.6 973.058 248.6ZM1022.26 243.2L1011.82 271H1006.54L996.065 243.2H1000.94L1009.18 266.32L1017.46 243.2H1022.26ZM1035.64 271.36C1033.56 271.36 1031.68 270.893 1030 269.96C1028.32 269 1027 267.667 1026.04 265.96C1025.08 264.227 1024.6 262.227 1024.6 259.96C1024.6 257.72 1025.09 255.733 1026.08 254C1027.06 252.267 1028.41 250.933 1030.12 250C1031.82 249.067 1033.73 248.6 1035.84 248.6C1037.94 248.6 1039.85 249.067 1041.56 250C1043.26 250.933 1044.61 252.267 1045.6 254C1046.58 255.733 1047.08 257.72 1047.08 259.96C1047.08 262.2 1046.57 264.187 1045.56 265.92C1044.54 267.653 1043.16 269 1041.4 269.96C1039.66 270.893 1037.74 271.36 1035.64 271.36ZM1035.64 267.4C1036.81 267.4 1037.9 267.12 1038.92 266.56C1039.96 266 1040.8 265.16 1041.44 264.04C1042.08 262.92 1042.4 261.56 1042.4 259.96C1042.4 258.36 1042.09 257.013 1041.48 255.92C1040.86 254.8 1040.05 253.96 1039.04 253.4C1038.02 252.84 1036.93 252.56 1035.76 252.56C1034.58 252.56 1033.49 252.84 1032.48 253.4C1031.49 253.96 1030.7 254.8 1030.12 255.92C1029.53 257.013 1029.24 258.36 1029.24 259.96C1029.24 262.333 1029.84 264.173 1031.04 265.48C1032.26 266.76 1033.8 267.4 1035.64 267.4ZM1056.91 252.68V264.88C1056.91 265.707 1057.09 266.307 1057.47 266.68C1057.87 267.027 1058.53 267.2 1059.47 267.2H1062.27V271H1058.67C1056.61 271 1055.04 270.52 1053.95 269.56C1052.85 268.6 1052.31 267.04 1052.31 264.88V252.68H1049.71V248.96H1052.31V243.48H1056.91V248.96H1062.27V252.68H1056.91ZM1086.67 259.44C1086.67 260.267 1086.62 261.013 1086.51 261.68H1069.67C1069.8 263.44 1070.46 264.853 1071.63 265.92C1072.8 266.987 1074.24 267.52 1075.95 267.52C1078.4 267.52 1080.14 266.493 1081.15 264.44H1086.07C1085.4 266.467 1084.19 268.133 1082.43 269.44C1080.7 270.72 1078.54 271.36 1075.95 271.36C1073.84 271.36 1071.95 270.893 1070.27 269.96C1068.62 269 1067.31 267.667 1066.35 265.96C1065.42 264.227 1064.95 262.227 1064.95 259.96C1064.95 257.693 1065.4 255.707 1066.31 254C1067.24 252.267 1068.54 250.933 1070.19 250C1071.87 249.067 1073.79 248.6 1075.95 248.6C1078.03 248.6 1079.88 249.053 1081.51 249.96C1083.14 250.867 1084.4 252.147 1085.31 253.8C1086.22 255.427 1086.67 257.307 1086.67 259.44ZM1081.91 258C1081.88 256.32 1081.28 254.973 1080.11 253.96C1078.94 252.947 1077.48 252.44 1075.75 252.44C1074.18 252.44 1072.83 252.947 1071.71 253.96C1070.59 254.947 1069.92 256.293 1069.71 258H1081.91ZM1095.72 252.16C1096.38 251.04 1097.26 250.173 1098.36 249.56C1099.48 248.92 1100.8 248.6 1102.32 248.6V253.32H1101.16C1099.37 253.32 1098.01 253.773 1097.08 254.68C1096.17 255.587 1095.72 257.16 1095.72 259.4V271H1091.16V248.96H1095.72V252.16ZM1114.51 271.36C1112.77 271.36 1111.21 271.053 1109.83 270.44C1108.47 269.8 1107.39 268.947 1106.59 267.88C1105.79 266.787 1105.36 265.573 1105.31 264.24H1110.03C1110.11 265.173 1110.55 265.96 1111.35 266.6C1112.17 267.213 1113.2 267.52 1114.43 267.52C1115.71 267.52 1116.69 267.28 1117.39 266.8C1118.11 266.293 1118.47 265.653 1118.47 264.88C1118.47 264.053 1118.07 263.44 1117.27 263.04C1116.49 262.64 1115.25 262.2 1113.55 261.72C1111.89 261.267 1110.55 260.827 1109.51 260.4C1108.47 259.973 1107.56 259.32 1106.79 258.44C1106.04 257.56 1105.67 256.4 1105.67 254.96C1105.67 253.787 1106.01 252.72 1106.71 251.76C1107.4 250.773 1108.39 250 1109.67 249.44C1110.97 248.88 1112.47 248.6 1114.15 248.6C1116.65 248.6 1118.67 249.24 1120.19 250.52C1121.73 251.773 1122.56 253.493 1122.67 255.68H1118.11C1118.03 254.693 1117.63 253.907 1116.91 253.32C1116.19 252.733 1115.21 252.44 1113.99 252.44C1112.79 252.44 1111.87 252.667 1111.23 253.12C1110.59 253.573 1110.27 254.173 1110.27 254.92C1110.27 255.507 1110.48 256 1110.91 256.4C1111.33 256.8 1111.85 257.12 1112.47 257.36C1113.08 257.573 1113.99 257.853 1115.19 258.2C1116.79 258.627 1118.09 259.067 1119.11 259.52C1120.15 259.947 1121.04 260.587 1121.79 261.44C1122.53 262.293 1122.92 263.427 1122.95 264.84C1122.95 266.093 1122.6 267.213 1121.91 268.2C1121.21 269.187 1120.23 269.96 1118.95 270.52C1117.69 271.08 1116.21 271.36 1114.51 271.36Z" fill="#F8F9FC"/>
<g filter="url(#filter2_b_602_302)">
<path d="M1021 689.228C1021 547.717 1137.5 433 1279.01 433V433C1420.52 433 1537.01 547.717 1537.01 689.228V689.228C1537.01 830.738 1420.52 945.455 1279.01 945.455V945.455C1137.5 945.455 1021 830.738 1021 689.228V689.228Z" fill="#FBFCFE"/>
<path d="M1279.01 944.455C1138.04 944.455 1022 830.177 1022 689.228C1022 548.278 1138.04 434 1279.01 434C1419.97 434 1536.01 548.278 1536.01 689.228C1536.01 830.177 1419.97 944.455 1279.01 944.455Z" stroke="#C4BFF2" stroke-width="2"/>
</g>
<circle cx="1099" cy="715" r="25.5" fill="#C4BFF2" stroke="#EBEAFB"/>
<circle cx="1127" cy="793" r="25.5" fill="#C4BFF2" stroke="#EBEAFB"/>
<circle cx="1191" cy="852" r="25.5" fill="#C4BFF2" stroke="#EBEAFB"/>
<circle cx="1286" cy="871" r="25.5" fill="#C4BFF2" stroke="#EBEAFB"/>
<circle cx="1380" cy="845" r="25.5" fill="#C4BFF2" stroke="#EBEAFB"/>
<circle cx="1433" cy="778" r="25.5" fill="#C4BFF2" stroke="#EBEAFB"/>
<circle cx="1454" cy="696" r="25.5" fill="#C4BFF2" stroke="#EBEAFB"/>
<path d="M1134.67 559.9C1135.25 559.14 1136.04 558.5 1137.04 557.98C1138.04 557.46 1139.17 557.2 1140.43 557.2C1141.87 557.2 1143.18 557.56 1144.36 558.28C1145.56 558.98 1146.5 559.97 1147.18 561.25C1147.86 562.53 1148.2 564 1148.2 565.66C1148.2 567.32 1147.86 568.81 1147.18 570.13C1146.5 571.43 1145.56 572.45 1144.36 573.19C1143.18 573.91 1141.87 574.27 1140.43 574.27C1139.17 574.27 1138.05 574.02 1137.07 573.52C1136.09 573 1135.29 572.36 1134.67 571.6V581.86H1131.25V557.47H1134.67V559.9ZM1144.72 565.66C1144.72 564.52 1144.48 563.54 1144 562.72C1143.54 561.88 1142.92 561.25 1142.14 560.83C1141.38 560.39 1140.56 560.17 1139.68 560.17C1138.82 560.17 1138 560.39 1137.22 560.83C1136.46 561.27 1135.84 561.91 1135.36 562.75C1134.9 563.59 1134.67 564.58 1134.67 565.72C1134.67 566.86 1134.9 567.86 1135.36 568.72C1135.84 569.56 1136.46 570.2 1137.22 570.64C1138 571.08 1138.82 571.3 1139.68 571.3C1140.56 571.3 1141.38 571.08 1142.14 570.64C1142.92 570.18 1143.54 569.52 1144 568.66C1144.48 567.8 1144.72 566.8 1144.72 565.66ZM1155 559.87C1155.5 559.03 1156.16 558.38 1156.98 557.92C1157.82 557.44 1158.81 557.2 1159.95 557.2V560.74H1159.08C1157.74 560.74 1156.72 561.08 1156.02 561.76C1155.34 562.44 1155 563.62 1155 565.3V574H1151.58V557.47H1155V559.87ZM1170.27 574.27C1168.71 574.27 1167.3 573.92 1166.04 573.22C1164.78 572.5 1163.79 571.5 1163.07 570.22C1162.35 568.92 1161.99 567.42 1161.99 565.72C1161.99 564.04 1162.36 562.55 1163.1 561.25C1163.84 559.95 1164.85 558.95 1166.13 558.25C1167.41 557.55 1168.84 557.2 1170.42 557.2C1172 557.2 1173.43 557.55 1174.71 558.25C1175.99 558.95 1177 559.95 1177.74 561.25C1178.48 562.55 1178.85 564.04 1178.85 565.72C1178.85 567.4 1178.47 568.89 1177.71 570.19C1176.95 571.49 1175.91 572.5 1174.59 573.22C1173.29 573.92 1171.85 574.27 1170.27 574.27ZM1170.27 571.3C1171.15 571.3 1171.97 571.09 1172.73 570.67C1173.51 570.25 1174.14 569.62 1174.62 568.78C1175.1 567.94 1175.34 566.92 1175.34 565.72C1175.34 564.52 1175.11 563.51 1174.65 562.69C1174.19 561.85 1173.58 561.22 1172.82 560.8C1172.06 560.38 1171.24 560.17 1170.36 560.17C1169.48 560.17 1168.66 560.38 1167.9 560.8C1167.16 561.22 1166.57 561.85 1166.13 562.69C1165.69 563.51 1165.47 564.52 1165.47 565.72C1165.47 567.5 1165.92 568.88 1166.82 569.86C1167.74 570.82 1168.89 571.3 1170.27 571.3ZM1183.97 555.28C1183.35 555.28 1182.83 555.07 1182.41 554.65C1181.99 554.23 1181.78 553.71 1181.78 553.09C1181.78 552.47 1181.99 551.95 1182.41 551.53C1182.83 551.11 1183.35 550.9 1183.97 550.9C1184.57 550.9 1185.08 551.11 1185.5 551.53C1185.92 551.95 1186.13 552.47 1186.13 553.09C1186.13 553.71 1185.92 554.23 1185.5 554.65C1185.08 555.07 1184.57 555.28 1183.97 555.28ZM1185.65 577.24C1185.65 578.86 1185.24 580.03 1184.42 580.75C1183.62 581.49 1182.45 581.86 1180.91 581.86H1179.14V578.98H1180.31C1181.01 578.98 1181.5 578.84 1181.78 578.56C1182.08 578.3 1182.23 577.86 1182.23 577.24V557.47H1185.65V577.24ZM1205.29 565.33C1205.29 565.95 1205.25 566.51 1205.17 567.01H1192.54C1192.64 568.33 1193.13 569.39 1194.01 570.19C1194.89 570.99 1195.97 571.39 1197.25 571.39C1199.09 571.39 1200.39 570.62 1201.15 569.08H1204.84C1204.34 570.6 1203.43 571.85 1202.11 572.83C1200.81 573.79 1199.19 574.27 1197.25 574.27C1195.67 574.27 1194.25 573.92 1192.99 573.22C1191.75 572.5 1190.77 571.5 1190.05 570.22C1189.35 568.92 1189 567.42 1189 565.72C1189 564.02 1189.34 562.53 1190.02 561.25C1190.72 559.95 1191.69 558.95 1192.93 558.25C1194.19 557.55 1195.63 557.2 1197.25 557.2C1198.81 557.2 1200.2 557.54 1201.42 558.22C1202.64 558.9 1203.59 559.86 1204.27 561.1C1204.95 562.32 1205.29 563.73 1205.29 565.33ZM1201.72 564.25C1201.7 562.99 1201.25 561.98 1200.37 561.22C1199.49 560.46 1198.4 560.08 1197.1 560.08C1195.92 560.08 1194.91 560.46 1194.07 561.22C1193.23 561.96 1192.73 562.97 1192.57 564.25H1201.72ZM1207.51 565.72C1207.51 564.02 1207.85 562.53 1208.53 561.25C1209.23 559.95 1210.19 558.95 1211.41 558.25C1212.63 557.55 1214.03 557.2 1215.61 557.2C1217.61 557.2 1219.26 557.68 1220.56 558.64C1221.88 559.58 1222.77 560.93 1223.23 562.69H1219.54C1219.24 561.87 1218.76 561.23 1218.1 560.77C1217.44 560.31 1216.61 560.08 1215.61 560.08C1214.21 560.08 1213.09 560.58 1212.25 561.58C1211.43 562.56 1211.02 563.94 1211.02 565.72C1211.02 567.5 1211.43 568.89 1212.25 569.89C1213.09 570.89 1214.21 571.39 1215.61 571.39C1217.59 571.39 1218.9 570.52 1219.54 568.78H1223.23C1222.75 570.46 1221.85 571.8 1220.53 572.8C1219.21 573.78 1217.57 574.27 1215.61 574.27C1214.03 574.27 1212.63 573.92 1211.41 573.22C1210.19 572.5 1209.23 571.5 1208.53 570.22C1207.85 568.92 1207.51 567.42 1207.51 565.72ZM1230.63 560.26V569.41C1230.63 570.03 1230.77 570.48 1231.05 570.76C1231.35 571.02 1231.85 571.15 1232.55 571.15H1234.65V574H1231.95C1230.41 574 1229.23 573.64 1228.41 572.92C1227.59 572.2 1227.18 571.03 1227.18 569.41V560.26H1225.23V557.47H1227.18V553.36H1230.63V557.47H1234.65V560.26H1230.63ZM1250.49 561.7V564.58H1238.16V561.7H1250.49ZM1275.36 557.2C1276.66 557.2 1277.82 557.47 1278.84 558.01C1279.88 558.55 1280.69 559.35 1281.27 560.41C1281.87 561.47 1282.17 562.75 1282.17 564.25V574H1278.78V564.76C1278.78 563.28 1278.41 562.15 1277.67 561.37C1276.93 560.57 1275.92 560.17 1274.64 560.17C1273.36 560.17 1272.34 560.57 1271.58 561.37C1270.84 562.15 1270.47 563.28 1270.47 564.76V574H1267.08V564.76C1267.08 563.28 1266.71 562.15 1265.97 561.37C1265.23 560.57 1264.22 560.17 1262.94 560.17C1261.66 560.17 1260.64 560.57 1259.88 561.37C1259.14 562.15 1258.77 563.28 1258.77 564.76V574H1255.35V557.47H1258.77V559.36C1259.33 558.68 1260.04 558.15 1260.9 557.77C1261.76 557.39 1262.68 557.2 1263.66 557.2C1264.98 557.2 1266.16 557.48 1267.2 558.04C1268.24 558.6 1269.04 559.41 1269.6 560.47C1270.1 559.47 1270.88 558.68 1271.94 558.1C1273 557.5 1274.14 557.2 1275.36 557.2ZM1293.06 565.75L1300.68 574H1296.06L1289.94 566.89V574H1286.52V551.8H1289.94V564.7L1295.94 557.47H1300.68L1293.06 565.75ZM1307.12 560.26V569.41C1307.12 570.03 1307.26 570.48 1307.54 570.76C1307.84 571.02 1308.34 571.15 1309.04 571.15H1311.14V574H1308.44C1306.9 574 1305.72 573.64 1304.9 572.92C1304.08 572.2 1303.67 571.03 1303.67 569.41V560.26H1301.72V557.47H1303.67V553.36H1307.12V557.47H1311.14V560.26H1307.12ZM1320.96 557.2C1322.24 557.2 1323.37 557.46 1324.35 557.98C1325.35 558.48 1326.13 559.11 1326.69 559.87V557.47H1330.14V574.27C1330.14 575.79 1329.82 577.14 1329.18 578.32C1328.54 579.52 1327.61 580.46 1326.39 581.14C1325.19 581.82 1323.75 582.16 1322.07 582.16C1319.83 582.16 1317.97 581.63 1316.49 580.57C1315.01 579.53 1314.17 578.11 1313.97 576.31H1317.36C1317.62 577.17 1318.17 577.86 1319.01 578.38C1319.87 578.92 1320.89 579.19 1322.07 579.19C1323.45 579.19 1324.56 578.77 1325.4 577.93C1326.26 577.09 1326.69 575.87 1326.69 574.27V571.51C1326.11 572.29 1325.32 572.95 1324.32 573.49C1323.34 574.01 1322.22 574.27 1320.96 574.27C1319.52 574.27 1318.2 573.91 1317 573.19C1315.82 572.45 1314.88 571.43 1314.18 570.13C1313.5 568.81 1313.16 567.32 1313.16 565.66C1313.16 564 1313.5 562.53 1314.18 561.25C1314.88 559.97 1315.82 558.98 1317 558.28C1318.2 557.56 1319.52 557.2 1320.96 557.2ZM1326.69 565.72C1326.69 564.58 1326.45 563.59 1325.97 562.75C1325.51 561.91 1324.9 561.27 1324.14 560.83C1323.38 560.39 1322.56 560.17 1321.68 560.17C1320.8 560.17 1319.98 560.39 1319.22 560.83C1318.46 561.25 1317.84 561.88 1317.36 562.72C1316.9 563.54 1316.67 564.52 1316.67 565.66C1316.67 566.8 1316.9 567.8 1317.36 568.66C1317.84 569.52 1318.46 570.18 1319.22 570.64C1320 571.08 1320.82 571.3 1321.68 571.3C1322.56 571.3 1323.38 571.08 1324.14 570.64C1324.9 570.2 1325.51 569.56 1325.97 568.72C1326.45 567.86 1326.69 566.86 1326.69 565.72ZM1336.01 574.21C1335.39 574.21 1334.87 574 1334.45 573.58C1334.03 573.16 1333.82 572.64 1333.82 572.02C1333.82 571.4 1334.03 570.88 1334.45 570.46C1334.87 570.04 1335.39 569.83 1336.01 569.83C1336.61 569.83 1337.12 570.04 1337.54 570.46C1337.96 570.88 1338.17 571.4 1338.17 572.02C1338.17 572.64 1337.96 573.16 1337.54 573.58C1337.12 574 1336.61 574.21 1336.01 574.21ZM1345.29 559.9C1345.87 559.14 1346.66 558.5 1347.66 557.98C1348.66 557.46 1349.79 557.2 1351.05 557.2C1352.49 557.2 1353.8 557.56 1354.98 558.28C1356.18 558.98 1357.12 559.97 1357.8 561.25C1358.48 562.53 1358.82 564 1358.82 565.66C1358.82 567.32 1358.48 568.81 1357.8 570.13C1357.12 571.43 1356.18 572.45 1354.98 573.19C1353.8 573.91 1352.49 574.27 1351.05 574.27C1349.79 574.27 1348.67 574.02 1347.69 573.52C1346.71 573 1345.91 572.36 1345.29 571.6V581.86H1341.87V557.47H1345.29V559.9ZM1355.34 565.66C1355.34 564.52 1355.1 563.54 1354.62 562.72C1354.16 561.88 1353.54 561.25 1352.76 560.83C1352 560.39 1351.18 560.17 1350.3 560.17C1349.44 560.17 1348.62 560.39 1347.84 560.83C1347.08 561.27 1346.46 561.91 1345.98 562.75C1345.52 563.59 1345.29 564.58 1345.29 565.72C1345.29 566.86 1345.52 567.86 1345.98 568.72C1346.46 569.56 1347.08 570.2 1347.84 570.64C1348.62 571.08 1349.44 571.3 1350.3 571.3C1351.18 571.3 1352 571.08 1352.76 570.64C1353.54 570.18 1354.16 569.52 1354.62 568.66C1355.1 567.8 1355.34 566.8 1355.34 565.66ZM1369.37 574.27C1367.81 574.27 1366.4 573.92 1365.14 573.22C1363.88 572.5 1362.89 571.5 1362.17 570.22C1361.45 568.92 1361.09 567.42 1361.09 565.72C1361.09 564.04 1361.46 562.55 1362.2 561.25C1362.94 559.95 1363.95 558.95 1365.23 558.25C1366.51 557.55 1367.94 557.2 1369.52 557.2C1371.1 557.2 1372.53 557.55 1373.81 558.25C1375.09 558.95 1376.1 559.95 1376.84 561.25C1377.58 562.55 1377.95 564.04 1377.95 565.72C1377.95 567.4 1377.57 568.89 1376.81 570.19C1376.05 571.49 1375.01 572.5 1373.69 573.22C1372.39 573.92 1370.95 574.27 1369.37 574.27ZM1369.37 571.3C1370.25 571.3 1371.07 571.09 1371.83 570.67C1372.61 570.25 1373.24 569.62 1373.72 568.78C1374.2 567.94 1374.44 566.92 1374.44 565.72C1374.44 564.52 1374.21 563.51 1373.75 562.69C1373.29 561.85 1372.68 561.22 1371.92 560.8C1371.16 560.38 1370.34 560.17 1369.46 560.17C1368.58 560.17 1367.76 560.38 1367 560.8C1366.26 561.22 1365.67 561.85 1365.23 562.69C1364.79 563.51 1364.57 564.52 1364.57 565.72C1364.57 567.5 1365.02 568.88 1365.92 569.86C1366.84 570.82 1367.99 571.3 1369.37 571.3ZM1380.19 565.66C1380.19 564 1380.53 562.53 1381.21 561.25C1381.91 559.97 1382.85 558.98 1384.03 558.28C1385.23 557.56 1386.56 557.2 1388.02 557.2C1389.1 557.2 1390.16 557.44 1391.2 557.92C1392.26 558.38 1393.1 559 1393.72 559.78V551.8H1397.17V574H1393.72V571.51C1393.16 572.31 1392.38 572.97 1391.38 573.49C1390.4 574.01 1389.27 574.27 1387.99 574.27C1386.55 574.27 1385.23 573.91 1384.03 573.19C1382.85 572.45 1381.91 571.43 1381.21 570.13C1380.53 568.81 1380.19 567.32 1380.19 565.66ZM1393.72 565.72C1393.72 564.58 1393.48 563.59 1393 562.75C1392.54 561.91 1391.93 561.27 1391.17 560.83C1390.41 560.39 1389.59 560.17 1388.71 560.17C1387.83 560.17 1387.01 560.39 1386.25 560.83C1385.49 561.25 1384.87 561.88 1384.39 562.72C1383.93 563.54 1383.7 564.52 1383.7 565.66C1383.7 566.8 1383.93 567.8 1384.39 568.66C1384.87 569.52 1385.49 570.18 1386.25 570.64C1387.03 571.08 1387.85 571.3 1388.71 571.3C1389.59 571.3 1390.41 571.08 1391.17 570.64C1391.93 570.2 1392.54 569.56 1393 568.72C1393.48 567.86 1393.72 566.86 1393.72 565.72ZM1403.04 574.21C1402.42 574.21 1401.9 574 1401.48 573.58C1401.06 573.16 1400.85 572.64 1400.85 572.02C1400.85 571.4 1401.06 570.88 1401.48 570.46C1401.9 570.04 1402.42 569.83 1403.04 569.83C1403.64 569.83 1404.15 570.04 1404.57 570.46C1404.99 570.88 1405.2 571.4 1405.2 572.02C1405.2 572.64 1404.99 573.16 1404.57 573.58C1404.15 574 1403.64 574.21 1403.04 574.21ZM1415.98 565.63L1421.32 574H1417.45L1413.88 568.39L1410.52 574H1406.95L1412.29 565.87L1406.95 557.47H1410.82L1414.39 563.08L1417.75 557.47H1421.32L1415.98 565.63ZM1438.75 557.47L1428.61 581.77H1425.07L1428.43 573.73L1421.92 557.47H1425.73L1430.38 570.07L1435.21 557.47H1438.75ZM1444.36 571.21H1451.86V574H1440.4V571.21L1447.93 560.26H1440.4V557.47H1451.86V560.26L1444.36 571.21Z" fill="#110F1F"/>
<rect x="2" y="2" width="1598" height="996" rx="23" stroke="#C4BFF2" stroke-width="4"/>
<defs>
<filter id="filter0_b_602_302" x="648" y="95" width="643" height="325" filterUnits="userSpaceOnUse" color-interpolation-filters="sRGB">
<feFlood flood-opacity="0" result="BackgroundImageFix"/>
<feGaussianBlur in="BackgroundImage" stdDeviation="50"/>
<feComposite in2="SourceAlpha" operator="in" result="effect1_backgroundBlur_602_302"/>
<feBlend mode="normal" in="SourceGraphic" in2="effect1_backgroundBlur_602_302" result="shape"/>
</filter>
<filter id="filter1_b_602_302" x="289" y="333" width="716.014" height="712.455" filterUnits="userSpaceOnUse" color-interpolation-filters="sRGB">
<feFlood flood-opacity="0" result="BackgroundImageFix"/>
<feGaussianBlur in="BackgroundImage" stdDeviation="50"/>
<feComposite in2="SourceAlpha" operator="in" result="effect1_backgroundBlur_602_302"/>
<feBlend mode="normal" in="SourceGraphic" in2="effect1_backgroundBlur_602_302" result="shape"/>
</filter>
<filter id="filter2_b_602_302" x="921" y="333" width="716.014" height="712.455" filterUnits="userSpaceOnUse" color-interpolation-filters="sRGB">
<feFlood flood-opacity="0" result="BackgroundImageFix"/>
<feGaussianBlur in="BackgroundImage" stdDeviation="50"/>
<feComposite in2="SourceAlpha" operator="in" result="effect1_backgroundBlur_602_302"/>
<feBlend mode="normal" in="SourceGraphic" in2="effect1_backgroundBlur_602_302" result="shape"/>
</filter>
</defs>
</svg>
